<svg width="254" height="37" viewBox="0 0 254 37" fill="none" xmlns="http://www.w3.org/2000/svg">
<rect width="254" height="37" rx="7" fill="#759B8C"/>
<path d="M95.905 24H94.12L98.05 13.5H100.105L104.02 24H102.175L101.185 21.405H96.88L95.905 24ZM99.025 15.36L97.36 19.935H100.705L99.025 15.36ZM108.982 16.23C109.902 16.23 110.647 16.51 111.217 17.07C111.787 17.63 112.072 18.515 112.072 19.725V24H110.437V19.86C110.437 18.37 109.827 17.625 108.607 17.625C107.967 17.625 107.462 17.85 107.092 18.3C106.732 18.74 106.552 19.35 106.552 20.13V24H104.932V16.32H106.342L106.522 17.325C107.102 16.595 107.922 16.23 108.982 16.23ZM120.565 22.59H120.895V24H120.04C119.1 24 118.63 23.59 118.63 22.77C118.05 23.65 117.205 24.09 116.095 24.09C115.235 24.09 114.545 23.89 114.025 23.49C113.505 23.09 113.245 22.54 113.245 21.84C113.245 21.05 113.525 20.445 114.085 20.025C114.645 19.595 115.46 19.38 116.53 19.38H118.465V18.915C118.465 18.485 118.315 18.15 118.015 17.91C117.725 17.66 117.315 17.535 116.785 17.535C116.315 17.535 115.925 17.64 115.615 17.85C115.305 18.05 115.12 18.32 115.06 18.66H113.47C113.55 17.91 113.89 17.32 114.49 16.89C115.1 16.45 115.89 16.23 116.86 16.23C117.89 16.23 118.68 16.47 119.23 16.95C119.79 17.43 120.07 18.12 120.07 19.02V22.095C120.07 22.285 120.11 22.415 120.19 22.485C120.27 22.555 120.395 22.59 120.565 22.59ZM118.465 20.85V20.58H116.455C115.415 20.58 114.895 20.965 114.895 21.735C114.895 22.065 115.02 22.33 115.27 22.53C115.53 22.73 115.88 22.83 116.32 22.83C116.99 22.83 117.51 22.65 117.88 22.29C118.26 21.93 118.455 21.45 118.465 20.85ZM121.777 24V13.5H123.397V24H121.777ZM127.205 24.045L124.22 16.32H125.945L128.09 22.155L130.175 16.32H131.9L128.42 25.2C128.16 25.88 127.905 26.35 127.655 26.61C127.405 26.87 127.015 27 126.485 27H124.745V25.575H125.885C126.195 25.575 126.41 25.525 126.53 25.425C126.66 25.325 126.785 25.115 126.905 24.795L127.205 24.045ZM132.332 17.745V16.32H138.617V17.475L134.327 22.575H138.812V24H132.152V22.845L136.442 17.745H132.332ZM143.235 24.09C142.035 24.09 141.08 23.735 140.37 23.025C139.66 22.305 139.305 21.355 139.305 20.175C139.305 18.995 139.65 18.045 140.34 17.325C141.04 16.595 141.955 16.23 143.085 16.23C144.195 16.23 145.09 16.56 145.77 17.22C146.46 17.88 146.815 18.77 146.835 19.89C146.835 20.09 146.82 20.295 146.79 20.505H141V20.61C141.02 21.27 141.225 21.795 141.615 22.185C142.005 22.575 142.515 22.77 143.145 22.77C143.645 22.77 144.065 22.655 144.405 22.425C144.745 22.185 144.97 21.85 145.08 21.42H146.7C146.56 22.2 146.18 22.84 145.56 23.34C144.94 23.84 144.165 24.09 143.235 24.09ZM141.06 19.32H145.155C145.085 18.76 144.865 18.325 144.495 18.015C144.135 17.695 143.67 17.535 143.1 17.535C142.57 17.535 142.11 17.7 141.72 18.03C141.34 18.35 141.12 18.78 141.06 19.32Z" fill="white"/>
<path d="M82.0606 16.0086L81.3794 14L80.6981 16.0086C80.2201 17.4187 79.2016 18.5304 77.9095 19.052L76.069 19.7955L77.9095 20.5389C79.2016 21.0606 80.2202 22.1722 80.6981 23.5823L81.3794 25.5909L82.0606 23.5823C82.5386 22.1722 83.5572 21.0605 84.8493 20.5389L86.6898 19.7955L84.8493 19.052C83.5572 18.5303 82.5386 17.4187 82.0606 16.0086Z" fill="white"/>
<path d="M73.4238 15.0713L73.0345 14L72.6452 15.0713C72.3721 15.8233 71.79 16.4162 71.0517 16.6944L70 17.0909L71.0517 17.4874C71.7901 17.7657 72.3721 18.3585 72.6452 19.1106L73.0345 20.1818L73.4238 19.1106C73.697 18.3585 74.279 17.7656 75.0173 17.4874L76.069 17.0909L75.0173 16.6944C74.279 16.4162 73.6969 15.8233 73.4238 15.0713Z" fill="white"/>
<path d="M75.1744 23.9422L74.9311 23.2727L74.6878 23.9422C74.5171 24.4123 74.1533 24.7828 73.6919 24.9567L73.0345 25.2045L73.6919 25.4523C74.1533 25.6262 74.5171 25.9968 74.6878 26.4668L74.9311 27.1363L75.1744 26.4668C75.3451 25.9968 75.7089 25.6262 76.1704 25.4523L76.8277 25.2045L76.1704 24.9567C75.7089 24.7828 75.3451 24.4123 75.1744 23.9422Z" fill="white"/>
</svg>
