<svg width="291" height="186" viewBox="0 0 291 186" fill="none" xmlns="http://www.w3.org/2000/svg">
<g filter="url(#filter0_d_64_18)">
<g clip-path="url(#clip0_64_18)">
<rect x="0.25" y="0.25" width="289.5" height="184.5" rx="12.75" fill="white" stroke="#D9D9D9" stroke-width="0.5"/>
<path d="M0 140H290V185H0V140Z" fill="#528052"/>
<path d="M269.446 168.415L269.961 168.93L275.926 162.965L269.961 157L269.446 157.516L274.527 162.597H257V163.333H274.527L269.446 168.415Z" fill="white"/>
<path d="M26.698 169L22.162 156.4H23.818L27.67 167.146L31.504 156.4H33.124L28.588 169H26.698ZM35.0492 158.272C34.5092 158.272 34.0952 157.876 34.0952 157.318C34.0952 156.76 34.5092 156.364 35.0492 156.364C35.5892 156.364 36.0032 156.76 36.0032 157.318C36.0032 157.876 35.5892 158.272 35.0492 158.272ZM34.2932 169V159.82H35.7692V169H34.2932ZM42.0212 169.108C39.2672 169.108 37.4672 167.218 37.4672 164.41C37.4672 161.62 39.2312 159.712 41.8232 159.712C44.4152 159.712 46.1072 161.35 46.1792 164.068C46.1792 164.266 46.1612 164.482 46.1432 164.698H39.0152V164.824C39.0692 166.57 40.1672 167.794 41.9132 167.794C43.2092 167.794 44.2172 167.11 44.5232 165.922H46.0172C45.6572 167.758 44.1452 169.108 42.0212 169.108ZM39.1052 163.474H44.5952C44.4512 161.89 43.3712 161.008 41.8412 161.008C40.4912 161.008 39.2492 161.98 39.1052 163.474ZM49.6706 169L46.7006 159.82H48.2486L50.5346 167.29L52.9466 159.82H54.3146L56.6006 167.29L58.9946 159.82H60.4886L57.4286 169H55.8086L53.5946 162.178L51.2906 169H49.6706ZM66.5717 169V156.4H74.4017V157.84H68.1377V162.052H73.3217V163.492H68.1377V169H66.5717ZM81.8168 164.41V159.82H83.2928V169H82.0148L81.8168 167.776C81.2768 168.46 80.3948 169.108 78.8828 169.108C76.8668 169.108 75.2648 167.974 75.2648 164.932V159.82H76.7408V164.842C76.7408 166.75 77.6048 167.758 79.1348 167.758C80.8088 167.758 81.8168 166.48 81.8168 164.41ZM85.3049 169V156.4H86.7809V169H85.3049ZM88.8029 169V156.4H90.2789V169H88.8029ZM97.2279 169V156.4H102.052C104.572 156.4 106.246 157.912 106.246 160.27C106.246 162.034 105.184 163.402 103.564 163.852L106.39 169H104.626L101.962 164.158H98.7939V169H97.2279ZM101.944 157.84H98.7939V162.718H101.926C103.582 162.718 104.644 161.746 104.644 160.27C104.644 158.794 103.582 157.84 101.944 157.84ZM111.771 169.108C109.017 169.108 107.217 167.218 107.217 164.41C107.217 161.62 108.981 159.712 111.573 159.712C114.165 159.712 115.857 161.35 115.929 164.068C115.929 164.266 115.911 164.482 115.893 164.698H108.765V164.824C108.819 166.57 109.917 167.794 111.663 167.794C112.959 167.794 113.967 167.11 114.273 165.922H115.767C115.407 167.758 113.895 169.108 111.771 169.108ZM108.855 163.474H114.345C114.201 161.89 113.121 161.008 111.591 161.008C110.241 161.008 108.999 161.98 108.855 163.474ZM122.239 159.712C124.777 159.712 126.649 161.422 126.649 164.41C126.649 167.218 124.777 169.108 122.239 169.108C120.691 169.108 119.647 168.478 119.089 167.596V172.6H117.613V159.82H118.891L119.089 161.296C119.701 160.45 120.691 159.712 122.239 159.712ZM122.095 167.794C123.913 167.794 125.137 166.408 125.137 164.41C125.137 162.412 123.913 161.026 122.095 161.026C120.295 161.026 119.071 162.412 119.071 164.374C119.071 166.39 120.295 167.794 122.095 167.794ZM132.566 169.108C129.884 169.108 128.012 167.2 128.012 164.41C128.012 161.62 129.884 159.712 132.566 159.712C135.248 159.712 137.12 161.62 137.12 164.41C137.12 167.2 135.248 169.108 132.566 169.108ZM132.566 167.794C134.384 167.794 135.608 166.372 135.608 164.41C135.608 162.448 134.384 161.026 132.566 161.026C130.748 161.026 129.524 162.448 129.524 164.41C129.524 166.372 130.748 167.794 132.566 167.794ZM143.061 159.82H143.475V161.26H142.737C140.811 161.26 140.289 162.862 140.289 164.32V169H138.813V159.82H140.091L140.289 161.206C140.721 160.504 141.423 159.82 143.061 159.82ZM145.737 166.606V161.17H144.081V159.82H145.737V157.246H147.213V159.82H149.589V161.17H147.213V166.588C147.213 167.362 147.483 167.65 148.275 167.65H149.733V169H148.131C146.367 169 145.737 168.226 145.737 166.606Z" fill="white"/>
<g filter="url(#filter1_d_64_18)">
<rect x="12" y="15" width="32" height="32" rx="16" fill="#252C1E"/>
<rect x="12.25" y="15.25" width="31.5" height="31.5" rx="15.75" stroke="#D9D9D9" stroke-width="0.5"/>
</g>
<path d="M26.088 36.7949L26.088 37.5239H34.5239L34.5239 29.088L33.7948 29.088L33.7948 36.2741L21.4014 23.8807L20.8806 24.4014L33.2741 36.7949H26.088Z" fill="white"/>
<path d="M62.36 32.12C60.3333 32.12 58.72 31.4733 57.52 30.18C56.3333 28.8867 55.74 27.16 55.74 25C55.74 22.8533 56.3533 21.1333 57.58 19.84C58.8067 18.5333 60.4467 17.88 62.5 17.88C64.1 17.88 65.4333 18.3267 66.5 19.22C67.58 20.1 68.2333 21.28 68.46 22.76H66.08C65.8533 21.8667 65.4133 21.1667 64.76 20.66C64.12 20.1533 63.3333 19.9 62.4 19.9C61.08 19.9 60.0333 20.3733 59.26 21.32C58.4867 22.2533 58.1 23.48 58.1 25C58.1 26.52 58.48 27.7533 59.24 28.7C60 29.6333 61.0333 30.1 62.34 30.1C63.3 30.1 64.1 29.8467 64.74 29.34C65.3933 28.8333 65.8333 28.1333 66.06 27.24H68.44C68.2133 28.72 67.5467 29.9067 66.44 30.8C65.3467 31.68 63.9867 32.12 62.36 32.12ZM75.5025 21.64C76.7425 21.64 77.7425 22.0133 78.5025 22.76C79.2625 23.5067 79.6425 24.6867 79.6425 26.3V32H77.4825V26.48C77.4825 25.5067 77.2692 24.7667 76.8425 24.26C76.4292 23.7533 75.8225 23.5 75.0225 23.5C74.1692 23.5 73.4958 23.8 73.0025 24.4C72.5225 24.9867 72.2825 25.7933 72.2825 26.82V32H70.1225V18H72.2825V23.24C73.0558 22.1733 74.1292 21.64 75.5025 21.64ZM83.6469 19.96C83.3935 20.2 83.0802 20.32 82.7069 20.32C82.3335 20.32 82.0202 20.2 81.7669 19.96C81.5135 19.7067 81.3869 19.3933 81.3869 19.02C81.3869 18.6467 81.5135 18.34 81.7669 18.1C82.0202 17.8467 82.3335 17.72 82.7069 17.72C83.0802 17.72 83.3935 17.8467 83.6469 18.1C83.9002 18.34 84.0269 18.6467 84.0269 19.02C84.0269 19.3933 83.9002 19.7067 83.6469 19.96ZM81.6069 32V21.76H83.7669V32H81.6069ZM90.5842 32.12C89.0376 32.12 87.8042 31.6533 86.8842 30.72C85.9642 29.7733 85.5042 28.5 85.5042 26.9C85.5042 25.3133 85.9709 24.04 86.9042 23.08C87.8509 22.12 89.0976 21.64 90.6442 21.64C91.9376 21.64 92.9909 21.9733 93.8042 22.64C94.6176 23.3067 95.1309 24.2333 95.3442 25.42H93.0842C92.9376 24.8067 92.6509 24.3333 92.2242 24C91.7976 23.6533 91.2576 23.48 90.6042 23.48C89.7376 23.48 89.0376 23.8 88.5042 24.44C87.9842 25.0667 87.7242 25.8867 87.7242 26.9C87.7242 27.9 87.9842 28.7133 88.5042 29.34C89.0376 29.9667 89.7376 30.28 90.6042 30.28C91.2576 30.28 91.7976 30.1067 92.2242 29.76C92.6509 29.4133 92.9309 28.94 93.0642 28.34H95.3442C95.1442 29.5133 94.6242 30.44 93.7842 31.12C92.9442 31.7867 91.8776 32.12 90.5842 32.12ZM96.9975 32V18H99.1575V26.72L103.798 21.76H106.338L102.478 25.9L106.578 32H104.018L100.998 27.48L99.1575 29.4V32H96.9975ZM111.838 32.12C110.238 32.12 108.965 31.6467 108.018 30.7C107.071 29.74 106.598 28.4733 106.598 26.9C106.598 25.3267 107.058 24.06 107.978 23.1C108.911 22.1267 110.131 21.64 111.638 21.64C113.118 21.64 114.311 22.08 115.218 22.96C116.138 23.84 116.611 25.0267 116.638 26.52C116.638 26.7867 116.618 27.06 116.578 27.34H108.858V27.48C108.885 28.36 109.158 29.06 109.678 29.58C110.198 30.1 110.878 30.36 111.718 30.36C112.385 30.36 112.945 30.2067 113.398 29.9C113.851 29.58 114.151 29.1333 114.298 28.56H116.458C116.271 29.6 115.765 30.4533 114.938 31.12C114.111 31.7867 113.078 32.12 111.838 32.12ZM108.938 25.76H114.398C114.305 25.0133 114.011 24.4333 113.518 24.02C113.038 23.5933 112.418 23.38 111.658 23.38C110.951 23.38 110.338 23.6 109.818 24.04C109.311 24.4667 109.018 25.04 108.938 25.76ZM123.784 21.64C125.011 21.64 126.004 22.0133 126.764 22.76C127.524 23.5067 127.904 24.6867 127.904 26.3V32H125.724V26.48C125.724 24.4933 124.911 23.5 123.284 23.5C122.431 23.5 121.758 23.8 121.264 24.4C120.784 24.9867 120.544 25.8 120.544 26.84V32H118.384V21.76H120.264L120.504 23.1C121.278 22.1267 122.371 21.64 123.784 21.64ZM141.286 32.12C139.259 32.12 137.646 31.4733 136.446 30.18C135.259 28.8867 134.666 27.16 134.666 25C134.666 22.8533 135.279 21.1333 136.506 19.84C137.732 18.5333 139.372 17.88 141.426 17.88C143.026 17.88 144.359 18.3267 145.426 19.22C146.506 20.1 147.159 21.28 147.386 22.76H145.006C144.779 21.8667 144.339 21.1667 143.686 20.66C143.046 20.1533 142.259 19.9 141.326 19.9C140.006 19.9 138.959 20.3733 138.186 21.32C137.412 22.2533 137.026 23.48 137.026 25C137.026 26.52 137.406 27.7533 138.166 28.7C138.926 29.6333 139.959 30.1 141.266 30.1C142.226 30.1 143.026 29.8467 143.666 29.34C144.319 28.8333 144.759 28.1333 144.986 27.24H147.366C147.139 28.72 146.472 29.9067 145.366 30.8C144.272 31.68 142.912 32.12 141.286 32.12ZM157.668 30.68C156.708 31.64 155.448 32.12 153.888 32.12C152.328 32.12 151.068 31.64 150.108 30.68C149.148 29.72 148.668 28.4533 148.668 26.88C148.668 25.32 149.148 24.06 150.108 23.1C151.068 22.1267 152.328 21.64 153.888 21.64C155.448 21.64 156.708 22.1267 157.668 23.1C158.628 24.06 159.108 25.32 159.108 26.88C159.108 28.4533 158.628 29.72 157.668 30.68ZM151.708 29.34C152.255 29.9667 152.982 30.28 153.888 30.28C154.795 30.28 155.522 29.9667 156.068 29.34C156.628 28.7 156.908 27.88 156.908 26.88C156.908 25.88 156.628 25.0667 156.068 24.44C155.522 23.8 154.795 23.48 153.888 23.48C152.982 23.48 152.255 23.8 151.708 24.44C151.162 25.0667 150.888 25.88 150.888 26.88C150.888 27.88 151.162 28.7 151.708 29.34ZM167.865 26.88V21.76H170.025V32H168.125L167.885 30.7C167.112 31.6467 166.058 32.12 164.725 32.12C163.525 32.12 162.552 31.7533 161.805 31.02C161.058 30.2867 160.685 29.1 160.685 27.46V21.76H162.845V27.22C162.845 29.2333 163.638 30.24 165.225 30.24C166.052 30.24 166.698 29.9467 167.165 29.36C167.632 28.76 167.865 27.9333 167.865 26.88ZM177.554 21.64C178.78 21.64 179.774 22.0133 180.534 22.76C181.294 23.5067 181.674 24.6867 181.674 26.3V32H179.494V26.48C179.494 24.4933 178.68 23.5 177.054 23.5C176.2 23.5 175.527 23.8 175.034 24.4C174.554 24.9867 174.314 25.8 174.314 26.84V32H172.154V21.76H174.034L174.274 23.1C175.047 22.1267 176.14 21.64 177.554 21.64ZM184.378 29.22V23.66H182.598V21.76H184.378V18.9H186.558V21.76H189.058V23.66H186.558V29C186.558 29.4 186.638 29.6867 186.798 29.86C186.958 30.02 187.245 30.1 187.658 30.1H189.178V32H187.178C186.205 32 185.491 31.7733 185.038 31.32C184.598 30.8667 184.378 30.1667 184.378 29.22Z" fill="#252C1E"/>
<path d="M57.864 46V37.6H58.692L61.956 45.124L65.196 37.6H66.012V46H65.376V38.692L62.232 46H61.644L58.5 38.692V46H57.864ZM70.2869 46.072C69.4309 46.072 68.7309 45.784 68.1869 45.208C67.6429 44.624 67.3709 43.872 67.3709 42.952C67.3709 42.032 67.6429 41.284 68.1869 40.708C68.7309 40.132 69.4309 39.844 70.2869 39.844C71.1429 39.844 71.8429 40.132 72.3869 40.708C72.9389 41.284 73.2149 42.032 73.2149 42.952C73.2149 43.872 72.9429 44.624 72.3989 45.208C71.8549 45.784 71.1509 46.072 70.2869 46.072ZM68.6309 44.812C69.0549 45.284 69.6069 45.52 70.2869 45.52C70.9669 45.52 71.5189 45.284 71.9429 44.812C72.3669 44.332 72.5789 43.712 72.5789 42.952C72.5789 42.2 72.3629 41.584 71.9309 41.104C71.5069 40.624 70.9589 40.384 70.2869 40.384C69.6149 40.384 69.0629 40.624 68.6309 41.104C68.2069 41.584 67.9949 42.2 67.9949 42.952C67.9949 43.712 68.2069 44.332 68.6309 44.812ZM77.2389 39.844C77.9669 39.844 78.5469 40.072 78.9789 40.528C79.4189 40.984 79.6389 41.672 79.6389 42.592V46H79.0269V42.616C79.0269 41.904 78.8589 41.36 78.5229 40.984C78.1949 40.6 77.7349 40.408 77.1429 40.408C76.4949 40.408 75.9829 40.644 75.6069 41.116C75.2309 41.58 75.0429 42.208 75.0429 43V46H74.4309V39.916H74.9589L75.0549 41.212C75.2389 40.796 75.5149 40.464 75.8829 40.216C76.2509 39.968 76.7029 39.844 77.2389 39.844ZM81.6054 38.512C81.5254 38.592 81.4254 38.632 81.3054 38.632C81.1854 38.632 81.0814 38.592 80.9934 38.512C80.9134 38.432 80.8734 38.328 80.8734 38.2C80.8734 38.072 80.9134 37.968 80.9934 37.888C81.0814 37.808 81.1854 37.768 81.3054 37.768C81.4254 37.768 81.5254 37.808 81.6054 37.888C81.6934 37.968 81.7374 38.072 81.7374 38.2C81.7374 38.328 81.6934 38.432 81.6054 38.512ZM80.9934 46V39.916H81.6054V46H80.9934ZM83.5002 44.584V40.48H82.3482V39.916H83.5002V38.212H84.1122V39.916H85.7562V40.48H84.1122V44.572C84.1122 44.884 84.1762 45.108 84.3042 45.244C84.4322 45.372 84.6562 45.436 84.9762 45.436H85.8162V46H84.9282C84.4162 46 84.0482 45.888 83.8242 45.664C83.6082 45.44 83.5002 45.08 83.5002 44.584ZM89.2478 46.072C88.3918 46.072 87.6918 45.784 87.1478 45.208C86.6038 44.624 86.3318 43.872 86.3318 42.952C86.3318 42.032 86.6038 41.284 87.1478 40.708C87.6918 40.132 88.3918 39.844 89.2478 39.844C90.1038 39.844 90.8038 40.132 91.3478 40.708C91.8998 41.284 92.1758 42.032 92.1758 42.952C92.1758 43.872 91.9038 44.624 91.3598 45.208C90.8158 45.784 90.1118 46.072 89.2478 46.072ZM87.5918 44.812C88.0158 45.284 88.5678 45.52 89.2478 45.52C89.9278 45.52 90.4798 45.284 90.9038 44.812C91.3278 44.332 91.5398 43.712 91.5398 42.952C91.5398 42.2 91.3238 41.584 90.8918 41.104C90.4678 40.624 89.9198 40.384 89.2478 40.384C88.5758 40.384 88.0238 40.624 87.5918 41.104C87.1678 41.584 86.9558 42.2 86.9558 42.952C86.9558 43.712 87.1678 44.332 87.5918 44.812ZM95.8759 39.916H96.1999V40.504H95.7559C94.5879 40.504 94.0039 41.308 94.0039 42.916V46H93.3919V39.916H93.9199L94.0159 41.128C94.3199 40.32 94.9399 39.916 95.8759 39.916ZM102.165 46L99.7291 39.916H100.389L102.501 45.208L104.577 39.916H105.237L102.321 47.128C102.113 47.64 101.925 47.98 101.757 48.148C101.597 48.316 101.321 48.4 100.929 48.4H99.9931V47.836H100.761C101.057 47.836 101.261 47.784 101.373 47.68C101.493 47.576 101.625 47.344 101.769 46.984L102.165 46ZM108.49 46.072C107.634 46.072 106.934 45.784 106.39 45.208C105.846 44.624 105.574 43.872 105.574 42.952C105.574 42.032 105.846 41.284 106.39 40.708C106.934 40.132 107.634 39.844 108.49 39.844C109.346 39.844 110.046 40.132 110.59 40.708C111.142 41.284 111.418 42.032 111.418 42.952C111.418 43.872 111.146 44.624 110.602 45.208C110.058 45.784 109.354 46.072 108.49 46.072ZM106.834 44.812C107.258 45.284 107.81 45.52 108.49 45.52C109.17 45.52 109.722 45.284 110.146 44.812C110.57 44.332 110.782 43.712 110.782 42.952C110.782 42.2 110.566 41.584 110.134 41.104C109.71 40.624 109.162 40.384 108.49 40.384C107.818 40.384 107.266 40.624 106.834 41.104C106.41 41.584 106.198 42.2 106.198 42.952C106.198 43.712 106.41 44.332 106.834 44.812ZM117.05 42.904V39.916H117.662V46H117.122L117.038 44.716C116.854 45.132 116.582 45.464 116.222 45.712C115.862 45.952 115.422 46.072 114.902 46.072C114.198 46.072 113.63 45.844 113.198 45.388C112.774 44.924 112.562 44.236 112.562 43.324V39.916H113.174V43.288C113.174 44.008 113.334 44.56 113.654 44.944C113.974 45.32 114.422 45.508 114.998 45.508C115.63 45.508 116.13 45.276 116.498 44.812C116.866 44.34 117.05 43.704 117.05 42.904ZM121.587 39.916H121.911V40.504H121.467C120.299 40.504 119.715 41.308 119.715 42.916V46H119.103V39.916H119.631L119.727 41.128C120.031 40.32 120.651 39.916 121.587 39.916ZM125.356 40.48V39.916H126.508V39.016C126.508 38.528 126.62 38.172 126.844 37.948C127.068 37.716 127.432 37.6 127.936 37.6H128.956V38.164H127.96C127.656 38.164 127.44 38.228 127.312 38.356C127.184 38.484 127.12 38.7 127.12 39.004V39.916H128.944V40.48H127.12V46H126.508V40.48H125.356ZM129.685 46V37.6H130.297V46H129.685ZM134.424 46.072C133.568 46.072 132.868 45.784 132.324 45.208C131.78 44.624 131.508 43.872 131.508 42.952C131.508 42.032 131.78 41.284 132.324 40.708C132.868 40.132 133.568 39.844 134.424 39.844C135.28 39.844 135.98 40.132 136.524 40.708C137.076 41.284 137.352 42.032 137.352 42.952C137.352 43.872 137.08 44.624 136.536 45.208C135.992 45.784 135.288 46.072 134.424 46.072ZM132.768 44.812C133.192 45.284 133.744 45.52 134.424 45.52C135.104 45.52 135.656 45.284 136.08 44.812C136.504 44.332 136.716 43.712 136.716 42.952C136.716 42.2 136.5 41.584 136.068 41.104C135.644 40.624 135.096 40.384 134.424 40.384C133.752 40.384 133.2 40.624 132.768 41.104C132.344 41.584 132.132 42.2 132.132 42.952C132.132 43.712 132.344 44.332 132.768 44.812ZM141.22 46.072C140.356 46.072 139.66 45.788 139.132 45.22C138.604 44.652 138.34 43.9 138.34 42.964C138.34 42.036 138.608 41.284 139.144 40.708C139.68 40.132 140.376 39.844 141.232 39.844C141.92 39.844 142.488 40.024 142.936 40.384C143.392 40.744 143.684 41.24 143.812 41.872H143.176C143.064 41.408 142.836 41.044 142.492 40.78C142.148 40.516 141.724 40.384 141.22 40.384C140.548 40.384 140.004 40.624 139.588 41.104C139.172 41.584 138.964 42.204 138.964 42.964C138.964 43.716 139.172 44.332 139.588 44.812C140.012 45.284 140.556 45.52 141.22 45.52C141.724 45.52 142.148 45.388 142.492 45.124C142.836 44.86 143.06 44.5 143.164 44.044H143.812C143.692 44.668 143.4 45.164 142.936 45.532C142.48 45.892 141.908 46.072 141.22 46.072ZM145.001 46V37.6H145.613V43.564L149.153 39.916H149.909L147.461 42.448L150.113 46H149.369L147.041 42.892L145.613 44.356V46H145.001Z" fill="#6A6A6A"/>
<path d="M25.35 79.8V76H29.45V111H25.25V85.9C24.75 86.35 23.95 86.55 22.85 86.55H17.2V82.8H22.9C24.55 82.8 25.35 81.55 25.35 79.8ZM37.568 105.75C40.018 105.75 41.518 108.1 41.518 110.85C41.518 115.1 38.868 117.65 34.468 117.75V115.4C37.668 115.35 38.668 113.1 38.668 111.4C38.668 111.15 38.668 110.95 38.618 110.75C38.218 111.15 37.518 111.35 36.918 111.35C35.418 111.35 34.268 110.45 34.268 108.65C34.268 107 35.468 105.75 37.568 105.75ZM61.8035 92.8C65.0035 93.4 68.3535 95.95 68.3535 101.3C68.3535 107.25 63.3535 111.3 55.7535 111.3C48.1535 111.3 43.2535 107.15 43.2535 100.2H47.4035C47.4535 104.8 51.0535 107.55 56.0035 107.55C60.5535 107.55 64.0535 105 64.0535 101C64.0535 97.35 61.0535 95 55.6035 95H52.6035V91.35H55.3535C60.5535 91.35 63.1535 88.75 63.1535 85.2C63.1535 81.65 59.9535 79.45 55.7535 79.45C51.3535 79.45 48.1535 82.1 48.1035 86.1H43.9535C44.0035 79.95 48.8035 75.7 55.7035 75.7C62.9035 75.7 67.4535 79.45 67.4535 84.95C67.4535 89.35 65.1535 91.9 61.8035 92.8ZM85.6191 87.55C92.4691 87.55 97.2191 92.35 97.2191 99.3C97.2191 107.05 91.5191 111.25 84.9691 111.25C77.1691 111.25 72.6691 106.2 72.3191 100.1H76.4691C76.8691 104.15 79.9191 107.5 84.9691 107.5C89.0691 107.5 92.9191 104.75 92.9191 99.35C92.9191 94.6 89.8691 91.25 85.0191 91.25C82.8691 91.25 78.5691 91.85 77.0691 96L73.0191 95.9L74.1691 76H95.1191V79.85H78.0191L77.2191 90.9C79.3691 88.35 82.3691 87.55 85.6191 87.55ZM97.9652 79.85V76H122.665V78.95L105.465 111H100.915L118.065 79.85H97.9652Z" fill="black"/>
<path d="M132.775 107.25H127.78V106.215H132.775V107.25ZM133.468 111V109.935L137.548 106.395C138.523 105.555 139.333 104.745 139.333 103.605C139.333 102.285 138.433 101.535 137.038 101.535C135.688 101.535 134.788 102.435 134.788 103.875V104.07H133.528V103.8C133.528 101.82 134.923 100.41 137.038 100.41C139.303 100.41 140.623 101.655 140.623 103.545C140.623 105.12 139.603 106.11 138.358 107.175L135.208 109.845H140.698V111H133.468ZM144.09 100.14C144.83 100.14 145.39 100.435 145.77 101.025C146.15 101.605 146.34 102.425 146.34 103.485C146.34 104.545 146.155 105.375 145.785 105.975C145.425 106.565 144.86 106.86 144.09 106.86C143.62 106.86 143.22 106.725 142.89 106.455C142.56 106.185 142.31 105.8 142.14 105.3C141.98 104.79 141.9 104.185 141.9 103.485C141.9 102.425 142.075 101.605 142.425 101.025C142.775 100.435 143.33 100.14 144.09 100.14ZM144.09 101.07C143.71 101.07 143.43 101.275 143.25 101.685C143.08 102.085 142.995 102.685 142.995 103.485C142.995 104.285 143.08 104.89 143.25 105.3C143.43 105.71 143.71 105.915 144.09 105.915C144.48 105.915 144.77 105.715 144.96 105.315C145.15 104.905 145.245 104.295 145.245 103.485C145.245 102.685 145.15 102.085 144.96 101.685C144.77 101.275 144.48 101.07 144.09 101.07ZM150.945 100.29L145.005 111H143.85L149.79 100.29H150.945ZM150.645 104.43C151.135 104.43 151.545 104.565 151.875 104.835C152.205 105.095 152.455 105.475 152.625 105.975C152.805 106.465 152.895 107.065 152.895 107.775C152.895 108.835 152.71 109.665 152.34 110.265C151.98 110.855 151.415 111.15 150.645 111.15C150.175 111.15 149.775 111.015 149.445 110.745C149.115 110.475 148.865 110.09 148.695 109.59C148.535 109.08 148.455 108.475 148.455 107.775C148.455 106.715 148.63 105.895 148.98 105.315C149.33 104.725 149.885 104.43 150.645 104.43ZM150.645 105.375C150.265 105.375 149.985 105.575 149.805 105.975C149.635 106.375 149.55 106.975 149.55 107.775C149.55 108.585 149.635 109.195 149.805 109.605C149.985 110.005 150.265 110.205 150.645 110.205C151.035 110.205 151.325 110.005 151.515 109.605C151.705 109.205 151.8 108.595 151.8 107.775C151.8 106.975 151.705 106.375 151.515 105.975C151.325 105.575 151.035 105.375 150.645 105.375Z" fill="#8D3939"/>
</g>
<rect x="1.25" y="1.25" width="288.5" height="183.5" rx="12.75" stroke="#E9E9E9" stroke-width="0.5" shape-rendering="crispEdges"/>
</g>
<defs>
<filter id="filter0_d_64_18" x="0" y="0" width="291" height="186" filterUnits="userSpaceOnUse" color-interpolation-filters="sRGB">
<feFlood flood-opacity="0" result="BackgroundImageFix"/>
<feColorMatrix in="SourceAlpha" type="matrix" values="0 0 0 0 0 0 0 0 0 0 0 0 0 0 0 0 0 0 127 0" result="hardAlpha"/>
<feOffset/>
<feGaussianBlur stdDeviation="0.5"/>
<feComposite in2="hardAlpha" operator="out"/>
<feColorMatrix type="matrix" values="0 0 0 0 0 0 0 0 0 0 0 0 0 0 0 0 0 0 0.25 0"/>
<feBlend mode="normal" in2="BackgroundImageFix" result="effect1_dropShadow_64_18"/>
<feBlend mode="normal" in="SourceGraphic" in2="effect1_dropShadow_64_18" result="shape"/>
</filter>
<filter id="filter1_d_64_18" x="11" y="14" width="34" height="34" filterUnits="userSpaceOnUse" color-interpolation-filters="sRGB">
<feFlood flood-opacity="0" result="BackgroundImageFix"/>
<feColorMatrix in="SourceAlpha" type="matrix" values="0 0 0 0 0 0 0 0 0 0 0 0 0 0 0 0 0 0 127 0" result="hardAlpha"/>
<feOffset/>
<feGaussianBlur stdDeviation="0.5"/>
<feComposite in2="hardAlpha" operator="out"/>
<feColorMatrix type="matrix" values="0 0 0 0 0 0 0 0 0 0 0 0 0 0 0 0 0 0 0.25 0"/>
<feBlend mode="normal" in2="BackgroundImageFix" result="effect1_dropShadow_64_18"/>
<feBlend mode="normal" in="SourceGraphic" in2="effect1_dropShadow_64_18" result="shape"/>
</filter>
<clipPath id="clip0_64_18">
<rect x="1" y="1" width="289" height="184" rx="13" fill="white"/>
</clipPath>
</defs>
</svg>
