<svg width="256" height="108" viewBox="0 0 256 108" fill="none" xmlns="http://www.w3.org/2000/svg">
<rect x="0.5" y="0.5" width="255" height="107" rx="13.5" fill="#D9D9D9" fill-opacity="0.5" stroke="#528052" stroke-dasharray="5 5"/>
<path d="M132.334 36.3327L127.001 30.9994M127.001 30.9994L121.667 36.3327M127.001 30.9994V42.9994M138.187 39.5194C139.488 38.8104 140.515 37.6886 141.107 36.3309C141.699 34.9732 141.822 33.4571 141.457 32.0217C141.091 30.5863 140.259 29.3134 139.089 28.404C137.92 27.4946 136.482 27.0004 135.001 26.9994H133.321C132.917 25.4384 132.165 23.9892 131.12 22.7607C130.076 21.5323 128.767 20.5565 127.291 19.9069C125.816 19.2572 124.212 18.9506 122.601 19.0099C120.989 19.0693 119.413 19.4931 117.989 20.2496C116.565 21.0061 115.331 22.0755 114.38 23.3775C113.429 24.6795 112.785 26.1801 112.498 27.7666C112.21 29.3531 112.286 30.9841 112.72 32.5371C113.153 34.0901 113.933 35.5246 115.001 36.7327" stroke="#528052" stroke-width="2.5" stroke-linecap="round" stroke-linejoin="round"/>
<path d="M61.832 67H58.024V55.8H61.832C63.5707 55.8 64.9573 56.312 65.992 57.336C67.0267 58.36 67.544 59.7093 67.544 61.384C67.544 63.0587 67.0267 64.4133 65.992 65.448C64.9573 66.4827 63.5707 67 61.832 67ZM59.864 57.4V65.4H61.832C63.048 65.4 63.9867 65.0373 64.648 64.312C65.32 63.5867 65.656 62.6107 65.656 61.384C65.656 60.168 65.32 59.2027 64.648 58.488C63.9867 57.7627 63.048 57.4 61.832 57.4H59.864ZM73.1326 58.808H73.5166V60.424H72.7486C72.034 60.424 71.5166 60.6587 71.1966 61.128C70.8766 61.5867 70.7166 62.1733 70.7166 62.888V67H68.9886V58.808H70.5246L70.7166 60.04C71.218 59.2187 72.0233 58.808 73.1326 58.808ZM81.0878 65.944C80.3198 66.712 79.3118 67.096 78.0638 67.096C76.8158 67.096 75.8078 66.712 75.0398 65.944C74.2718 65.176 73.8878 64.1627 73.8878 62.904C73.8878 61.656 74.2718 60.648 75.0398 59.88C75.8078 59.1013 76.8158 58.712 78.0638 58.712C79.3118 58.712 80.3198 59.1013 81.0878 59.88C81.8558 60.648 82.2398 61.656 82.2398 62.904C82.2398 64.1627 81.8558 65.176 81.0878 65.944ZM76.3198 64.872C76.7571 65.3733 77.3384 65.624 78.0638 65.624C78.7891 65.624 79.3704 65.3733 79.8078 64.872C80.2558 64.36 80.4798 63.704 80.4798 62.904C80.4798 62.104 80.2558 61.4533 79.8078 60.952C79.3704 60.44 78.7891 60.184 78.0638 60.184C77.3384 60.184 76.7571 60.44 76.3198 60.952C75.8824 61.4533 75.6638 62.104 75.6638 62.904C75.6638 63.704 75.8824 64.36 76.3198 64.872ZM88.0133 58.712C89.1546 58.712 90.0826 59.0907 90.7973 59.848C91.5226 60.5947 91.8853 61.6133 91.8853 62.904C91.8853 64.152 91.5226 65.1653 90.7973 65.944C90.0719 66.712 89.1439 67.096 88.0133 67.096C86.8186 67.096 85.9333 66.68 85.3573 65.848V70.2H83.6293V58.808H85.1332L85.3413 60.024C86.0026 59.1493 86.8933 58.712 88.0133 58.712ZM85.9973 64.872C86.4346 65.384 87.0106 65.64 87.7253 65.64C88.4399 65.64 89.0159 65.384 89.4533 64.872C89.9013 64.36 90.1253 63.704 90.1253 62.904C90.1253 62.0933 89.9013 61.4373 89.4533 60.936C89.0159 60.4347 88.4399 60.184 87.7253 60.184C87.0106 60.184 86.4346 60.4347 85.9973 60.936C85.5599 61.4267 85.3413 62.072 85.3413 62.872C85.3413 63.6933 85.5599 64.36 85.9973 64.872ZM104.34 57.368C104.137 57.56 103.886 57.656 103.588 57.656C103.289 57.656 103.038 57.56 102.836 57.368C102.633 57.1653 102.532 56.9147 102.532 56.616C102.532 56.3173 102.633 56.072 102.836 55.88C103.038 55.6773 103.289 55.576 103.588 55.576C103.886 55.576 104.137 55.6773 104.34 55.88C104.542 56.072 104.644 56.3173 104.644 56.616C104.644 56.9147 104.542 57.1653 104.34 57.368ZM99.6996 58.808H104.452V67H102.708V60.328H99.6996V67H97.9556V60.328H96.5316V58.808H97.9556V57.992C97.9556 56.5307 98.7183 55.8 100.244 55.8H101.7V57.32H100.484C100.206 57.32 100.004 57.384 99.8756 57.512C99.7583 57.64 99.6996 57.8427 99.6996 58.12V58.808ZM106.129 67V55.8H107.857V67H106.129ZM113.439 67.096C112.159 67.096 111.14 66.7173 110.383 65.96C109.626 65.192 109.247 64.1787 109.247 62.92C109.247 61.6613 109.615 60.648 110.351 59.88C111.098 59.1013 112.074 58.712 113.279 58.712C114.463 58.712 115.418 59.064 116.143 59.768C116.879 60.472 117.258 61.4213 117.279 62.616C117.279 62.8293 117.263 63.048 117.231 63.272H111.055V63.384C111.076 64.088 111.295 64.648 111.711 65.064C112.127 65.48 112.671 65.688 113.343 65.688C113.876 65.688 114.324 65.5653 114.687 65.32C115.05 65.064 115.29 64.7067 115.407 64.248H117.135C116.986 65.08 116.58 65.7627 115.919 66.296C115.258 66.8293 114.431 67.096 113.439 67.096ZM111.119 62.008H115.487C115.412 61.4107 115.178 60.9467 114.783 60.616C114.399 60.2747 113.903 60.104 113.295 60.104C112.73 60.104 112.239 60.28 111.823 60.632C111.418 60.9733 111.183 61.432 111.119 62.008ZM129.666 65.944C128.898 66.712 127.89 67.096 126.642 67.096C125.394 67.096 124.386 66.712 123.618 65.944C122.85 65.176 122.466 64.1627 122.466 62.904C122.466 61.656 122.85 60.648 123.618 59.88C124.386 59.1013 125.394 58.712 126.642 58.712C127.89 58.712 128.898 59.1013 129.666 59.88C130.434 60.648 130.818 61.656 130.818 62.904C130.818 64.1627 130.434 65.176 129.666 65.944ZM124.898 64.872C125.335 65.3733 125.917 65.624 126.642 65.624C127.367 65.624 127.949 65.3733 128.386 64.872C128.834 64.36 129.058 63.704 129.058 62.904C129.058 62.104 128.834 61.4533 128.386 60.952C127.949 60.44 127.367 60.184 126.642 60.184C125.917 60.184 125.335 60.44 124.898 60.952C124.461 61.4533 124.242 62.104 124.242 62.904C124.242 63.704 124.461 64.36 124.898 64.872ZM136.351 58.808H136.735V60.424H135.967C135.253 60.424 134.735 60.6587 134.415 61.128C134.095 61.5867 133.935 62.1733 133.935 62.888V67H132.207V58.808H133.743L133.935 60.04C134.437 59.2187 135.242 58.808 136.351 58.808Z" fill="#181D27"/>
<path d="M142.071 67V55.8H146.183C147.41 55.8 148.359 56.0613 149.031 56.584C149.714 57.1067 150.055 57.832 150.055 58.76C150.055 60.04 149.415 60.856 148.135 61.208C148.85 61.3147 149.42 61.5867 149.847 62.024C150.274 62.4507 150.487 63.0427 150.487 63.8C150.487 64.8027 150.124 65.5867 149.399 66.152C148.684 66.7173 147.66 67 146.327 67H142.071ZM146.231 57.336H143.911V60.552H146.231C146.86 60.552 147.346 60.408 147.687 60.12C148.039 59.832 148.215 59.4373 148.215 58.936C148.215 58.4347 148.039 58.0453 147.687 57.768C147.346 57.48 146.86 57.336 146.231 57.336ZM146.343 62.072H143.911V65.448H146.343C147.068 65.448 147.623 65.304 148.007 65.016C148.402 64.7173 148.599 64.3067 148.599 63.784C148.599 63.24 148.402 62.8187 148.007 62.52C147.612 62.2213 147.058 62.072 146.343 62.072ZM156.07 58.808H156.454V60.424H155.686C154.971 60.424 154.454 60.6587 154.134 61.128C153.814 61.5867 153.654 62.1733 153.654 62.888V67H151.926V58.808H153.462L153.654 60.04C154.155 59.2187 154.961 58.808 156.07 58.808ZM164.025 65.944C163.257 66.712 162.249 67.096 161.001 67.096C159.753 67.096 158.745 66.712 157.977 65.944C157.209 65.176 156.825 64.1627 156.825 62.904C156.825 61.656 157.209 60.648 157.977 59.88C158.745 59.1013 159.753 58.712 161.001 58.712C162.249 58.712 163.257 59.1013 164.025 59.88C164.793 60.648 165.177 61.656 165.177 62.904C165.177 64.1627 164.793 65.176 164.025 65.944ZM159.257 64.872C159.695 65.3733 160.276 65.624 161.001 65.624C161.727 65.624 162.308 65.3733 162.745 64.872C163.193 64.36 163.417 63.704 163.417 62.904C163.417 62.104 163.193 61.4533 162.745 60.952C162.308 60.44 161.727 60.184 161.001 60.184C160.276 60.184 159.695 60.44 159.257 60.952C158.82 61.4533 158.601 62.104 158.601 62.904C158.601 63.704 158.82 64.36 159.257 64.872ZM168.174 67L165.502 58.808H167.326L169.198 65.08L171.07 58.808H172.654L174.446 65.08L176.382 58.808H178.142L175.422 67H173.566L171.838 61.432L170.046 67H168.174ZM178.527 64.296H180.223C180.255 64.7333 180.453 65.0853 180.815 65.352C181.178 65.6187 181.663 65.752 182.271 65.752C182.805 65.752 183.231 65.656 183.551 65.464C183.882 65.272 184.047 65.0107 184.047 64.68C184.047 64.4773 184.01 64.312 183.935 64.184C183.861 64.0453 183.722 63.9387 183.519 63.864C183.327 63.7893 183.146 63.736 182.975 63.704C182.805 63.672 182.533 63.6347 182.159 63.592C182.106 63.5813 182.063 63.576 182.031 63.576C181.498 63.512 181.055 63.4373 180.703 63.352C180.351 63.2667 180.01 63.144 179.679 62.984C179.349 62.8133 179.098 62.584 178.927 62.296C178.767 62.008 178.687 61.6613 178.687 61.256C178.687 60.488 178.997 59.8693 179.615 59.4C180.245 58.9307 181.055 58.7013 182.047 58.712C183.071 58.712 183.903 58.9413 184.543 59.4C185.194 59.8587 185.546 60.4987 185.599 61.32H183.903C183.85 60.936 183.658 60.6267 183.327 60.392C182.997 60.1573 182.581 60.04 182.079 60.04C181.567 60.04 181.157 60.136 180.847 60.328C180.538 60.52 180.383 60.7813 180.383 61.112C180.383 61.24 180.399 61.352 180.431 61.448C180.474 61.5333 180.543 61.6133 180.639 61.688C180.735 61.752 180.826 61.8053 180.911 61.848C181.007 61.8907 181.146 61.928 181.327 61.96C181.509 61.992 181.663 62.0187 181.791 62.04C181.919 62.0507 182.106 62.072 182.351 62.104C182.778 62.1573 183.135 62.216 183.423 62.28C183.722 62.3333 184.026 62.4187 184.335 62.536C184.655 62.6533 184.906 62.7973 185.087 62.968C185.279 63.128 185.434 63.3413 185.551 63.608C185.679 63.8747 185.743 64.184 185.743 64.536C185.743 65.304 185.418 65.9227 184.767 66.392C184.117 66.8613 183.285 67.096 182.271 67.096C181.162 67.096 180.266 66.8507 179.583 66.36C178.901 65.8587 178.549 65.1707 178.527 64.296ZM190.97 67.096C189.69 67.096 188.672 66.7173 187.914 65.96C187.157 65.192 186.778 64.1787 186.778 62.92C186.778 61.6613 187.146 60.648 187.882 59.88C188.629 59.1013 189.605 58.712 190.81 58.712C191.994 58.712 192.949 59.064 193.674 59.768C194.41 60.472 194.789 61.4213 194.81 62.616C194.81 62.8293 194.794 63.048 194.762 63.272H188.586V63.384C188.608 64.088 188.826 64.648 189.242 65.064C189.658 65.48 190.202 65.688 190.874 65.688C191.408 65.688 191.856 65.5653 192.218 65.32C192.581 65.064 192.821 64.7067 192.938 64.248H194.666C194.517 65.08 194.112 65.7627 193.45 66.296C192.789 66.8293 191.962 67.096 190.97 67.096ZM188.65 62.008H193.018C192.944 61.4107 192.709 60.9467 192.314 60.616C191.93 60.2747 191.434 60.104 190.826 60.104C190.261 60.104 189.77 60.28 189.354 60.632C188.949 60.9733 188.714 61.432 188.65 62.008Z" fill="#528052"/>
<path d="M64.864 84V75.6H69.856V76.2H65.512V79.524H69.136V80.124H65.512V84H64.864ZM73.0682 84.072C72.2122 84.072 71.5122 83.784 70.9682 83.208C70.4242 82.624 70.1522 81.872 70.1522 80.952C70.1522 80.032 70.4242 79.284 70.9682 78.708C71.5122 78.132 72.2122 77.844 73.0682 77.844C73.9242 77.844 74.6242 78.132 75.1682 78.708C75.7202 79.284 75.9962 80.032 75.9962 80.952C75.9962 81.872 75.7242 82.624 75.1802 83.208C74.6362 83.784 73.9322 84.072 73.0682 84.072ZM71.4122 82.812C71.8362 83.284 72.3882 83.52 73.0682 83.52C73.7482 83.52 74.3002 83.284 74.7242 82.812C75.1482 82.332 75.3602 81.712 75.3602 80.952C75.3602 80.2 75.1442 79.584 74.7122 79.104C74.2882 78.624 73.7402 78.384 73.0682 78.384C72.3962 78.384 71.8442 78.624 71.4122 79.104C70.9882 79.584 70.7762 80.2 70.7762 80.952C70.7762 81.712 70.9882 82.332 71.4122 82.812ZM79.6962 77.916H80.0202V78.504H79.5762C78.4082 78.504 77.8242 79.308 77.8242 80.916V84H77.2122V77.916H77.7402L77.8362 79.128C78.1402 78.32 78.7602 77.916 79.6962 77.916ZM87.719 77.844C88.391 77.844 88.931 78.064 89.339 78.504C89.755 78.936 89.963 79.592 89.963 80.472V84H89.339V80.496C89.339 79.816 89.191 79.3 88.895 78.948C88.599 78.588 88.183 78.408 87.647 78.408C87.079 78.408 86.623 78.616 86.279 79.032C85.943 79.44 85.767 79.992 85.751 80.688V84H85.139V80.556C85.139 79.86 84.987 79.328 84.683 78.96C84.379 78.592 83.959 78.408 83.423 78.408C82.847 78.408 82.387 78.636 82.043 79.092C81.707 79.548 81.539 80.152 81.539 80.904V84H80.927V77.916H81.455L81.551 79.212C81.927 78.3 82.587 77.844 83.531 77.844C84.019 77.844 84.439 77.976 84.791 78.24C85.143 78.496 85.391 78.872 85.535 79.368C85.719 78.896 85.995 78.524 86.363 78.252C86.731 77.98 87.183 77.844 87.719 77.844ZM96.6736 83.436H96.9016V84H96.5416C96.1816 84 95.9216 83.92 95.7616 83.76C95.6016 83.592 95.5296 83.328 95.5456 82.968V82.752C95.1136 83.632 94.3336 84.072 93.2056 84.072C92.5496 84.072 92.0256 83.916 91.6336 83.604C91.2496 83.292 91.0576 82.868 91.0576 82.332C91.0576 81.756 91.2616 81.312 91.6696 81C92.0856 80.68 92.6816 80.52 93.4576 80.52H95.5216V79.992C95.5216 79.488 95.3656 79.096 95.0536 78.816C94.7416 78.528 94.3016 78.384 93.7336 78.384C93.2296 78.384 92.8176 78.496 92.4976 78.72C92.1776 78.936 91.9776 79.236 91.8976 79.62H91.2856C91.3656 79.068 91.6216 78.636 92.0536 78.324C92.4936 78.004 93.0616 77.844 93.7576 77.844C94.5176 77.844 95.1016 78.032 95.5096 78.408C95.9256 78.784 96.1336 79.32 96.1336 80.016V82.848C96.1336 83.072 96.1736 83.228 96.2536 83.316C96.3416 83.396 96.4816 83.436 96.6736 83.436ZM95.5216 81.54V81.048H93.4096C92.8496 81.048 92.4216 81.156 92.1256 81.372C91.8296 81.588 91.6816 81.896 91.6816 82.296C91.6816 82.672 91.8216 82.976 92.1016 83.208C92.3896 83.432 92.7736 83.544 93.2536 83.544C93.9576 83.544 94.5096 83.36 94.9096 82.992C95.3176 82.616 95.5216 82.132 95.5216 81.54ZM98.176 82.584V78.48H97.024V77.916H98.176V76.212H98.788V77.916H100.432V78.48H98.788V82.572C98.788 82.884 98.852 83.108 98.98 83.244C99.108 83.372 99.332 83.436 99.652 83.436H100.492V84H99.604C99.092 84 98.724 83.888 98.5 83.664C98.284 83.44 98.176 83.08 98.176 82.584ZM101.351 78.9C101.351 78.764 101.391 78.656 101.471 78.576C101.559 78.488 101.671 78.444 101.807 78.444C101.943 78.444 102.051 78.488 102.131 78.576C102.219 78.656 102.263 78.764 102.263 78.9C102.263 79.028 102.219 79.136 102.131 79.224C102.051 79.304 101.943 79.344 101.807 79.344C101.671 79.344 101.559 79.304 101.471 79.224C101.391 79.136 101.351 79.028 101.351 78.9ZM101.471 83.94C101.391 83.852 101.351 83.74 101.351 83.604C101.351 83.468 101.391 83.36 101.471 83.28C101.559 83.2 101.671 83.16 101.807 83.16C101.943 83.16 102.051 83.2 102.131 83.28C102.219 83.36 102.263 83.468 102.263 83.604C102.263 83.74 102.219 83.852 102.131 83.94C102.051 84.02 101.943 84.06 101.807 84.06C101.671 84.06 101.559 84.02 101.471 83.94ZM107.533 76.512C107.453 76.592 107.353 76.632 107.233 76.632C107.113 76.632 107.009 76.592 106.921 76.512C106.841 76.432 106.801 76.328 106.801 76.2C106.801 76.072 106.841 75.968 106.921 75.888C107.009 75.808 107.113 75.768 107.233 75.768C107.353 75.768 107.453 75.808 107.533 75.888C107.621 75.968 107.665 76.072 107.665 76.2C107.665 76.328 107.621 76.432 107.533 76.512ZM105.373 86.4V85.836H106.093C106.397 85.836 106.613 85.772 106.741 85.644C106.869 85.516 106.933 85.3 106.933 84.996V77.916H107.545V84.984C107.545 85.472 107.433 85.828 107.209 86.052C106.985 86.284 106.621 86.4 106.117 86.4H105.373ZM111.922 77.844C112.77 77.844 113.458 78.128 113.986 78.696C114.522 79.256 114.79 80.008 114.79 80.952C114.79 81.872 114.522 82.624 113.986 83.208C113.45 83.784 112.762 84.072 111.922 84.072C111.354 84.072 110.866 83.94 110.458 83.676C110.058 83.412 109.77 83.052 109.594 82.596V86.4H108.982V77.916H109.51L109.606 79.308C109.806 78.86 110.102 78.504 110.494 78.24C110.894 77.976 111.37 77.844 111.922 77.844ZM110.218 82.8C110.642 83.28 111.194 83.52 111.874 83.52C112.554 83.52 113.106 83.284 113.53 82.812C113.954 82.332 114.166 81.712 114.166 80.952C114.166 80.2 113.95 79.584 113.518 79.104C113.094 78.624 112.546 78.384 111.874 78.384C111.202 78.384 110.65 78.624 110.218 79.104C109.794 79.584 109.582 80.196 109.582 80.94C109.582 81.7 109.794 82.32 110.218 82.8ZM120.957 79.332L121.053 77.916H121.581V83.628C121.581 84.588 121.345 85.3 120.873 85.764C120.401 86.236 119.673 86.472 118.689 86.472C117.937 86.472 117.321 86.3 116.841 85.956C116.361 85.612 116.073 85.12 115.977 84.48H116.613C116.709 84.936 116.941 85.288 117.309 85.536C117.685 85.792 118.161 85.92 118.737 85.92C119.481 85.92 120.037 85.732 120.405 85.356C120.781 84.988 120.969 84.404 120.969 83.604V82.524C120.769 83.012 120.469 83.392 120.069 83.664C119.677 83.936 119.201 84.072 118.641 84.072C117.793 84.072 117.101 83.788 116.565 83.22C116.037 82.652 115.773 81.896 115.773 80.952C115.773 80.032 116.041 79.284 116.577 78.708C117.113 78.132 117.801 77.844 118.641 77.844C119.193 77.844 119.669 77.976 120.069 78.24C120.469 78.504 120.765 78.868 120.957 79.332ZM117.033 82.812C117.457 83.284 118.009 83.52 118.689 83.52C119.369 83.52 119.921 83.284 120.345 82.812C120.769 82.332 120.981 81.716 120.981 80.964C120.981 80.204 120.769 79.584 120.345 79.104C119.921 78.624 119.369 78.384 118.689 78.384C118.009 78.384 117.457 78.624 117.033 79.104C116.609 79.576 116.397 80.192 116.397 80.952C116.397 81.712 116.609 82.332 117.033 82.812ZM123.273 83.16C123.489 83.16 123.665 83.256 123.801 83.448C123.945 83.64 124.017 83.876 124.017 84.156C124.017 84.556 123.893 84.88 123.645 85.128C123.405 85.384 123.081 85.52 122.673 85.536V85.176C122.961 85.168 123.181 85.068 123.333 84.876C123.493 84.692 123.573 84.476 123.573 84.228C123.573 84.092 123.537 83.988 123.465 83.916C123.409 84.012 123.309 84.06 123.165 84.06C123.045 84.06 122.945 84.024 122.865 83.952C122.785 83.872 122.745 83.764 122.745 83.628C122.745 83.492 122.793 83.38 122.889 83.292C122.985 83.204 123.113 83.16 123.273 83.16ZM131.398 77.844C132.246 77.844 132.934 78.128 133.462 78.696C133.998 79.256 134.266 80.008 134.266 80.952C134.266 81.872 133.998 82.624 133.462 83.208C132.926 83.784 132.238 84.072 131.398 84.072C130.83 84.072 130.342 83.94 129.934 83.676C129.534 83.412 129.246 83.052 129.07 82.596V86.4H128.458V77.916H128.986L129.082 79.308C129.282 78.86 129.578 78.504 129.97 78.24C130.37 77.976 130.846 77.844 131.398 77.844ZM129.694 82.8C130.118 83.28 130.67 83.52 131.35 83.52C132.03 83.52 132.582 83.284 133.006 82.812C133.43 82.332 133.642 81.712 133.642 80.952C133.642 80.2 133.426 79.584 132.994 79.104C132.57 78.624 132.022 78.384 131.35 78.384C130.678 78.384 130.126 78.624 129.694 79.104C129.27 79.584 129.058 80.196 129.058 80.94C129.058 81.7 129.27 82.32 129.694 82.8ZM138.286 77.844C139.014 77.844 139.594 78.072 140.026 78.528C140.466 78.984 140.686 79.672 140.686 80.592V84H140.074V80.616C140.074 79.904 139.906 79.36 139.57 78.984C139.242 78.6 138.782 78.408 138.19 78.408C137.542 78.408 137.03 78.644 136.654 79.116C136.278 79.58 136.09 80.208 136.09 81V84H135.478V77.916H136.006L136.102 79.212C136.286 78.796 136.562 78.464 136.93 78.216C137.298 77.968 137.75 77.844 138.286 77.844ZM146.996 79.332L147.092 77.916H147.62V83.628C147.62 84.588 147.384 85.3 146.912 85.764C146.44 86.236 145.712 86.472 144.728 86.472C143.976 86.472 143.36 86.3 142.88 85.956C142.4 85.612 142.112 85.12 142.016 84.48H142.652C142.748 84.936 142.98 85.288 143.348 85.536C143.724 85.792 144.2 85.92 144.776 85.92C145.52 85.92 146.076 85.732 146.444 85.356C146.82 84.988 147.008 84.404 147.008 83.604V82.524C146.808 83.012 146.508 83.392 146.108 83.664C145.716 83.936 145.24 84.072 144.68 84.072C143.832 84.072 143.14 83.788 142.604 83.22C142.076 82.652 141.812 81.896 141.812 80.952C141.812 80.032 142.08 79.284 142.616 78.708C143.152 78.132 143.84 77.844 144.68 77.844C145.232 77.844 145.708 77.976 146.108 78.24C146.508 78.504 146.804 78.868 146.996 79.332ZM143.072 82.812C143.496 83.284 144.048 83.52 144.728 83.52C145.408 83.52 145.96 83.284 146.384 82.812C146.808 82.332 147.02 81.716 147.02 80.964C147.02 80.204 146.808 79.584 146.384 79.104C145.96 78.624 145.408 78.384 144.728 78.384C144.048 78.384 143.496 78.624 143.072 79.104C142.648 79.576 142.436 80.192 142.436 80.952C142.436 81.712 142.648 82.332 143.072 82.812ZM158.858 83.448H159.614V84H158.774C158.262 84 157.882 83.848 157.634 83.544L157.046 82.848C156.35 83.664 155.538 84.072 154.61 84.072C153.898 84.072 153.31 83.884 152.846 83.508C152.382 83.124 152.15 82.6 152.15 81.936C152.15 80.896 152.834 80.084 154.202 79.5C153.866 79.084 153.63 78.732 153.494 78.444C153.358 78.156 153.29 77.828 153.29 77.46C153.29 76.908 153.494 76.448 153.902 76.08C154.318 75.712 154.838 75.528 155.462 75.528C155.99 75.528 156.426 75.696 156.77 76.032C157.122 76.36 157.298 76.772 157.298 77.268C157.298 77.756 157.126 78.192 156.782 78.576C156.446 78.96 155.89 79.316 155.114 79.644L155.186 79.728L157.058 81.924L158.69 79.464H159.338L157.43 82.368L158.03 83.064C158.238 83.32 158.514 83.448 158.858 83.448ZM155.414 76.056C154.974 76.056 154.614 76.188 154.334 76.452C154.062 76.716 153.926 77.048 153.926 77.448C153.926 77.768 153.99 78.056 154.118 78.312C154.246 78.56 154.47 78.876 154.79 79.26C155.454 78.972 155.934 78.672 156.23 78.36C156.526 78.048 156.674 77.688 156.674 77.28C156.674 76.928 156.554 76.636 156.314 76.404C156.082 76.172 155.782 76.056 155.414 76.056ZM154.622 83.52C155.422 83.52 156.11 83.156 156.686 82.428L154.694 80.076L154.514 79.872C153.882 80.176 153.434 80.48 153.17 80.784C152.906 81.088 152.774 81.456 152.774 81.888C152.774 82.392 152.946 82.792 153.29 83.088C153.634 83.376 154.078 83.52 154.622 83.52ZM166.891 77.844C167.619 77.844 168.199 78.072 168.631 78.528C169.071 78.984 169.291 79.672 169.291 80.592V84H168.679V80.616C168.679 79.904 168.511 79.36 168.175 78.984C167.847 78.6 167.387 78.408 166.795 78.408C166.147 78.408 165.635 78.644 165.259 79.116C164.883 79.58 164.695 80.208 164.695 81V84H164.083V75.6H164.695V79.356C165.095 78.348 165.827 77.844 166.891 77.844ZM173.252 84.072C172.38 84.072 171.676 83.784 171.14 83.208C170.604 82.632 170.336 81.868 170.336 80.916C170.336 80.012 170.596 79.276 171.116 78.708C171.636 78.132 172.312 77.844 173.144 77.844C173.968 77.844 174.632 78.1 175.136 78.612C175.648 79.116 175.92 79.816 175.952 80.712C175.952 80.736 175.948 80.776 175.94 80.832C175.94 80.888 175.94 80.932 175.94 80.964H170.972V81.072C170.988 81.792 171.196 82.38 171.596 82.836C172.004 83.292 172.54 83.52 173.204 83.52C173.708 83.52 174.144 83.384 174.512 83.112C174.88 82.832 175.124 82.456 175.244 81.984H175.868C175.732 82.6 175.424 83.104 174.944 83.496C174.472 83.88 173.908 84.072 173.252 84.072ZM171.02 80.448H175.292C175.244 79.792 175.028 79.284 174.644 78.924C174.26 78.564 173.764 78.384 173.156 78.384C172.588 78.384 172.1 78.576 171.692 78.96C171.292 79.344 171.068 79.84 171.02 80.448ZM177.773 76.512C177.693 76.592 177.593 76.632 177.473 76.632C177.353 76.632 177.249 76.592 177.161 76.512C177.081 76.432 177.041 76.328 177.041 76.2C177.041 76.072 177.081 75.968 177.161 75.888C177.249 75.808 177.353 75.768 177.473 75.768C177.593 75.768 177.693 75.808 177.773 75.888C177.861 75.968 177.905 76.072 177.905 76.2C177.905 76.328 177.861 76.432 177.773 76.512ZM177.161 84V77.916H177.773V84H177.161ZM181.864 84.072C181 84.072 180.304 83.788 179.776 83.22C179.248 82.652 178.984 81.9 178.984 80.964C178.984 80.036 179.252 79.284 179.788 78.708C180.324 78.132 181.02 77.844 181.876 77.844C182.564 77.844 183.132 78.024 183.58 78.384C184.036 78.744 184.328 79.24 184.456 79.872H183.82C183.708 79.408 183.48 79.044 183.136 78.78C182.792 78.516 182.368 78.384 181.864 78.384C181.192 78.384 180.648 78.624 180.232 79.104C179.816 79.584 179.608 80.204 179.608 80.964C179.608 81.716 179.816 82.332 180.232 82.812C180.656 83.284 181.2 83.52 181.864 83.52C182.368 83.52 182.792 83.388 183.136 83.124C183.48 82.86 183.704 82.5 183.808 82.044H184.456C184.336 82.668 184.044 83.164 183.58 83.532C183.124 83.892 182.552 84.072 181.864 84.072Z" fill="#6C606C"/>
</svg>
