<svg width="215" height="40" viewBox="0 0 215 40" fill="none" xmlns="http://www.w3.org/2000/svg">
<path d="M46.54 20H44.16L49.4 6H52.14L57.36 20H54.9L53.58 16.54H47.84L46.54 20ZM50.7 8.48L48.48 14.58H52.94L50.7 8.48ZM58.7956 20V6H61.0956V20H58.7956ZM68.7761 20V6H77.9161V8.04H71.0761V11.92H76.7161V13.9H71.0761V17.96H78.1561V20H68.7761ZM78.7656 20L82.6056 14.76L78.9856 9.76H81.5056L83.9456 13.22L86.4456 9.76H88.8256L85.1856 14.76L89.0456 20H86.5256L83.8456 16.28L81.1456 20H78.7656ZM94.3303 20.12C92.7836 20.12 91.5503 19.6533 90.6303 18.72C89.7103 17.7733 89.2503 16.5 89.2503 14.9C89.2503 13.3133 89.717 12.04 90.6503 11.08C91.597 10.12 92.8436 9.64 94.3903 9.64C95.6836 9.64 96.737 9.97333 97.5503 10.64C98.3636 11.3067 98.877 12.2333 99.0903 13.42H96.8303C96.6836 12.8067 96.397 12.3333 95.9703 12C95.5436 11.6533 95.0036 11.48 94.3503 11.48C93.4836 11.48 92.7836 11.8 92.2503 12.44C91.7303 13.0667 91.4703 13.8867 91.4703 14.9C91.4703 15.9 91.7303 16.7133 92.2503 17.34C92.7836 17.9667 93.4836 18.28 94.3503 18.28C95.0036 18.28 95.5436 18.1067 95.9703 17.76C96.397 17.4133 96.677 16.94 96.8103 16.34H99.0903C98.8903 17.5133 98.3703 18.44 97.5303 19.12C96.6903 19.7867 95.6236 20.12 94.3303 20.12ZM105.924 9.76H106.404V11.78H105.444C104.55 11.78 103.904 12.0733 103.504 12.66C103.104 13.2333 102.904 13.9667 102.904 14.86V20H100.744V9.76H102.664L102.904 11.3C103.53 10.2733 104.537 9.76 105.924 9.76ZM112.108 20.12C110.508 20.12 109.234 19.6467 108.288 18.7C107.341 17.74 106.868 16.4733 106.868 14.9C106.868 13.3267 107.328 12.06 108.248 11.1C109.181 10.1267 110.401 9.64 111.908 9.64C113.388 9.64 114.581 10.08 115.488 10.96C116.408 11.84 116.881 13.0267 116.908 14.52C116.908 14.7867 116.888 15.06 116.848 15.34H109.127V15.48C109.154 16.36 109.428 17.06 109.948 17.58C110.468 18.1 111.148 18.36 111.988 18.36C112.654 18.36 113.214 18.2067 113.668 17.9C114.121 17.58 114.421 17.1333 114.568 16.56H116.728C116.541 17.6 116.034 18.4533 115.208 19.12C114.381 19.7867 113.348 20.12 112.108 20.12ZM109.208 13.76H114.668C114.574 13.0133 114.281 12.4333 113.788 12.02C113.308 11.5933 112.688 11.38 111.928 11.38C111.221 11.38 110.608 11.6 110.088 12.04C109.581 12.4667 109.288 13.04 109.208 13.76ZM119.316 17.22V11.66H117.536V9.76H119.316V6.9H121.496V9.76H123.996V11.66H121.496V17C121.496 17.4 121.576 17.6867 121.736 17.86C121.896 18.02 122.182 18.1 122.596 18.1H124.116V20H122.116C121.142 20 120.429 19.7733 119.976 19.32C119.536 18.8667 119.316 18.1667 119.316 17.22ZM134.733 18.12H135.173V20H134.033C132.779 20 132.153 19.4533 132.153 18.36C131.379 19.5333 130.253 20.12 128.773 20.12C127.626 20.12 126.706 19.8533 126.013 19.32C125.319 18.7867 124.972 18.0533 124.972 17.12C124.972 16.0667 125.346 15.26 126.093 14.7C126.839 14.1267 127.926 13.84 129.353 13.84H131.933V13.22C131.933 12.6467 131.733 12.2 131.333 11.88C130.946 11.5467 130.399 11.38 129.693 11.38C129.066 11.38 128.546 11.52 128.133 11.8C127.719 12.0667 127.473 12.4267 127.393 12.88H125.273C125.379 11.88 125.833 11.0933 126.633 10.52C127.446 9.93333 128.499 9.64 129.793 9.64C131.166 9.64 132.219 9.96 132.953 10.6C133.699 11.24 134.073 12.16 134.073 13.36V17.46C134.073 17.7133 134.126 17.8867 134.233 17.98C134.339 18.0733 134.506 18.12 134.733 18.12ZM131.933 15.8V15.44H129.253C127.866 15.44 127.173 15.9533 127.173 16.98C127.173 17.42 127.339 17.7733 127.673 18.04C128.019 18.3067 128.486 18.44 129.073 18.44C129.966 18.44 130.659 18.2 131.153 17.72C131.659 17.24 131.919 16.6 131.933 15.8ZM142.946 20H140.566L145.806 6H148.546L153.766 20H151.306L149.986 16.54H144.246L142.946 20ZM147.106 8.48L144.886 14.58H149.346L147.106 8.48ZM160.382 9.64C161.609 9.64 162.602 10.0133 163.362 10.76C164.122 11.5067 164.502 12.6867 164.502 14.3V20H162.322V14.48C162.322 12.4933 161.509 11.5 159.882 11.5C159.029 11.5 158.355 11.8 157.862 12.4C157.382 12.9867 157.142 13.8 157.142 14.84V20H154.982V9.76H156.862L157.102 11.1C157.875 10.1267 158.969 9.64 160.382 9.64ZM175.826 18.12H176.266V20H175.126C173.873 20 173.246 19.4533 173.246 18.36C172.473 19.5333 171.346 20.12 169.866 20.12C168.72 20.12 167.8 19.8533 167.106 19.32C166.413 18.7867 166.066 18.0533 166.066 17.12C166.066 16.0667 166.44 15.26 167.186 14.7C167.933 14.1267 169.02 13.84 170.446 13.84H173.026V13.22C173.026 12.6467 172.826 12.2 172.426 11.88C172.04 11.5467 171.493 11.38 170.786 11.38C170.16 11.38 169.64 11.52 169.226 11.8C168.813 12.0667 168.566 12.4267 168.486 12.88H166.366C166.473 11.88 166.926 11.0933 167.726 10.52C168.54 9.93333 169.593 9.64 170.886 9.64C172.26 9.64 173.313 9.96 174.046 10.6C174.793 11.24 175.166 12.16 175.166 13.36V17.46C175.166 17.7133 175.22 17.8867 175.326 17.98C175.433 18.0733 175.6 18.12 175.826 18.12ZM173.026 15.8V15.44H170.346C168.96 15.44 168.266 15.9533 168.266 16.98C168.266 17.42 168.433 17.7733 168.766 18.04C169.113 18.3067 169.58 18.44 170.166 18.44C171.06 18.44 171.753 18.2 172.246 17.72C172.753 17.24 173.013 16.6 173.026 15.8ZM177.443 20V6H179.603V20H177.443ZM184.68 20.06L180.7 9.76H183L185.86 17.54L188.64 9.76H190.94L186.3 21.6C185.953 22.5067 185.613 23.1333 185.28 23.48C184.947 23.8267 184.427 24 183.72 24H181.4V22.1H182.92C183.333 22.1 183.62 22.0333 183.78 21.9C183.953 21.7667 184.12 21.4867 184.28 21.06L184.68 20.06ZM191.378 16.62H193.498C193.538 17.1667 193.784 17.6067 194.238 17.94C194.691 18.2733 195.298 18.44 196.058 18.44C196.724 18.44 197.258 18.32 197.658 18.08C198.071 17.84 198.278 17.5133 198.278 17.1C198.278 16.8467 198.231 16.64 198.138 16.48C198.044 16.3067 197.871 16.1733 197.618 16.08C197.378 15.9867 197.151 15.92 196.938 15.88C196.724 15.84 196.384 15.7933 195.918 15.74C195.851 15.7267 195.798 15.72 195.758 15.72C195.091 15.64 194.538 15.5467 194.098 15.44C193.658 15.3333 193.231 15.18 192.818 14.98C192.404 14.7667 192.091 14.48 191.878 14.12C191.678 13.76 191.578 13.3267 191.578 12.82C191.578 11.86 191.964 11.0867 192.738 10.5C193.524 9.91333 194.538 9.62667 195.778 9.64C197.058 9.64 198.098 9.92667 198.898 10.5C199.711 11.0733 200.151 11.8733 200.218 12.9H198.098C198.031 12.42 197.791 12.0333 197.378 11.74C196.964 11.4467 196.444 11.3 195.818 11.3C195.178 11.3 194.664 11.42 194.278 11.66C193.891 11.9 193.698 12.2267 193.698 12.64C193.698 12.8 193.718 12.94 193.758 13.06C193.811 13.1667 193.898 13.2667 194.018 13.36C194.138 13.44 194.251 13.5067 194.358 13.56C194.478 13.6133 194.651 13.66 194.878 13.7C195.104 13.74 195.298 13.7733 195.458 13.8C195.618 13.8133 195.851 13.84 196.158 13.88C196.691 13.9467 197.138 14.02 197.498 14.1C197.871 14.1667 198.251 14.2733 198.638 14.42C199.038 14.5667 199.351 14.7467 199.578 14.96C199.818 15.16 200.011 15.4267 200.158 15.76C200.318 16.0933 200.398 16.48 200.398 16.92C200.398 17.88 199.991 18.6533 199.178 19.24C198.364 19.8267 197.324 20.12 196.058 20.12C194.671 20.12 193.551 19.8133 192.698 19.2C191.844 18.5733 191.404 17.7133 191.378 16.62ZM204.112 7.96C203.858 8.2 203.545 8.32 203.172 8.32C202.798 8.32 202.485 8.2 202.232 7.96C201.978 7.70667 201.852 7.39333 201.852 7.02C201.852 6.64667 201.978 6.34 202.232 6.1C202.485 5.84667 202.798 5.72 203.172 5.72C203.545 5.72 203.858 5.84667 204.112 6.1C204.365 6.34 204.492 6.64667 204.492 7.02C204.492 7.39333 204.365 7.70667 204.112 7.96ZM202.072 20V9.76H204.232V20H202.072ZM205.909 16.62H208.029C208.069 17.1667 208.316 17.6067 208.769 17.94C209.222 18.2733 209.829 18.44 210.589 18.44C211.256 18.44 211.789 18.32 212.189 18.08C212.602 17.84 212.809 17.5133 212.809 17.1C212.809 16.8467 212.762 16.64 212.669 16.48C212.576 16.3067 212.402 16.1733 212.149 16.08C211.909 15.9867 211.682 15.92 211.469 15.88C211.256 15.84 210.916 15.7933 210.449 15.74C210.382 15.7267 210.329 15.72 210.289 15.72C209.622 15.64 209.069 15.5467 208.629 15.44C208.189 15.3333 207.762 15.18 207.349 14.98C206.936 14.7667 206.622 14.48 206.409 14.12C206.209 13.76 206.109 13.3267 206.109 12.82C206.109 11.86 206.496 11.0867 207.269 10.5C208.056 9.91333 209.069 9.62667 210.309 9.64C211.589 9.64 212.629 9.92667 213.429 10.5C214.242 11.0733 214.682 11.8733 214.749 12.9H212.629C212.562 12.42 212.322 12.0333 211.909 11.74C211.496 11.4467 210.976 11.3 210.349 11.3C209.709 11.3 209.196 11.42 208.809 11.66C208.422 11.9 208.229 12.2267 208.229 12.64C208.229 12.8 208.249 12.94 208.289 13.06C208.342 13.1667 208.429 13.2667 208.549 13.36C208.669 13.44 208.782 13.5067 208.889 13.56C209.009 13.6133 209.182 13.66 209.409 13.7C209.636 13.74 209.829 13.7733 209.989 13.8C210.149 13.8133 210.382 13.84 210.689 13.88C211.222 13.9467 211.669 14.02 212.029 14.1C212.402 14.1667 212.782 14.2733 213.169 14.42C213.569 14.5667 213.882 14.7467 214.109 14.96C214.349 15.16 214.542 15.4267 214.689 15.76C214.849 16.0933 214.929 16.48 214.929 16.92C214.929 17.88 214.522 18.6533 213.709 19.24C212.896 19.8267 211.856 20.12 210.589 20.12C209.202 20.12 208.082 19.8133 207.229 19.2C206.376 18.5733 205.936 17.7133 205.909 16.62Z" fill="#252C1E"/>
<path d="M44.876 37H44.204L47.456 28.6H48.212L51.452 37H50.756L49.748 34.432H45.884L44.876 37ZM47.816 29.32L46.076 33.832H49.556L47.816 29.32ZM55.1803 30.844C55.9083 30.844 56.4883 31.072 56.9203 31.528C57.3603 31.984 57.5803 32.672 57.5803 33.592V37H56.9683V33.616C56.9683 32.904 56.8003 32.36 56.4643 31.984C56.1363 31.6 55.6763 31.408 55.0843 31.408C54.4363 31.408 53.9243 31.644 53.5483 32.116C53.1723 32.58 52.9843 33.208 52.9843 34V37H52.3723V30.916H52.9003L52.9963 32.212C53.1803 31.796 53.4563 31.464 53.8243 31.216C54.1923 30.968 54.6443 30.844 55.1803 30.844ZM64.2868 36.436H64.5148V37H64.1548C63.7948 37 63.5348 36.92 63.3748 36.76C63.2148 36.592 63.1428 36.328 63.1588 35.968V35.752C62.7268 36.632 61.9468 37.072 60.8188 37.072C60.1628 37.072 59.6388 36.916 59.2468 36.604C58.8628 36.292 58.6708 35.868 58.6708 35.332C58.6708 34.756 58.8748 34.312 59.2828 34C59.6988 33.68 60.2948 33.52 61.0708 33.52H63.1348V32.992C63.1348 32.488 62.9788 32.096 62.6668 31.816C62.3548 31.528 61.9148 31.384 61.3468 31.384C60.8428 31.384 60.4308 31.496 60.1108 31.72C59.7908 31.936 59.5908 32.236 59.5108 32.62H58.8988C58.9788 32.068 59.2348 31.636 59.6668 31.324C60.1068 31.004 60.6748 30.844 61.3708 30.844C62.1308 30.844 62.7148 31.032 63.1228 31.408C63.5388 31.784 63.7468 32.32 63.7468 33.016V35.848C63.7468 36.072 63.7868 36.228 63.8668 36.316C63.9548 36.396 64.0948 36.436 64.2868 36.436ZM63.1348 34.54V34.048H61.0228C60.4628 34.048 60.0348 34.156 59.7388 34.372C59.4428 34.588 59.2948 34.896 59.2948 35.296C59.2948 35.672 59.4348 35.976 59.7148 36.208C60.0028 36.432 60.3868 36.544 60.8668 36.544C61.5708 36.544 62.1228 36.36 62.5228 35.992C62.9308 35.616 63.1348 35.132 63.1348 34.54ZM65.3333 37V28.6H65.9453V37H65.3333ZM69.2081 37L66.7721 30.916H67.4321L69.5441 36.208L71.6201 30.916H72.2801L69.3641 38.128C69.1561 38.64 68.9681 38.98 68.8001 39.148C68.6401 39.316 68.3641 39.4 67.9721 39.4H67.0361V38.836H67.8041C68.1001 38.836 68.3041 38.784 68.4161 38.68C68.5361 38.576 68.6681 38.344 68.8121 37.984L69.2081 37ZM72.7093 31.48V30.916H77.4373V31.384L73.3453 36.436H77.6053V37H72.5413V36.52L76.6213 31.48H72.7093ZM80.9119 37.072C80.0399 37.072 79.3359 36.784 78.7999 36.208C78.2639 35.632 77.9959 34.868 77.9959 33.916C77.9959 33.012 78.2559 32.276 78.7759 31.708C79.2959 31.132 79.9719 30.844 80.8039 30.844C81.6279 30.844 82.2919 31.1 82.7959 31.612C83.3079 32.116 83.5799 32.816 83.6119 33.712C83.6119 33.736 83.6079 33.776 83.5999 33.832C83.5999 33.888 83.5999 33.932 83.5999 33.964H78.6319V34.072C78.6479 34.792 78.8559 35.38 79.2559 35.836C79.6639 36.292 80.1999 36.52 80.8639 36.52C81.3679 36.52 81.8039 36.384 82.1719 36.112C82.5399 35.832 82.7839 35.456 82.9039 34.984H83.5279C83.3919 35.6 83.0839 36.104 82.6039 36.496C82.1319 36.88 81.5679 37.072 80.9119 37.072ZM78.6799 33.448H82.9519C82.9039 32.792 82.6879 32.284 82.3039 31.924C81.9199 31.564 81.4239 31.384 80.8159 31.384C80.2479 31.384 79.7599 31.576 79.3519 31.96C78.9519 32.344 78.7279 32.84 78.6799 33.448ZM90.7439 37.072C89.8719 37.072 89.1679 36.784 88.6319 36.208C88.0959 35.632 87.8279 34.868 87.8279 33.916C87.8279 33.012 88.0879 32.276 88.6079 31.708C89.1279 31.132 89.8039 30.844 90.6359 30.844C91.4599 30.844 92.1239 31.1 92.6279 31.612C93.1399 32.116 93.4119 32.816 93.4439 33.712C93.4439 33.736 93.4399 33.776 93.4319 33.832C93.4319 33.888 93.4319 33.932 93.4319 33.964H88.4639V34.072C88.4799 34.792 88.6879 35.38 89.0879 35.836C89.4959 36.292 90.0319 36.52 90.6959 36.52C91.1999 36.52 91.6359 36.384 92.0039 36.112C92.3719 35.832 92.6159 35.456 92.7359 34.984H93.3599C93.2239 35.6 92.9159 36.104 92.4359 36.496C91.9639 36.88 91.3999 37.072 90.7439 37.072ZM88.5119 33.448H92.7839C92.7359 32.792 92.5199 32.284 92.1359 31.924C91.7519 31.564 91.2559 31.384 90.6479 31.384C90.0799 31.384 89.5919 31.576 89.1839 31.96C88.7839 32.344 88.5599 32.84 88.5119 33.448ZM93.7947 37L96.1587 33.892L93.9147 30.916H94.6467L96.5427 33.436L98.4627 30.916H99.1587L96.9147 33.892L99.2787 37H98.5347L96.5187 34.324L94.5027 37H93.7947ZM102.509 37.072C101.645 37.072 100.949 36.788 100.421 36.22C99.8927 35.652 99.6287 34.9 99.6287 33.964C99.6287 33.036 99.8967 32.284 100.433 31.708C100.969 31.132 101.665 30.844 102.521 30.844C103.209 30.844 103.777 31.024 104.225 31.384C104.681 31.744 104.973 32.24 105.101 32.872H104.465C104.353 32.408 104.125 32.044 103.781 31.78C103.437 31.516 103.013 31.384 102.509 31.384C101.837 31.384 101.293 31.624 100.877 32.104C100.461 32.584 100.253 33.204 100.253 33.964C100.253 34.716 100.461 35.332 100.877 35.812C101.301 36.284 101.845 36.52 102.509 36.52C103.013 36.52 103.437 36.388 103.781 36.124C104.125 35.86 104.349 35.5 104.453 35.044H105.101C104.981 35.668 104.689 36.164 104.225 36.532C103.769 36.892 103.197 37.072 102.509 37.072ZM108.774 30.916H109.098V31.504H108.654C107.486 31.504 106.902 32.308 106.902 33.916V37H106.29V30.916H106.818L106.914 32.128C107.218 31.32 107.838 30.916 108.774 30.916ZM112.26 37.072C111.388 37.072 110.684 36.784 110.148 36.208C109.612 35.632 109.344 34.868 109.344 33.916C109.344 33.012 109.604 32.276 110.124 31.708C110.644 31.132 111.32 30.844 112.152 30.844C112.976 30.844 113.64 31.1 114.144 31.612C114.656 32.116 114.928 32.816 114.96 33.712C114.96 33.736 114.956 33.776 114.948 33.832C114.948 33.888 114.948 33.932 114.948 33.964H109.98V34.072C109.996 34.792 110.204 35.38 110.604 35.836C111.012 36.292 111.548 36.52 112.212 36.52C112.716 36.52 113.152 36.384 113.52 36.112C113.888 35.832 114.132 35.456 114.252 34.984H114.876C114.74 35.6 114.432 36.104 113.952 36.496C113.48 36.88 112.916 37.072 112.26 37.072ZM110.028 33.448H114.3C114.252 32.792 114.036 32.284 113.652 31.924C113.268 31.564 112.772 31.384 112.164 31.384C111.596 31.384 111.108 31.576 110.7 31.96C110.3 32.344 110.076 32.84 110.028 33.448ZM116.531 35.584V31.48H115.379V30.916H116.531V29.212H117.143V30.916H118.787V31.48H117.143V35.572C117.143 35.884 117.207 36.108 117.335 36.244C117.463 36.372 117.687 36.436 118.007 36.436H118.847V37H117.959C117.447 37 117.079 36.888 116.855 36.664C116.639 36.44 116.531 36.08 116.531 35.584ZM125.002 36.436H125.23V37H124.87C124.51 37 124.25 36.92 124.09 36.76C123.93 36.592 123.858 36.328 123.874 35.968V35.752C123.442 36.632 122.662 37.072 121.534 37.072C120.878 37.072 120.354 36.916 119.962 36.604C119.578 36.292 119.386 35.868 119.386 35.332C119.386 34.756 119.59 34.312 119.998 34C120.414 33.68 121.01 33.52 121.786 33.52H123.85V32.992C123.85 32.488 123.694 32.096 123.382 31.816C123.07 31.528 122.63 31.384 122.062 31.384C121.558 31.384 121.146 31.496 120.826 31.72C120.506 31.936 120.306 32.236 120.226 32.62H119.614C119.694 32.068 119.95 31.636 120.382 31.324C120.822 31.004 121.39 30.844 122.086 30.844C122.846 30.844 123.43 31.032 123.838 31.408C124.254 31.784 124.462 32.32 124.462 33.016V35.848C124.462 36.072 124.502 36.228 124.582 36.316C124.67 36.396 124.81 36.436 125.002 36.436ZM123.85 34.54V34.048H121.738C121.178 34.048 120.75 34.156 120.454 34.372C120.158 34.588 120.01 34.896 120.01 35.296C120.01 35.672 120.15 35.976 120.43 36.208C120.718 36.432 121.102 36.544 121.582 36.544C122.286 36.544 122.838 36.36 123.238 35.992C123.646 35.616 123.85 35.132 123.85 34.54ZM129.895 29.512C129.815 29.592 129.715 29.632 129.595 29.632C129.475 29.632 129.371 29.592 129.283 29.512C129.203 29.432 129.163 29.328 129.163 29.2C129.163 29.072 129.203 28.968 129.283 28.888C129.371 28.808 129.475 28.768 129.595 28.768C129.715 28.768 129.815 28.808 129.895 28.888C129.983 28.968 130.027 29.072 130.027 29.2C130.027 29.328 129.983 29.432 129.895 29.512ZM129.283 37V30.916H129.895V37H129.283ZM134.141 30.844C134.869 30.844 135.449 31.072 135.881 31.528C136.321 31.984 136.541 32.672 136.541 33.592V37H135.929V33.616C135.929 32.904 135.761 32.36 135.425 31.984C135.097 31.6 134.637 31.408 134.045 31.408C133.397 31.408 132.885 31.644 132.509 32.116C132.133 32.58 131.945 33.208 131.945 34V37H131.333V30.916H131.861L131.957 32.212C132.141 31.796 132.417 31.464 132.785 31.216C133.153 30.968 133.605 30.844 134.141 30.844ZM140.854 35.128H141.478C141.502 35.568 141.69 35.916 142.042 36.172C142.394 36.42 142.862 36.544 143.446 36.544C143.95 36.544 144.366 36.436 144.694 36.22C145.03 36.004 145.198 35.72 145.198 35.368C145.198 35.192 145.162 35.04 145.09 34.912C145.026 34.784 144.946 34.684 144.85 34.612C144.762 34.532 144.622 34.464 144.43 34.408C144.246 34.352 144.082 34.312 143.938 34.288C143.802 34.264 143.606 34.232 143.35 34.192C143.054 34.152 142.81 34.116 142.618 34.084C142.426 34.044 142.214 33.984 141.982 33.904C141.75 33.824 141.57 33.732 141.442 33.628C141.314 33.516 141.202 33.372 141.106 33.196C141.018 33.02 140.974 32.812 140.974 32.572C140.974 32.052 141.19 31.632 141.622 31.312C142.062 30.992 142.622 30.836 143.302 30.844C143.982 30.844 144.538 31 144.97 31.312C145.402 31.616 145.646 32.056 145.702 32.632H145.078C145.022 32.24 144.834 31.932 144.514 31.708C144.194 31.484 143.79 31.372 143.302 31.372C142.782 31.372 142.366 31.48 142.054 31.696C141.742 31.904 141.586 32.18 141.586 32.524C141.586 32.692 141.622 32.836 141.694 32.956C141.766 33.076 141.846 33.172 141.934 33.244C142.022 33.308 142.158 33.368 142.342 33.424C142.534 33.48 142.69 33.52 142.81 33.544C142.93 33.56 143.118 33.584 143.374 33.616C143.678 33.656 143.93 33.696 144.13 33.736C144.338 33.776 144.558 33.84 144.79 33.928C145.022 34.016 145.202 34.116 145.33 34.228C145.466 34.34 145.578 34.492 145.666 34.684C145.762 34.868 145.81 35.084 145.81 35.332C145.81 35.86 145.582 36.284 145.126 36.604C144.678 36.916 144.118 37.072 143.446 37.072C142.67 37.072 142.05 36.904 141.586 36.568C141.122 36.232 140.878 35.752 140.854 35.128ZM149.666 37.072C148.794 37.072 148.09 36.784 147.554 36.208C147.018 35.632 146.75 34.868 146.75 33.916C146.75 33.012 147.01 32.276 147.53 31.708C148.05 31.132 148.726 30.844 149.558 30.844C150.382 30.844 151.046 31.1 151.55 31.612C152.062 32.116 152.334 32.816 152.366 33.712C152.366 33.736 152.362 33.776 152.354 33.832C152.354 33.888 152.354 33.932 152.354 33.964H147.386V34.072C147.402 34.792 147.61 35.38 148.01 35.836C148.418 36.292 148.954 36.52 149.618 36.52C150.122 36.52 150.558 36.384 150.926 36.112C151.294 35.832 151.538 35.456 151.658 34.984H152.282C152.146 35.6 151.838 36.104 151.358 36.496C150.886 36.88 150.322 37.072 149.666 37.072ZM147.434 33.448H151.706C151.658 32.792 151.442 32.284 151.058 31.924C150.674 31.564 150.178 31.384 149.57 31.384C149.002 31.384 148.514 31.576 148.106 31.96C147.706 32.344 147.482 32.84 147.434 33.448ZM156.227 37.072C155.363 37.072 154.667 36.788 154.139 36.22C153.611 35.652 153.347 34.9 153.347 33.964C153.347 33.036 153.615 32.284 154.151 31.708C154.687 31.132 155.383 30.844 156.239 30.844C156.927 30.844 157.495 31.024 157.943 31.384C158.399 31.744 158.691 32.24 158.819 32.872H158.183C158.071 32.408 157.843 32.044 157.499 31.78C157.155 31.516 156.731 31.384 156.227 31.384C155.555 31.384 155.011 31.624 154.595 32.104C154.179 32.584 153.971 33.204 153.971 33.964C153.971 34.716 154.179 35.332 154.595 35.812C155.019 36.284 155.563 36.52 156.227 36.52C156.731 36.52 157.155 36.388 157.499 36.124C157.843 35.86 158.067 35.5 158.171 35.044H158.819C158.699 35.668 158.407 36.164 157.943 36.532C157.487 36.892 156.915 37.072 156.227 37.072ZM162.697 37.072C161.841 37.072 161.141 36.784 160.597 36.208C160.053 35.624 159.781 34.872 159.781 33.952C159.781 33.032 160.053 32.284 160.597 31.708C161.141 31.132 161.841 30.844 162.697 30.844C163.553 30.844 164.253 31.132 164.797 31.708C165.349 32.284 165.625 33.032 165.625 33.952C165.625 34.872 165.353 35.624 164.809 36.208C164.265 36.784 163.561 37.072 162.697 37.072ZM161.041 35.812C161.465 36.284 162.017 36.52 162.697 36.52C163.377 36.52 163.929 36.284 164.353 35.812C164.777 35.332 164.989 34.712 164.989 33.952C164.989 33.2 164.773 32.584 164.341 32.104C163.917 31.624 163.369 31.384 162.697 31.384C162.025 31.384 161.473 31.624 161.041 32.104C160.617 32.584 160.405 33.2 160.405 33.952C160.405 34.712 160.617 35.332 161.041 35.812ZM169.649 30.844C170.377 30.844 170.957 31.072 171.389 31.528C171.829 31.984 172.049 32.672 172.049 33.592V37H171.437V33.616C171.437 32.904 171.269 32.36 170.933 31.984C170.605 31.6 170.145 31.408 169.553 31.408C168.905 31.408 168.393 31.644 168.017 32.116C167.641 32.58 167.453 33.208 167.453 34V37H166.841V30.916H167.369L167.465 32.212C167.649 31.796 167.925 31.464 168.293 31.216C168.661 30.968 169.113 30.844 169.649 30.844ZM178.278 32.284V28.6H178.89V37H178.362L178.266 35.608C178.066 36.056 177.766 36.412 177.366 36.676C176.974 36.94 176.502 37.072 175.95 37.072C175.102 37.072 174.41 36.788 173.874 36.22C173.346 35.652 173.082 34.896 173.082 33.952C173.082 33.04 173.35 32.296 173.886 31.72C174.422 31.136 175.11 30.844 175.95 30.844C176.51 30.844 176.99 30.972 177.39 31.228C177.79 31.484 178.086 31.836 178.278 32.284ZM174.342 35.812C174.766 36.284 175.318 36.52 175.998 36.52C176.678 36.52 177.23 36.284 177.654 35.812C178.078 35.332 178.29 34.716 178.29 33.964C178.29 33.204 178.078 32.584 177.654 32.104C177.23 31.624 176.678 31.384 175.998 31.384C175.326 31.384 174.774 31.624 174.342 32.104C173.918 32.584 173.706 33.2 173.706 33.952C173.706 34.712 173.918 35.332 174.342 35.812ZM180.053 35.128H180.677C180.701 35.568 180.889 35.916 181.241 36.172C181.593 36.42 182.061 36.544 182.645 36.544C183.149 36.544 183.565 36.436 183.893 36.22C184.229 36.004 184.397 35.72 184.397 35.368C184.397 35.192 184.361 35.04 184.289 34.912C184.225 34.784 184.145 34.684 184.049 34.612C183.961 34.532 183.821 34.464 183.629 34.408C183.445 34.352 183.281 34.312 183.137 34.288C183.001 34.264 182.805 34.232 182.549 34.192C182.253 34.152 182.009 34.116 181.817 34.084C181.625 34.044 181.413 33.984 181.181 33.904C180.949 33.824 180.769 33.732 180.641 33.628C180.513 33.516 180.401 33.372 180.305 33.196C180.217 33.02 180.173 32.812 180.173 32.572C180.173 32.052 180.389 31.632 180.821 31.312C181.261 30.992 181.821 30.836 182.501 30.844C183.181 30.844 183.737 31 184.169 31.312C184.601 31.616 184.845 32.056 184.901 32.632H184.277C184.221 32.24 184.033 31.932 183.713 31.708C183.393 31.484 182.989 31.372 182.501 31.372C181.981 31.372 181.565 31.48 181.253 31.696C180.941 31.904 180.785 32.18 180.785 32.524C180.785 32.692 180.821 32.836 180.893 32.956C180.965 33.076 181.045 33.172 181.133 33.244C181.221 33.308 181.357 33.368 181.541 33.424C181.733 33.48 181.889 33.52 182.009 33.544C182.129 33.56 182.317 33.584 182.573 33.616C182.877 33.656 183.129 33.696 183.329 33.736C183.537 33.776 183.757 33.84 183.989 33.928C184.221 34.016 184.401 34.116 184.529 34.228C184.665 34.34 184.777 34.492 184.865 34.684C184.961 34.868 185.009 35.084 185.009 35.332C185.009 35.86 184.781 36.284 184.325 36.604C183.877 36.916 183.317 37.072 182.645 37.072C181.869 37.072 181.249 36.904 180.785 36.568C180.321 36.232 180.077 35.752 180.053 35.128Z" fill="#6A6A6A"/>
<g filter="url(#filter0_d_0_1)">
<rect x="1" y="1" width="32" height="32" rx="16" fill="#252C1E"/>
<rect x="1.25" y="1.25" width="31.5" height="31.5" rx="15.75" stroke="#D9D9D9" stroke-width="0.5"/>
</g>
<path d="M23.3145 11.149L22.3609 10.6712L21.5242 8.9888C21.224 8.3856 20.578 8 19.8673 8H17.8788C17.5058 8 17.2595 8.3634 17.4184 8.6794L17.7166 9.2722C16.2666 9.5082 14.9535 10.258 14.0655 11.3862L9.12426 17.6638C8.82712 18.0414 9.09414 18.5772 9.59422 18.6066L10.7777 18.6758C11.0035 18.689 11.187 18.8514 11.2134 19.0618L11.3843 20.4128C11.4459 20.8998 11.8705 21.2758 12.3933 21.3064L13.8431 21.391C14.0689 21.4042 14.2524 21.5666 14.2789 21.777L14.4498 23.1284C14.5113 23.6152 14.936 23.9912 15.4585 24.0218L16.9092 24.1068C17.1349 24.12 17.3182 24.2824 17.3449 24.4928L17.4695 25.4762C17.5323 25.9718 18.1808 26.1776 18.5519 25.8192C18.984 25.4018 19.4617 24.9252 19.9449 24.4346C22.1466 22.1998 22.8595 19.0134 21.8042 16.1382L21.1473 14.3486L21.1326 14.2032H19.7842C18.7798 14.2032 17.9653 13.4408 17.9653 12.5002V12.2208H18.5876V12.5002C18.5876 13.119 19.1233 13.6204 19.784 13.6204H21.1693C21.8292 13.6204 22.366 13.1178 22.366 12.5002L22.3665 12.2208H24C24.0002 11.7724 23.7366 11.3604 23.3145 11.149ZM20.3033 10.554C20.5763 10.554 20.7979 10.7612 20.7979 11.017C20.7979 11.2726 20.5766 11.48 20.3033 11.48C20.0303 11.48 19.8088 11.2728 19.8088 11.017C19.809 10.7612 20.0303 10.554 20.3033 10.554Z" fill="white"/>
<defs>
<filter id="filter0_d_0_1" x="0" y="0" width="34" height="34" filterUnits="userSpaceOnUse" color-interpolation-filters="sRGB">
<feFlood flood-opacity="0" result="BackgroundImageFix"/>
<feColorMatrix in="SourceAlpha" type="matrix" values="0 0 0 0 0 0 0 0 0 0 0 0 0 0 0 0 0 0 127 0" result="hardAlpha"/>
<feOffset/>
<feGaussianBlur stdDeviation="0.5"/>
<feComposite in2="hardAlpha" operator="out"/>
<feColorMatrix type="matrix" values="0 0 0 0 0 0 0 0 0 0 0 0 0 0 0 0 0 0 0.25 0"/>
<feBlend mode="normal" in2="BackgroundImageFix" result="effect1_dropShadow_0_1"/>
<feBlend mode="normal" in="SourceGraphic" in2="effect1_dropShadow_0_1" result="shape"/>
</filter>
</defs>
</svg>
