<svg width="288" height="1078" viewBox="0 0 288 1078" fill="none" xmlns="http://www.w3.org/2000/svg">
<g filter="url(#filter0_d_98_226)">
<rect width="283.435" height="1078" fill="white"/>
</g>
<path d="M198.587 39.7878C196.024 40.8531 192.184 41.6555 188.003 42.6402C169.084 47.0961 163.95 55.4252 162.677 58.4545C171.588 49.3717 188.025 51.2633 198.587 39.7878Z" fill="#252C1E"/>
<path d="M185.999 52.5877C172.017 51.8709 166.554 56.6575 164.854 58.4545C173.383 54.0707 183.926 58.5897 194.235 52.9133C192.211 53.1284 189.088 52.7462 185.999 52.5877Z" fill="#8D3939"/>
<path d="M164.854 58.7091C171.546 57.8139 177.347 62.0394 185.529 60.7547C184.147 60.5241 182.026 59.7728 180.036 59.1598C171.03 56.3869 166.417 58.0355 164.854 58.7091Z" fill="#252C1E"/>
<path d="M38.525 61H36.275L42.95 43.5H45.525L52.175 61H49.85L48 56.275H40.375L38.525 61ZM44.175 45.875L41.025 54.3H47.35L44.175 45.875ZM56.1832 61L51.4082 48.25H53.6082L57.4582 58.675L61.2832 48.25H63.4332L58.6582 61H56.1832ZM66.0135 46.1C65.2635 46.1 64.6885 45.55 64.6885 44.775C64.6885 44 65.2635 43.45 66.0135 43.45C66.7635 43.45 67.3385 44 67.3385 44.775C67.3385 45.55 66.7635 46.1 66.0135 46.1ZM64.9635 61V48.25H67.0135V61H64.9635ZM81.0969 59.125H81.7469V61H80.6219C78.9219 61 78.3469 60.275 78.3219 59.025C77.5219 60.175 76.2469 61.15 74.0469 61.15C71.2469 61.15 69.3469 59.75 69.3469 57.425C69.3469 54.875 71.1219 53.45 74.4719 53.45H78.2219V52.575C78.2219 50.925 77.0469 49.925 75.0469 49.925C73.2469 49.925 72.0469 50.775 71.7969 52.075H69.7469C70.0469 49.575 72.0719 48.1 75.1469 48.1C78.3969 48.1 80.2719 49.725 80.2719 52.7V58.275C80.2719 58.95 80.5219 59.125 81.0969 59.125ZM78.2219 55.8V55.175H74.2719C72.4469 55.175 71.4219 55.85 71.4219 57.3C71.4219 58.55 72.4969 59.4 74.1969 59.4C76.7469 59.4 78.2219 57.925 78.2219 55.8ZM89.5729 48.1C92.4479 48.1 94.7229 49.675 94.7229 53.9V61H92.6729V54.025C92.6729 51.375 91.4479 49.975 89.2229 49.975C86.8229 49.975 85.3729 51.75 85.3729 54.625V61H83.3229V48.25H85.0979L85.3729 49.975C86.1229 49 87.4229 48.1 89.5729 48.1ZM98.4615 61H96.2115L102.887 43.5H105.462L112.112 61H109.787L107.937 56.275H100.312L98.4615 61ZM104.112 45.875L100.962 54.3H107.287L104.112 45.875ZM113.792 61V43.5H115.842V61H113.792ZM124.525 61.15C120.7 61.15 118.2 58.525 118.2 54.625C118.2 50.75 120.65 48.1 124.25 48.1C127.85 48.1 130.2 50.375 130.3 54.15C130.3 54.425 130.275 54.725 130.25 55.025H120.35V55.2C120.425 57.625 121.95 59.325 124.375 59.325C126.175 59.325 127.575 58.375 128 56.725H130.075C129.575 59.275 127.475 61.15 124.525 61.15ZM120.475 53.325H128.1C127.9 51.125 126.4 49.9 124.275 49.9C122.4 49.9 120.675 51.25 120.475 53.325ZM138.539 48.25H139.114V50.25H138.089C135.414 50.25 134.689 52.475 134.689 54.5V61H132.639V48.25H134.414L134.689 50.175C135.289 49.2 136.264 48.25 138.539 48.25ZM142.256 57.675V50.125H139.956V48.25H142.256V44.675H144.306V48.25H147.606V50.125H144.306V57.65C144.306 58.725 144.681 59.125 145.781 59.125H147.806V61H145.581C143.131 61 142.256 59.925 142.256 57.675Z" fill="#1D220F"/>
<rect x="19.2377" y="263" width="256.502" height="48" rx="8" fill="white"/>
<path d="M45.0576 297H41.4177C40.9478 297 40.5412 296.673 40.4407 296.214L40.0337 294.33C39.4907 294.092 38.9759 293.795 38.4987 293.443L36.6617 294.028C36.2137 294.171 35.7266 293.982 35.4917 293.575L33.6677 290.424C33.4352 290.017 33.5153 289.502 33.8607 289.185L35.2857 287.885C35.2208 287.296 35.2208 286.702 35.2857 286.113L33.8607 284.816C33.5148 284.498 33.4347 283.984 33.6677 283.576L35.4877 280.423C35.7226 280.016 36.2097 279.827 36.6577 279.97L38.4947 280.555C38.7387 280.374 38.9928 280.207 39.2557 280.055C39.508 279.913 39.7677 279.784 40.0337 279.669L40.4417 277.787C40.5417 277.328 40.9478 277 41.4177 277H45.0576C45.5275 277 45.9336 277.328 46.0337 277.787L46.4457 279.67C46.7264 279.794 46.9999 279.933 47.2647 280.088C47.5116 280.231 47.7503 280.387 47.9796 280.557L49.8176 279.972C50.2653 279.83 50.7518 280.018 50.9867 280.425L52.8067 283.578C53.0391 283.985 52.959 284.5 52.6136 284.817L51.1887 286.117C51.2535 286.706 51.2535 287.3 51.1887 287.889L52.6136 289.189C52.959 289.506 53.0391 290.021 52.8067 290.428L50.9867 293.581C50.7518 293.988 50.2653 294.176 49.8176 294.034L47.9796 293.449C47.7471 293.62 47.5054 293.779 47.2556 293.924C46.9935 294.076 46.7231 294.213 46.4457 294.335L46.0337 296.214C45.9332 296.673 45.5272 297 45.0576 297ZM38.8577 291.229L39.6777 291.829C39.8625 291.965 40.0552 292.09 40.2547 292.204C40.4424 292.313 40.6356 292.412 40.8337 292.5L41.7667 292.909L42.2236 295H44.2536L44.7106 292.908L45.6437 292.499C46.051 292.319 46.4376 292.096 46.7966 291.833L47.6177 291.233L49.6586 291.883L50.6737 290.125L49.0906 288.682L49.2027 287.67C49.2518 287.227 49.2518 286.781 49.2027 286.338L49.0906 285.326L50.6747 283.88L49.6586 282.121L47.6177 282.771L46.7966 282.171C46.4374 281.907 46.0509 281.682 45.6437 281.5L44.7106 281.091L44.2536 279H42.2236L41.7647 281.092L40.8337 281.5C40.6355 281.587 40.4422 281.685 40.2547 281.793C40.0564 281.906 39.8647 282.031 39.6807 282.166L38.8597 282.766L36.8197 282.116L35.8027 283.88L37.3857 285.321L37.2737 286.334C37.2245 286.777 37.2245 287.223 37.2737 287.666L37.3857 288.678L35.8027 290.121L36.8177 291.879L38.8577 291.229ZM43.2337 291C41.0245 291 39.2337 289.209 39.2337 287C39.2337 284.791 41.0245 283 43.2337 283C45.4428 283 47.2337 284.791 47.2337 287C47.2309 289.208 45.4416 290.997 43.2337 291ZM43.2337 285C42.141 285.001 41.2515 285.879 41.2359 286.971C41.2202 288.064 42.0842 288.967 43.1763 288.999C44.2685 289.032 45.1845 288.181 45.2337 287.09V287.49V287C45.2337 285.895 44.3382 285 43.2337 285Z" fill="#528052"/>
<path d="M73.7753 284.617C73.7289 284.183 73.5334 283.845 73.1887 283.603C72.8473 283.361 72.4032 283.24 71.8563 283.24C71.4718 283.24 71.142 283.298 70.8669 283.414C70.5918 283.53 70.3814 283.687 70.2355 283.886C70.0897 284.085 70.0151 284.312 70.0118 284.567C70.0118 284.78 70.0599 284.964 70.156 285.119C70.2554 285.275 70.3897 285.408 70.5587 285.517C70.7277 285.623 70.915 285.713 71.1205 285.786C71.326 285.858 71.5331 285.92 71.7419 285.969L72.6965 286.208C73.0809 286.298 73.4505 286.419 73.8051 286.571C74.1631 286.723 74.4829 286.916 74.7647 287.148C75.0497 287.38 75.2751 287.66 75.4408 287.988C75.6065 288.316 75.6894 288.701 75.6894 289.141C75.6894 289.738 75.5369 290.263 75.232 290.717C74.9271 291.168 74.4863 291.521 73.9095 291.776C73.3362 292.028 72.6418 292.154 71.8264 292.154C71.0343 292.154 70.3466 292.031 69.7632 291.786C69.1832 291.541 68.7291 291.183 68.401 290.712C68.0762 290.242 67.9005 289.668 67.874 288.992H69.6887C69.7152 289.347 69.8246 289.642 70.0168 289.877C70.209 290.112 70.4593 290.288 70.7675 290.404C71.0791 290.52 71.4271 290.578 71.8115 290.578C72.2126 290.578 72.5639 290.518 72.8655 290.399C73.1704 290.277 73.4091 290.107 73.5814 289.892C73.7538 289.673 73.8416 289.418 73.8449 289.126C73.8416 288.861 73.7637 288.643 73.6113 288.47C73.4588 288.295 73.245 288.149 72.9699 288.033C72.6981 287.913 72.38 287.807 72.0154 287.714L70.857 287.416C70.0184 287.201 69.3556 286.874 68.8684 286.437C68.3845 285.996 68.1425 285.411 68.1425 284.682C68.1425 284.082 68.3049 283.557 68.6297 283.106C68.9578 282.655 69.4036 282.305 69.9671 282.057C70.5305 281.805 71.1685 281.679 71.8811 281.679C72.6037 281.679 73.2367 281.805 73.7803 282.057C74.3272 282.305 74.7564 282.652 75.0679 283.096C75.3795 283.537 75.5402 284.044 75.5502 284.617H73.7753ZM77.1937 292V281.818H83.8159V283.364H79.0382V286.129H83.4728V287.675H79.0382V290.454H83.8557V292H77.1937ZM85.1102 283.364V281.818H93.2338V283.364H90.0868V292H88.2572V283.364H85.1102ZM94.2124 283.364V281.818H102.336V283.364H99.1889V292H97.3594V283.364H94.2124ZM105.606 281.818V292H103.762V281.818H105.606ZM115.831 281.818V292H114.19L109.393 285.065H109.308V292H107.464V281.818H109.114L113.907 288.759H113.996V281.818H115.831ZM124.522 285.07C124.439 284.801 124.325 284.561 124.179 284.349C124.036 284.133 123.864 283.949 123.662 283.797C123.463 283.644 123.234 283.53 122.976 283.454C122.717 283.374 122.435 283.335 122.13 283.335C121.584 283.335 121.096 283.472 120.669 283.747C120.241 284.022 119.905 284.427 119.66 284.96C119.418 285.491 119.297 286.137 119.297 286.899C119.297 287.668 119.418 288.319 119.66 288.853C119.902 289.387 120.238 289.793 120.669 290.071C121.1 290.346 121.6 290.484 122.17 290.484C122.687 290.484 123.135 290.384 123.513 290.185C123.894 289.987 124.187 289.705 124.393 289.34C124.598 288.972 124.701 288.541 124.701 288.048L125.118 288.112H122.354V286.67H126.486V287.893C126.486 288.765 126.3 289.519 125.929 290.156C125.558 290.792 125.047 291.282 124.397 291.627C123.748 291.969 123.002 292.139 122.16 292.139C121.222 292.139 120.399 291.929 119.689 291.508C118.983 291.084 118.432 290.482 118.034 289.703C117.639 288.921 117.442 287.993 117.442 286.919C117.442 286.097 117.558 285.363 117.79 284.717C118.026 284.07 118.354 283.522 118.775 283.071C119.196 282.617 119.689 282.272 120.256 282.037C120.823 281.798 121.439 281.679 122.106 281.679C122.669 281.679 123.194 281.762 123.682 281.928C124.169 282.09 124.601 282.322 124.979 282.624C125.36 282.925 125.674 283.283 125.919 283.697C126.164 284.112 126.325 284.569 126.401 285.07H124.522ZM133.663 284.617C133.616 284.183 133.421 283.845 133.076 283.603C132.734 283.361 132.29 283.24 131.743 283.24C131.359 283.24 131.029 283.298 130.754 283.414C130.479 283.53 130.269 283.687 130.123 283.886C129.977 284.085 129.902 284.312 129.899 284.567C129.899 284.78 129.947 284.964 130.043 285.119C130.143 285.275 130.277 285.408 130.446 285.517C130.615 285.623 130.802 285.713 131.008 285.786C131.213 285.858 131.42 285.92 131.629 285.969L132.584 286.208C132.968 286.298 133.338 286.419 133.692 286.571C134.05 286.723 134.37 286.916 134.652 287.148C134.937 287.38 135.162 287.66 135.328 287.988C135.494 288.316 135.577 288.701 135.577 289.141C135.577 289.738 135.424 290.263 135.119 290.717C134.814 291.168 134.373 291.521 133.797 291.776C133.223 292.028 132.529 292.154 131.714 292.154C130.921 292.154 130.234 292.031 129.65 291.786C129.07 291.541 128.616 291.183 128.288 290.712C127.963 290.242 127.788 289.668 127.761 288.992H129.576C129.602 289.347 129.712 289.642 129.904 289.877C130.096 290.112 130.346 290.288 130.655 290.404C130.966 290.52 131.314 290.578 131.699 290.578C132.1 290.578 132.451 290.518 132.753 290.399C133.058 290.277 133.296 290.107 133.469 289.892C133.641 289.673 133.729 289.418 133.732 289.126C133.729 288.861 133.651 288.643 133.498 288.47C133.346 288.295 133.132 288.149 132.857 288.033C132.585 287.913 132.267 287.807 131.903 287.714L130.744 287.416C129.906 287.201 129.243 286.874 128.756 286.437C128.272 285.996 128.03 285.411 128.03 284.682C128.03 284.082 128.192 283.557 128.517 283.106C128.845 282.655 129.291 282.305 129.854 282.057C130.418 281.805 131.056 281.679 131.768 281.679C132.491 281.679 133.124 281.805 133.667 282.057C134.214 282.305 134.644 282.652 134.955 283.096C135.267 283.537 135.427 284.044 135.437 284.617H133.663Z" fill="#528052"/>
<rect x="19.2377" y="207" width="256.502" height="48" rx="8" fill="white"/>
<path d="M43.2377 241C37.7148 241 33.2377 236.523 33.2377 231C33.2377 225.477 37.7148 221 43.2377 221C48.7605 221 53.2377 225.477 53.2377 231C53.2316 236.52 48.758 240.994 43.2377 241ZM42.2377 223.062C38.9637 223.476 36.2799 225.858 35.48 229.059C34.68 232.261 35.928 235.625 38.6225 237.531C41.3169 239.436 44.9048 239.491 47.6567 237.67L47.5567 237.741L47.6507 237.676L47.7097 237.635L47.7737 237.59L47.7897 237.579L47.7987 237.572L42.6707 232.442C42.392 232.158 42.2365 231.777 42.2377 231.379V223.062ZM45.0667 232L49.2937 236.227L49.3007 236.219L49.3057 236.213L49.2957 236.224C50.3273 235.034 50.9817 233.563 51.1757 232H45.0667ZM44.2377 223.062V230H51.1757C50.7192 226.374 47.8636 223.519 44.2377 223.062Z" fill="#528052"/>
<path d="M69.5495 236H67.5807L71.1652 225.818H73.4422L77.0317 236H75.063L72.3435 227.906H72.2639L69.5495 236ZM69.6141 232.008H74.9834V233.489H69.6141V232.008ZM86.6 225.818V236H84.9594L80.1618 229.065H80.0773V236H78.2328V225.818H79.8834L84.676 232.759H84.7655V225.818H86.6ZM89.7773 236H87.8085L91.393 225.818H93.67L97.2595 236H95.2908L92.5713 227.906H92.4918L89.7773 236ZM89.8419 232.008H95.2112V233.489H89.8419V232.008ZM98.4606 236V225.818H100.305V234.454H104.789V236H98.4606ZM104.529 225.818H106.612L109.103 230.322H109.202L111.693 225.818H113.776L110.072 232.202V236H108.233V232.202L104.529 225.818ZM115.137 227.364V225.818H123.261V227.364H120.114V236H118.284V227.364H115.137ZM126.532 225.818V236H124.687V225.818H126.532ZM137.104 229.254H135.245C135.192 228.949 135.094 228.679 134.951 228.443C134.809 228.205 134.632 228.002 134.419 227.837C134.207 227.671 133.965 227.547 133.694 227.464C133.425 227.378 133.135 227.335 132.824 227.335C132.27 227.335 131.78 227.474 131.352 227.752C130.924 228.027 130.59 228.432 130.348 228.965C130.106 229.496 129.985 230.143 129.985 230.909C129.985 231.688 130.106 232.344 130.348 232.878C130.593 233.408 130.928 233.809 131.352 234.081C131.78 234.349 132.268 234.484 132.819 234.484C133.123 234.484 133.409 234.444 133.674 234.364C133.942 234.281 134.182 234.161 134.395 234.001C134.61 233.842 134.791 233.647 134.936 233.415C135.086 233.183 135.188 232.918 135.245 232.619L137.104 232.629C137.034 233.113 136.884 233.567 136.652 233.991C136.423 234.416 136.123 234.79 135.752 235.115C135.381 235.437 134.946 235.688 134.449 235.871C133.952 236.05 133.4 236.139 132.794 236.139C131.899 236.139 131.1 235.932 130.397 235.518C129.695 235.103 129.141 234.505 128.737 233.723C128.333 232.941 128.13 232.003 128.13 230.909C128.13 229.812 128.334 228.874 128.742 228.095C129.15 227.313 129.705 226.715 130.407 226.3C131.11 225.886 131.905 225.679 132.794 225.679C133.36 225.679 133.887 225.759 134.375 225.918C134.862 226.077 135.296 226.31 135.677 226.619C136.058 226.924 136.372 227.298 136.617 227.742C136.865 228.183 137.028 228.687 137.104 229.254ZM144.187 228.617C144.14 228.183 143.945 227.845 143.6 227.603C143.259 227.361 142.814 227.24 142.268 227.24C141.883 227.24 141.553 227.298 141.278 227.414C141.003 227.53 140.793 227.687 140.647 227.886C140.501 228.085 140.426 228.312 140.423 228.567C140.423 228.78 140.471 228.964 140.567 229.119C140.667 229.275 140.801 229.408 140.97 229.517C141.139 229.623 141.326 229.713 141.532 229.786C141.737 229.858 141.944 229.92 142.153 229.969L143.108 230.208C143.492 230.298 143.862 230.419 144.216 230.571C144.574 230.723 144.894 230.916 145.176 231.148C145.461 231.38 145.686 231.66 145.852 231.988C146.018 232.316 146.101 232.701 146.101 233.141C146.101 233.738 145.948 234.263 145.643 234.717C145.338 235.168 144.897 235.521 144.321 235.776C143.747 236.028 143.053 236.154 142.238 236.154C141.446 236.154 140.758 236.031 140.174 235.786C139.594 235.541 139.14 235.183 138.812 234.712C138.487 234.242 138.312 233.668 138.285 232.992H140.1C140.126 233.347 140.236 233.642 140.428 233.877C140.62 234.112 140.871 234.288 141.179 234.404C141.49 234.52 141.838 234.578 142.223 234.578C142.624 234.578 142.975 234.518 143.277 234.399C143.582 234.277 143.82 234.107 143.993 233.892C144.165 233.673 144.253 233.418 144.256 233.126C144.253 232.861 144.175 232.643 144.022 232.47C143.87 232.295 143.656 232.149 143.381 232.033C143.109 231.913 142.791 231.807 142.427 231.714L141.268 231.416C140.43 231.201 139.767 230.874 139.28 230.437C138.796 229.996 138.554 229.411 138.554 228.682C138.554 228.082 138.716 227.557 139.041 227.106C139.369 226.655 139.815 226.305 140.378 226.057C140.942 225.805 141.58 225.679 142.292 225.679C143.015 225.679 143.648 225.805 144.192 226.057C144.738 226.305 145.168 226.652 145.479 227.096C145.791 227.537 145.951 228.044 145.961 228.617H144.187Z" fill="#528052"/>
<rect x="19.2377" y="151" width="256.502" height="48" rx="8" fill="white"/>
<path d="M51.2377 184H35.2377C34.6854 184 34.2377 183.552 34.2377 183V175.7C34.2377 175.412 34.362 175.138 34.5787 174.948L36.2377 173.5V167C36.2377 166.448 36.6854 166 37.2377 166H51.2377C51.79 166 52.2377 166.448 52.2377 167V183C52.2377 183.552 51.79 184 51.2377 184ZM40.2377 170.329C40.4798 170.329 40.7136 170.417 40.8957 170.577L45.8957 174.952C46.1117 175.141 46.2362 175.413 46.2377 175.7V182H50.2377V168H38.2377V171.75L39.5787 170.576C39.7612 170.417 39.9953 170.329 40.2377 170.329ZM39.2377 179H41.2377V182H44.2377V176.157L40.2377 172.657L36.2377 176.157V182H39.2377V179Z" fill="#528052"/>
<path d="M68.2419 180V169.818H70.0864V174.129H74.8044V169.818H76.6539V180H74.8044V175.675H70.0864V180H68.2419ZM87.6179 174.909C87.6179 176.006 87.4124 176.946 87.0014 177.728C86.5938 178.507 86.0369 179.103 85.331 179.518C84.6283 179.932 83.8312 180.139 82.9396 180.139C82.0481 180.139 81.2493 179.932 80.5433 179.518C79.8407 179.1 79.2839 178.502 78.8729 177.723C78.4652 176.941 78.2614 176.003 78.2614 174.909C78.2614 173.812 78.4652 172.874 78.8729 172.095C79.2839 171.313 79.8407 170.715 80.5433 170.3C81.2493 169.886 82.0481 169.679 82.9396 169.679C83.8312 169.679 84.6283 169.886 85.331 170.3C86.0369 170.715 86.5938 171.313 87.0014 172.095C87.4124 172.874 87.6179 173.812 87.6179 174.909ZM85.7635 174.909C85.7635 174.137 85.6425 173.486 85.4006 172.955C85.1619 172.422 84.8305 172.019 84.4063 171.747C83.982 171.472 83.4931 171.335 82.9396 171.335C82.3861 171.335 81.8973 171.472 81.473 171.747C81.0488 172.019 80.7157 172.422 80.4737 172.955C80.2351 173.486 80.1158 174.137 80.1158 174.909C80.1158 175.681 80.2351 176.334 80.4737 176.868C80.7157 177.398 81.0488 177.801 81.473 178.076C81.8973 178.348 82.3861 178.484 82.9396 178.484C83.4931 178.484 83.982 178.348 84.4063 178.076C84.8305 177.801 85.1619 177.398 85.4006 176.868C85.6425 176.334 85.7635 175.681 85.7635 174.909ZM94.7551 172.617C94.7087 172.183 94.5131 171.845 94.1684 171.603C93.827 171.361 93.3829 171.24 92.836 171.24C92.4516 171.24 92.1218 171.298 91.8467 171.414C91.5716 171.53 91.3611 171.687 91.2153 171.886C91.0695 172.085 90.9949 172.312 90.9916 172.567C90.9916 172.78 91.0396 172.964 91.1358 173.119C91.2352 173.275 91.3694 173.408 91.5385 173.517C91.7075 173.623 91.8948 173.713 92.1002 173.786C92.3057 173.858 92.5129 173.92 92.7217 173.969L93.6762 174.208C94.0607 174.298 94.4303 174.419 94.7849 174.571C95.1429 174.723 95.4627 174.916 95.7444 175.148C96.0295 175.38 96.2548 175.66 96.4206 175.988C96.5863 176.316 96.6691 176.701 96.6691 177.141C96.6691 177.738 96.5167 178.263 96.2118 178.717C95.9068 179.168 95.466 179.521 94.8893 179.776C94.3159 180.028 93.6216 180.154 92.8062 180.154C92.0141 180.154 91.3263 180.031 90.743 179.786C90.163 179.541 89.7089 179.183 89.3808 178.712C89.056 178.242 88.8803 177.668 88.8538 176.992H90.6684C90.6949 177.347 90.8043 177.642 90.9966 177.877C91.1888 178.112 91.439 178.288 91.7473 178.404C92.0588 178.52 92.4068 178.578 92.7913 178.578C93.1923 178.578 93.5437 178.518 93.8453 178.399C94.1502 178.277 94.3888 178.107 94.5612 177.892C94.7335 177.673 94.8214 177.418 94.8247 177.126C94.8214 176.861 94.7435 176.643 94.591 176.47C94.4386 176.295 94.2248 176.149 93.9497 176.033C93.6779 175.913 93.3597 175.807 92.9951 175.714L91.8368 175.416C90.9982 175.201 90.3353 174.874 89.8481 174.437C89.3642 173.996 89.1223 173.411 89.1223 172.682C89.1223 172.082 89.2847 171.557 89.6095 171.106C89.9376 170.655 90.3834 170.305 90.9468 170.057C91.5103 169.805 92.1483 169.679 92.8609 169.679C93.5834 169.679 94.2165 169.805 94.76 170.057C95.3069 170.305 95.7361 170.652 96.0477 171.096C96.3592 171.537 96.52 172.044 96.5299 172.617H94.7551ZM98.1735 180V169.818H101.992C102.774 169.818 103.43 169.964 103.96 170.256C104.494 170.547 104.897 170.948 105.169 171.459C105.444 171.966 105.581 172.543 105.581 173.189C105.581 173.842 105.444 174.422 105.169 174.929C104.893 175.436 104.487 175.835 103.95 176.127C103.414 176.415 102.752 176.56 101.967 176.56H99.4363V175.043H101.718C102.176 175.043 102.55 174.964 102.842 174.805C103.133 174.646 103.349 174.427 103.488 174.148C103.631 173.87 103.702 173.55 103.702 173.189C103.702 172.828 103.631 172.509 103.488 172.234C103.349 171.959 103.132 171.746 102.837 171.593C102.545 171.437 102.169 171.359 101.708 171.359H100.018V180H98.1735ZM108.888 169.818V180H107.043V169.818H108.888ZM110.298 171.364V169.818H118.421V171.364H115.274V180H113.445V171.364H110.298ZM119.924 180H117.956L121.54 169.818H123.817L127.407 180H125.438L122.718 171.906H122.639L119.924 180ZM119.989 176.008H125.358V177.489H119.989V176.008ZM128.608 180V169.818H130.452V178.454H134.936V180H128.608Z" fill="#528052"/>
<rect y="103" width="286" height="48" fill="#ECECEC"/>
<path d="M71.4545 131H68.0043V120.818H71.5241C72.535 120.818 73.4034 121.022 74.1293 121.43C74.8584 121.834 75.4186 122.416 75.8097 123.175C76.2008 123.934 76.3963 124.842 76.3963 125.899C76.3963 126.96 76.1991 127.871 75.8047 128.634C75.4136 129.396 74.8485 129.981 74.1094 130.388C73.3736 130.796 72.4886 131 71.4545 131ZM69.8487 129.404H71.3651C72.0743 129.404 72.666 129.275 73.1399 129.016C73.6139 128.754 73.9702 128.365 74.2088 127.848C74.4474 127.328 74.5668 126.678 74.5668 125.899C74.5668 125.12 74.4474 124.474 74.2088 123.96C73.9702 123.443 73.6172 123.057 73.1499 122.802C72.6858 122.543 72.1091 122.414 71.4197 122.414H69.8487V129.404ZM78.7694 131H76.8007L80.3852 120.818H82.6622L86.2517 131H84.2829L81.5635 122.906H81.4839L78.7694 131ZM78.8341 127.008H84.2034V128.489H78.8341V127.008ZM92.8221 123.617C92.7757 123.183 92.5801 122.845 92.2354 122.603C91.8941 122.361 91.4499 122.24 90.9031 122.24C90.5186 122.24 90.1888 122.298 89.9137 122.414C89.6386 122.53 89.4282 122.687 89.2823 122.886C89.1365 123.085 89.0619 123.312 89.0586 123.567C89.0586 123.78 89.1067 123.964 89.2028 124.119C89.3022 124.275 89.4364 124.408 89.6055 124.517C89.7745 124.623 89.9618 124.713 90.1673 124.786C90.3728 124.858 90.5799 124.92 90.7887 124.969L91.7433 125.208C92.1277 125.298 92.4973 125.419 92.8519 125.571C93.2099 125.723 93.5297 125.916 93.8114 126.148C94.0965 126.38 94.3219 126.66 94.4876 126.988C94.6533 127.316 94.7362 127.701 94.7362 128.141C94.7362 128.738 94.5837 129.263 94.2788 129.717C93.9738 130.168 93.533 130.521 92.9563 130.776C92.3829 131.028 91.6886 131.154 90.8732 131.154C90.0811 131.154 89.3934 131.031 88.81 130.786C88.23 130.541 87.7759 130.183 87.4478 129.712C87.123 129.242 86.9473 128.668 86.9208 127.992H88.7354C88.762 128.347 88.8713 128.642 89.0636 128.877C89.2558 129.112 89.506 129.288 89.8143 129.404C90.1258 129.52 90.4738 129.578 90.8583 129.578C91.2594 129.578 91.6107 129.518 91.9123 129.399C92.2172 129.277 92.4559 129.107 92.6282 128.892C92.8006 128.673 92.8884 128.418 92.8917 128.126C92.8884 127.861 92.8105 127.643 92.658 127.47C92.5056 127.295 92.2918 127.149 92.0167 127.033C91.7449 126.913 91.4267 126.807 91.0622 126.714L89.9038 126.416C89.0652 126.201 88.4024 125.874 87.9151 125.437C87.4312 124.996 87.1893 124.411 87.1893 123.682C87.1893 123.082 87.3517 122.557 87.6765 122.106C88.0046 121.655 88.4504 121.305 89.0139 121.057C89.5773 120.805 90.2153 120.679 90.9279 120.679C91.6505 120.679 92.2835 120.805 92.8271 121.057C93.3739 121.305 93.8032 121.652 94.1147 122.096C94.4263 122.537 94.587 123.044 94.597 123.617H92.8221ZM96.2405 131V120.818H98.085V125.129H102.803V120.818H104.652V131H102.803V126.675H98.085V131H96.2405ZM106.518 131V120.818H110.416C111.152 120.818 111.764 120.934 112.251 121.166C112.741 121.395 113.107 121.708 113.349 122.106C113.595 122.504 113.717 122.954 113.717 123.458C113.717 123.872 113.638 124.227 113.479 124.522C113.32 124.814 113.106 125.051 112.837 125.233C112.569 125.415 112.269 125.546 111.938 125.626V125.725C112.299 125.745 112.645 125.856 112.977 126.058C113.311 126.257 113.585 126.539 113.797 126.903C114.009 127.268 114.115 127.709 114.115 128.226C114.115 128.753 113.987 129.227 113.732 129.648C113.477 130.065 113.093 130.395 112.579 130.637C112.065 130.879 111.419 131 110.64 131H106.518ZM108.363 129.459H110.347C111.016 129.459 111.498 129.331 111.793 129.076C112.092 128.817 112.241 128.486 112.241 128.082C112.241 127.78 112.166 127.508 112.017 127.266C111.868 127.021 111.656 126.829 111.381 126.69C111.106 126.547 110.777 126.476 110.396 126.476H108.363V129.459ZM108.363 125.148H110.188C110.506 125.148 110.792 125.09 111.048 124.974C111.303 124.855 111.503 124.688 111.649 124.472C111.798 124.254 111.873 123.995 111.873 123.697C111.873 123.302 111.734 122.978 111.455 122.722C111.18 122.467 110.771 122.339 110.227 122.339H108.363V125.148ZM124.678 125.909C124.678 127.006 124.472 127.946 124.061 128.728C123.654 129.507 123.097 130.103 122.391 130.518C121.688 130.932 120.891 131.139 119.999 131.139C119.108 131.139 118.309 130.932 117.603 130.518C116.9 130.1 116.344 129.502 115.933 128.723C115.525 127.941 115.321 127.003 115.321 125.909C115.321 124.812 115.525 123.874 115.933 123.095C116.344 122.313 116.9 121.715 117.603 121.3C118.309 120.886 119.108 120.679 119.999 120.679C120.891 120.679 121.688 120.886 122.391 121.3C123.097 121.715 123.654 122.313 124.061 123.095C124.472 123.874 124.678 124.812 124.678 125.909ZM122.823 125.909C122.823 125.137 122.702 124.486 122.46 123.955C122.222 123.422 121.89 123.019 121.466 122.747C121.042 122.472 120.553 122.335 119.999 122.335C119.446 122.335 118.957 122.472 118.533 122.747C118.109 123.019 117.775 123.422 117.533 123.955C117.295 124.486 117.176 125.137 117.176 125.909C117.176 126.681 117.295 127.334 117.533 127.868C117.775 128.398 118.109 128.801 118.533 129.076C118.957 129.348 119.446 129.484 119.999 129.484C120.553 129.484 121.042 129.348 121.466 129.076C121.89 128.801 122.222 128.398 122.46 127.868C122.702 127.334 122.823 126.681 122.823 125.909ZM127.042 131H125.073L128.658 120.818H130.935L134.524 131H132.556L129.836 122.906H129.757L127.042 131ZM127.107 127.008H132.476V128.489H127.107V127.008ZM135.725 131V120.818H139.544C140.326 120.818 140.982 120.954 141.512 121.226C142.046 121.498 142.449 121.879 142.72 122.369C142.996 122.857 143.133 123.425 143.133 124.075C143.133 124.728 142.994 125.294 142.715 125.775C142.44 126.252 142.034 126.622 141.497 126.884C140.961 127.142 140.301 127.271 139.519 127.271H136.799V125.74H139.27C139.728 125.74 140.102 125.677 140.394 125.551C140.685 125.422 140.901 125.235 141.04 124.989C141.183 124.741 141.254 124.436 141.254 124.075C141.254 123.713 141.183 123.405 141.04 123.15C140.898 122.891 140.68 122.696 140.389 122.563C140.097 122.427 139.721 122.359 139.26 122.359H137.57V131H135.725ZM140.985 126.386L143.506 131H141.448L138.972 126.386H140.985ZM148.141 131H144.691V120.818H148.211C149.222 120.818 150.09 121.022 150.816 121.43C151.545 121.834 152.105 122.416 152.496 123.175C152.887 123.934 153.083 124.842 153.083 125.899C153.083 126.96 152.886 127.871 152.491 128.634C152.1 129.396 151.535 129.981 150.796 130.388C150.06 130.796 149.175 131 148.141 131ZM146.535 129.404H148.052C148.761 129.404 149.353 129.275 149.827 129.016C150.301 128.754 150.657 128.365 150.895 127.848C151.134 127.328 151.253 126.678 151.253 125.899C151.253 125.12 151.134 124.474 150.895 123.96C150.657 123.443 150.304 123.057 149.836 122.802C149.372 122.543 148.796 122.414 148.106 122.414H146.535V129.404Z" fill="#528052"/>
<rect x="33.5" y="119.5" width="22.5661" height="13" stroke="#528052"/>
<rect x="36.3666" y="121.625" width="5.61099" height="4.375" fill="#528052"/>
<rect x="36.3666" y="126.875" width="12.3442" height="3.5" fill="#528052"/>
<rect x="49.8329" y="126.875" width="3.36659" height="3.5" fill="#528052"/>
<rect x="43.0998" y="121.625" width="10.0998" height="4.375" fill="#528052"/>
<defs>
<filter id="filter0_d_98_226" x="-4" y="0" width="291.435" height="1086" filterUnits="userSpaceOnUse" color-interpolation-filters="sRGB">
<feFlood flood-opacity="0" result="BackgroundImageFix"/>
<feColorMatrix in="SourceAlpha" type="matrix" values="0 0 0 0 0 0 0 0 0 0 0 0 0 0 0 0 0 0 127 0" result="hardAlpha"/>
<feOffset dy="4"/>
<feGaussianBlur stdDeviation="2"/>
<feComposite in2="hardAlpha" operator="out"/>
<feColorMatrix type="matrix" values="0 0 0 0 0 0 0 0 0 0 0 0 0 0 0 0 0 0 0.25 0"/>
<feBlend mode="normal" in2="BackgroundImageFix" result="effect1_dropShadow_98_226"/>
<feBlend mode="normal" in="SourceGraphic" in2="effect1_dropShadow_98_226" result="shape"/>
</filter>
</defs>
</svg>
