<svg width="571" height="235" viewBox="0 0 571 235" fill="none" xmlns="http://www.w3.org/2000/svg">
<g filter="url(#filter0_d_85_16)">
<g clip-path="url(#clip0_85_16)">
<rect x="1" y="1" width="569" height="233" rx="13" fill="#D9D9D9"/>
<rect x="0.25" y="0.25" width="569.5" height="233.5" rx="12.75" fill="white" stroke="#D9D9D9" stroke-width="0.5"/>
<path d="M20.72 22.02V20H31.48V21.58L23.64 31.98H31.7V34H20.5V32.42L28.34 22.02H20.72ZM41.3792 32.68C40.4192 33.64 39.1592 34.12 37.5992 34.12C36.0392 34.12 34.7792 33.64 33.8192 32.68C32.8592 31.72 32.3792 30.4533 32.3792 28.88C32.3792 27.32 32.8592 26.06 33.8192 25.1C34.7792 24.1267 36.0392 23.64 37.5992 23.64C39.1592 23.64 40.4192 24.1267 41.3792 25.1C42.3392 26.06 42.8192 27.32 42.8192 28.88C42.8192 30.4533 42.3392 31.72 41.3792 32.68ZM35.4192 31.34C35.9659 31.9667 36.6926 32.28 37.5992 32.28C38.5059 32.28 39.2326 31.9667 39.7792 31.34C40.3392 30.7 40.6192 29.88 40.6192 28.88C40.6192 27.88 40.3392 27.0667 39.7792 26.44C39.2326 25.8 38.5059 25.48 37.5992 25.48C36.6926 25.48 35.9659 25.8 35.4192 26.44C34.8726 27.0667 34.5992 27.88 34.5992 28.88C34.5992 29.88 34.8726 30.7 35.4192 31.34ZM49.9561 23.64C51.1828 23.64 52.1761 24.0133 52.9361 24.76C53.6961 25.5067 54.0761 26.6867 54.0761 28.3V34H51.8961V28.48C51.8961 26.4933 51.0828 25.5 49.4561 25.5C48.6028 25.5 47.9294 25.8 47.4361 26.4C46.9561 26.9867 46.7161 27.8 46.7161 28.84V34H44.5561V23.76H46.4361L46.6761 25.1C47.4494 24.1267 48.5428 23.64 49.9561 23.64ZM60.8223 34.12C59.2223 34.12 57.949 33.6467 57.0023 32.7C56.0557 31.74 55.5823 30.4733 55.5823 28.9C55.5823 27.3267 56.0423 26.06 56.9623 25.1C57.8957 24.1267 59.1157 23.64 60.6223 23.64C62.1023 23.64 63.2957 24.08 64.2023 24.96C65.1223 25.84 65.5957 27.0267 65.6223 28.52C65.6223 28.7867 65.6023 29.06 65.5623 29.34H57.8423V29.48C57.869 30.36 58.1423 31.06 58.6623 31.58C59.1823 32.1 59.8623 32.36 60.7023 32.36C61.369 32.36 61.929 32.2067 62.3823 31.9C62.8357 31.58 63.1357 31.1333 63.2823 30.56H65.4423C65.2557 31.6 64.749 32.4533 63.9223 33.12C63.0957 33.7867 62.0623 34.12 60.8223 34.12ZM57.9223 27.76H63.3823C63.289 27.0133 62.9957 26.4333 62.5023 26.02C62.0223 25.5933 61.4023 25.38 60.6423 25.38C59.9357 25.38 59.3223 25.6 58.8023 26.04C58.2957 26.4667 58.0023 27.04 57.9223 27.76ZM73.9658 34H71.5858L76.8258 20H79.5658L84.7858 34H82.3258L81.0058 30.54H75.2658L73.9658 34ZM78.1258 22.48L75.9058 28.58H80.3658L78.1258 22.48ZM91.4014 23.64C92.6281 23.64 93.6214 24.0133 94.3814 24.76C95.1414 25.5067 95.5214 26.6867 95.5214 28.3V34H93.3414V28.48C93.3414 26.4933 92.5281 25.5 90.9014 25.5C90.0481 25.5 89.3747 25.8 88.8814 26.4C88.4014 26.9867 88.1614 27.8 88.1614 28.84V34H86.0014V23.76H87.8814L88.1214 25.1C88.8947 24.1267 89.9881 23.64 91.4014 23.64ZM106.846 32.12H107.286V34H106.146C104.892 34 104.266 33.4533 104.266 32.36C103.492 33.5333 102.366 34.12 100.886 34.12C99.7391 34.12 98.8191 33.8533 98.1258 33.32C97.4324 32.7867 97.0858 32.0533 97.0858 31.12C97.0858 30.0667 97.4591 29.26 98.2058 28.7C98.9524 28.1267 100.039 27.84 101.466 27.84H104.046V27.22C104.046 26.6467 103.846 26.2 103.446 25.88C103.059 25.5467 102.512 25.38 101.806 25.38C101.179 25.38 100.659 25.52 100.246 25.8C99.8324 26.0667 99.5858 26.4267 99.5058 26.88H97.3858C97.4924 25.88 97.9458 25.0933 98.7458 24.52C99.5591 23.9333 100.612 23.64 101.906 23.64C103.279 23.64 104.332 23.96 105.066 24.6C105.812 25.24 106.186 26.16 106.186 27.36V31.46C106.186 31.7133 106.239 31.8867 106.346 31.98C106.452 32.0733 106.619 32.12 106.846 32.12ZM104.046 29.8V29.44H101.366C99.9791 29.44 99.2858 29.9533 99.2858 30.98C99.2858 31.42 99.4524 31.7733 99.7858 32.04C100.132 32.3067 100.599 32.44 101.186 32.44C102.079 32.44 102.772 32.2 103.266 31.72C103.772 31.24 104.032 30.6 104.046 29.8ZM108.462 34V20H110.622V34H108.462ZM115.7 34.06L111.72 23.76H114.02L116.88 31.54L119.66 23.76H121.96L117.32 35.6C116.973 36.5067 116.633 37.1333 116.3 37.48C115.966 37.8267 115.446 38 114.74 38H112.42V36.1H113.94C114.353 36.1 114.64 36.0333 114.8 35.9C114.973 35.7667 115.14 35.4867 115.3 35.06L115.7 34.06ZM124.007 31.22V25.66H122.227V23.76H124.007V20.9H126.187V23.76H128.687V25.66H126.187V31C126.187 31.4 126.267 31.6867 126.427 31.86C126.587 32.02 126.874 32.1 127.287 32.1H128.807V34H126.807C125.834 34 125.12 33.7733 124.667 33.32C124.227 32.8667 124.007 32.1667 124.007 31.22ZM132.221 21.96C131.968 22.2 131.654 22.32 131.281 22.32C130.908 22.32 130.594 22.2 130.341 21.96C130.088 21.7067 129.961 21.3933 129.961 21.02C129.961 20.6467 130.088 20.34 130.341 20.1C130.594 19.8467 130.908 19.72 131.281 19.72C131.654 19.72 131.968 19.8467 132.221 20.1C132.474 20.34 132.601 20.6467 132.601 21.02C132.601 21.3933 132.474 21.7067 132.221 21.96ZM130.181 34V23.76H132.341V34H130.181ZM139.158 34.12C137.612 34.12 136.378 33.6533 135.458 32.72C134.538 31.7733 134.078 30.5 134.078 28.9C134.078 27.3133 134.545 26.04 135.478 25.08C136.425 24.12 137.672 23.64 139.218 23.64C140.512 23.64 141.565 23.9733 142.378 24.64C143.192 25.3067 143.705 26.2333 143.918 27.42H141.658C141.512 26.8067 141.225 26.3333 140.798 26C140.372 25.6533 139.832 25.48 139.178 25.48C138.312 25.48 137.612 25.8 137.078 26.44C136.558 27.0667 136.298 27.8867 136.298 28.9C136.298 29.9 136.558 30.7133 137.078 31.34C137.612 31.9667 138.312 32.28 139.178 32.28C139.832 32.28 140.372 32.1067 140.798 31.76C141.225 31.4133 141.505 30.94 141.638 30.34H143.918C143.718 31.5133 143.198 32.44 142.358 33.12C141.518 33.7867 140.452 34.12 139.158 34.12ZM145.132 30.62H147.252C147.292 31.1667 147.538 31.6067 147.992 31.94C148.445 32.2733 149.052 32.44 149.812 32.44C150.478 32.44 151.012 32.32 151.412 32.08C151.825 31.84 152.032 31.5133 152.032 31.1C152.032 30.8467 151.985 30.64 151.892 30.48C151.798 30.3067 151.625 30.1733 151.372 30.08C151.132 29.9867 150.905 29.92 150.692 29.88C150.478 29.84 150.138 29.7933 149.672 29.74C149.605 29.7267 149.552 29.72 149.512 29.72C148.845 29.64 148.292 29.5467 147.852 29.44C147.412 29.3333 146.985 29.18 146.572 28.98C146.158 28.7667 145.845 28.48 145.632 28.12C145.432 27.76 145.332 27.3267 145.332 26.82C145.332 25.86 145.718 25.0867 146.492 24.5C147.278 23.9133 148.292 23.6267 149.532 23.64C150.812 23.64 151.852 23.9267 152.652 24.5C153.465 25.0733 153.905 25.8733 153.972 26.9H151.852C151.785 26.42 151.545 26.0333 151.132 25.74C150.718 25.4467 150.198 25.3 149.572 25.3C148.932 25.3 148.418 25.42 148.032 25.66C147.645 25.9 147.452 26.2267 147.452 26.64C147.452 26.8 147.472 26.94 147.512 27.06C147.565 27.1667 147.652 27.2667 147.772 27.36C147.892 27.44 148.005 27.5067 148.112 27.56C148.232 27.6133 148.405 27.66 148.632 27.7C148.858 27.74 149.052 27.7733 149.212 27.8C149.372 27.8133 149.605 27.84 149.912 27.88C150.445 27.9467 150.892 28.02 151.252 28.1C151.625 28.1667 152.005 28.2733 152.392 28.42C152.792 28.5667 153.105 28.7467 153.332 28.96C153.572 29.16 153.765 29.4267 153.912 29.76C154.072 30.0933 154.152 30.48 154.152 30.92C154.152 31.88 153.745 32.6533 152.932 33.24C152.118 33.8267 151.078 34.12 149.812 34.12C148.425 34.12 147.305 33.8133 146.452 33.2C145.598 32.5733 145.158 31.7133 145.132 30.62Z" fill="#252C1E"/>
<path d="M296.6 28.565H297.95C298.055 29.975 299.15 30.905 300.755 30.905C302.165 30.905 303.17 30.26 303.17 29.12C303.17 27.815 301.88 27.545 300.29 27.275C298.595 26.99 296.855 26.435 296.855 24.395C296.855 22.61 298.31 21.41 300.44 21.41C302.78 21.41 304.22 22.715 304.34 24.605H302.99C302.84 23.39 301.865 22.595 300.44 22.595C299.075 22.595 298.16 23.195 298.16 24.32C298.16 25.58 299.435 25.835 301.01 26.105C302.72 26.39 304.475 26.96 304.475 29C304.475 30.815 302.945 32.09 300.74 32.09C298.175 32.09 296.675 30.635 296.6 28.565ZM309.476 32.09C307.241 32.09 305.681 30.5 305.681 28.175C305.681 25.85 307.241 24.26 309.476 24.26C311.711 24.26 313.271 25.85 313.271 28.175C313.271 30.5 311.711 32.09 309.476 32.09ZM309.476 30.995C310.991 30.995 312.011 29.81 312.011 28.175C312.011 26.54 310.991 25.355 309.476 25.355C307.961 25.355 306.941 26.54 306.941 28.175C306.941 29.81 307.961 30.995 309.476 30.995ZM320.037 28.175V24.35H321.267V32H320.202L320.037 30.98C319.587 31.55 318.852 32.09 317.592 32.09C315.912 32.09 314.577 31.145 314.577 28.61V24.35H315.807V28.535C315.807 30.125 316.527 30.965 317.802 30.965C319.197 30.965 320.037 29.9 320.037 28.175ZM326.694 24.26C328.419 24.26 329.784 25.205 329.784 27.74V32H328.554V27.815C328.554 26.225 327.819 25.385 326.484 25.385C325.044 25.385 324.174 26.45 324.174 28.175V32H322.944V24.35H324.009L324.174 25.385C324.624 24.8 325.404 24.26 326.694 24.26ZM337.294 25.52V21.5H338.524V32H337.459L337.294 30.77C336.784 31.475 335.959 32.09 334.669 32.09C332.554 32.09 330.994 30.665 330.994 28.175C330.994 25.835 332.554 24.26 334.669 24.26C335.959 24.26 336.829 24.785 337.294 25.52ZM334.789 30.995C336.289 30.995 337.309 29.84 337.309 28.205C337.309 26.525 336.289 25.355 334.789 25.355C333.274 25.355 332.254 26.51 332.254 28.175C332.254 29.84 333.274 30.995 334.789 30.995ZM344.8 32H343.45L347.455 21.5H349L352.99 32H351.595L350.485 29.165H345.91L344.8 32ZM348.19 22.925L346.3 27.98H350.095L348.19 22.925ZM357.748 24.26C359.473 24.26 360.838 25.205 360.838 27.74V32H359.608V27.815C359.608 26.225 358.873 25.385 357.538 25.385C356.098 25.385 355.228 26.45 355.228 28.175V32H353.998V24.35H355.063L355.228 25.385C355.678 24.8 356.458 24.26 357.748 24.26ZM369.171 30.875H369.561V32H368.886C367.866 32 367.521 31.565 367.506 30.815C367.026 31.505 366.261 32.09 364.941 32.09C363.261 32.09 362.121 31.25 362.121 29.855C362.121 28.325 363.186 27.47 365.196 27.47H367.446V26.945C367.446 25.955 366.741 25.355 365.541 25.355C364.461 25.355 363.741 25.865 363.591 26.645H362.361C362.541 25.145 363.756 24.26 365.601 24.26C367.551 24.26 368.676 25.235 368.676 27.02V30.365C368.676 30.77 368.826 30.875 369.171 30.875ZM367.446 28.88V28.505H365.076C363.981 28.505 363.366 28.91 363.366 29.78C363.366 30.53 364.011 31.04 365.031 31.04C366.561 31.04 367.446 30.155 367.446 28.88ZM370.507 32V21.5H371.737V32H370.507ZM375.642 32.045L372.657 24.35H373.962L376.317 30.455L378.597 24.35H379.902L376.377 33.29C375.897 34.52 375.612 35 374.532 35H373.062V33.875H374.157C374.862 33.875 374.982 33.695 375.267 32.975L375.642 32.045ZM380.373 29.48H381.633C381.678 30.38 382.473 31.04 383.748 31.04C384.828 31.04 385.593 30.575 385.593 29.87C385.593 28.91 384.753 28.835 383.613 28.7C381.903 28.49 380.538 28.145 380.538 26.555C380.538 25.16 381.813 24.245 383.538 24.26C385.278 24.275 386.538 25.085 386.658 26.675H385.398C385.308 25.895 384.588 25.31 383.538 25.31C382.473 25.31 381.753 25.76 381.753 26.465C381.753 27.305 382.563 27.41 383.673 27.545C385.413 27.755 386.808 28.085 386.808 29.78C386.808 31.205 385.443 32.09 383.748 32.09C381.768 32.09 380.403 31.16 380.373 29.48ZM388.803 23.06C388.353 23.06 388.008 22.73 388.008 22.265C388.008 21.8 388.353 21.47 388.803 21.47C389.253 21.47 389.598 21.8 389.598 22.265C389.598 22.73 389.253 23.06 388.803 23.06ZM388.173 32V24.35H389.403V32H388.173ZM390.773 29.48H392.033C392.078 30.38 392.873 31.04 394.148 31.04C395.228 31.04 395.993 30.575 395.993 29.87C395.993 28.91 395.153 28.835 394.013 28.7C392.303 28.49 390.938 28.145 390.938 26.555C390.938 25.16 392.213 24.245 393.938 24.26C395.678 24.275 396.938 25.085 397.058 26.675H395.798C395.708 25.895 394.988 25.31 393.938 25.31C392.873 25.31 392.153 25.76 392.153 26.465C392.153 27.305 392.963 27.41 394.073 27.545C395.813 27.755 397.208 28.085 397.208 29.78C397.208 31.205 395.843 32.09 394.148 32.09C392.168 32.09 390.803 31.16 390.773 29.48Z" fill="#7C8078"/>
<path d="M193.11 32H187.02V21.5H188.325V30.8H193.11V32ZM200.856 30.875H201.246V32H200.571C199.551 32 199.206 31.565 199.191 30.815C198.711 31.505 197.946 32.09 196.626 32.09C194.946 32.09 193.806 31.25 193.806 29.855C193.806 28.325 194.871 27.47 196.881 27.47H199.131V26.945C199.131 25.955 198.426 25.355 197.226 25.355C196.146 25.355 195.426 25.865 195.276 26.645H194.046C194.226 25.145 195.441 24.26 197.286 24.26C199.236 24.26 200.361 25.235 200.361 27.02V30.365C200.361 30.77 200.511 30.875 200.856 30.875ZM199.131 28.88V28.505H196.761C195.666 28.505 195.051 28.91 195.051 29.78C195.051 30.53 195.696 31.04 196.716 31.04C198.246 31.04 199.131 30.155 199.131 28.88ZM201.877 29.48H203.137C203.182 30.38 203.977 31.04 205.252 31.04C206.332 31.04 207.097 30.575 207.097 29.87C207.097 28.91 206.257 28.835 205.117 28.7C203.407 28.49 202.042 28.145 202.042 26.555C202.042 25.16 203.317 24.245 205.042 24.26C206.782 24.275 208.042 25.085 208.162 26.675H206.902C206.812 25.895 206.092 25.31 205.042 25.31C203.977 25.31 203.257 25.76 203.257 26.465C203.257 27.305 204.067 27.41 205.177 27.545C206.917 27.755 208.312 28.085 208.312 29.78C208.312 31.205 206.947 32.09 205.252 32.09C203.272 32.09 201.907 31.16 201.877 29.48ZM210.247 30.005V25.475H208.867V24.35H210.247V22.205H211.477V24.35H213.457V25.475H211.477V29.99C211.477 30.635 211.702 30.875 212.362 30.875H213.577V32H212.242C210.772 32 210.247 31.355 210.247 30.005ZM219.244 32H217.894L221.899 21.5H223.444L227.434 32H226.039L224.929 29.165H220.354L219.244 32ZM222.634 22.925L220.744 27.98H224.539L222.634 22.925ZM233.548 28.175V24.35H234.778V32H233.713L233.548 30.98C233.098 31.55 232.363 32.09 231.103 32.09C229.423 32.09 228.088 31.145 228.088 28.61V24.35H229.318V28.535C229.318 30.125 230.038 30.965 231.313 30.965C232.708 30.965 233.548 29.9 233.548 28.175ZM242.484 25.52V21.5H243.714V32H242.649L242.484 30.77C241.974 31.475 241.149 32.09 239.859 32.09C237.744 32.09 236.184 30.665 236.184 28.175C236.184 25.835 237.744 24.26 239.859 24.26C241.149 24.26 242.019 24.785 242.484 25.52ZM239.979 30.995C241.479 30.995 242.499 29.84 242.499 28.205C242.499 26.525 241.479 25.355 239.979 25.355C238.464 25.355 237.444 26.51 237.444 28.175C237.444 29.84 238.464 30.995 239.979 30.995ZM246.02 23.06C245.57 23.06 245.225 22.73 245.225 22.265C245.225 21.8 245.57 21.47 246.02 21.47C246.47 21.47 246.815 21.8 246.815 22.265C246.815 22.73 246.47 23.06 246.02 23.06ZM245.39 32V24.35H246.62V32H245.39ZM248.875 30.005V25.475H247.495V24.35H248.875V22.205H250.105V24.35H252.085V25.475H250.105V29.99C250.105 30.635 250.33 30.875 250.99 30.875H252.205V32H250.87C249.4 32 248.875 31.355 248.875 30.005Z" fill="#7C8078"/>
<path d="M438.02 32V21.5H444.71V22.7H439.325V26.06H443.81V27.26H439.325V30.8H444.905V32H438.02ZM445.38 32L448.29 28.07L445.575 24.35H447.045L449.07 27.185L451.125 24.35H452.52L449.79 28.07L452.715 32H451.245L449.01 28.925L446.775 32H445.38ZM456.7 32.09C454.465 32.09 452.995 30.575 452.995 28.19C452.995 25.85 454.51 24.26 456.73 24.26C458.605 24.26 459.79 25.31 460.105 26.99H458.815C458.59 25.97 457.84 25.355 456.715 25.355C455.245 25.355 454.255 26.525 454.255 28.19C454.255 29.855 455.245 30.995 456.715 30.995C457.81 30.995 458.56 30.365 458.8 29.39H460.105C459.805 31.04 458.56 32.09 456.7 32.09ZM464.993 24.35H465.338V25.55H464.723C463.118 25.55 462.683 26.885 462.683 28.1V32H461.453V24.35H462.518L462.683 25.505C463.043 24.92 463.628 24.35 464.993 24.35ZM469.49 32.09C467.195 32.09 465.695 30.515 465.695 28.175C465.695 25.85 467.165 24.26 469.325 24.26C471.485 24.26 472.895 25.625 472.955 27.89C472.955 28.055 472.94 28.235 472.925 28.415H466.985V28.52C467.03 29.975 467.945 30.995 469.4 30.995C470.48 30.995 471.32 30.425 471.575 29.435H472.82C472.52 30.965 471.26 32.09 469.49 32.09ZM467.06 27.395H471.635C471.515 26.075 470.615 25.34 469.34 25.34C468.215 25.34 467.18 26.15 467.06 27.395ZM474.841 30.005V25.475H473.461V24.35H474.841V22.205H476.071V24.35H478.051V25.475H476.071V29.99C476.071 30.635 476.296 30.875 476.956 30.875H478.171V32H476.836C475.366 32 474.841 31.355 474.841 30.005ZM485.884 30.875H486.274V32H485.599C484.579 32 484.234 31.565 484.219 30.815C483.739 31.505 482.974 32.09 481.654 32.09C479.974 32.09 478.834 31.25 478.834 29.855C478.834 28.325 479.899 27.47 481.909 27.47H484.159V26.945C484.159 25.955 483.454 25.355 482.254 25.355C481.174 25.355 480.454 25.865 480.304 26.645H479.074C479.254 25.145 480.469 24.26 482.314 24.26C484.264 24.26 485.389 25.235 485.389 27.02V30.365C485.389 30.77 485.539 30.875 485.884 30.875ZM484.159 28.88V28.505H481.789C480.694 28.505 480.079 28.91 480.079 29.78C480.079 30.53 480.724 31.04 481.744 31.04C483.274 31.04 484.159 30.155 484.159 28.88ZM491.821 32H490.471L494.476 21.5H496.021L500.011 32H498.616L497.506 29.165H492.931L491.821 32ZM495.211 22.925L493.321 27.98H497.116L495.211 22.925ZM504.769 24.26C506.494 24.26 507.859 25.205 507.859 27.74V32H506.629V27.815C506.629 26.225 505.894 25.385 504.559 25.385C503.119 25.385 502.249 26.45 502.249 28.175V32H501.019V24.35H502.084L502.249 25.385C502.699 24.8 503.479 24.26 504.769 24.26ZM516.192 30.875H516.582V32H515.907C514.887 32 514.542 31.565 514.527 30.815C514.047 31.505 513.282 32.09 511.962 32.09C510.282 32.09 509.142 31.25 509.142 29.855C509.142 28.325 510.207 27.47 512.217 27.47H514.467V26.945C514.467 25.955 513.762 25.355 512.562 25.355C511.482 25.355 510.762 25.865 510.612 26.645H509.382C509.562 25.145 510.777 24.26 512.622 24.26C514.572 24.26 515.697 25.235 515.697 27.02V30.365C515.697 30.77 515.847 30.875 516.192 30.875ZM514.467 28.88V28.505H512.097C511.002 28.505 510.387 28.91 510.387 29.78C510.387 30.53 511.032 31.04 512.052 31.04C513.582 31.04 514.467 30.155 514.467 28.88ZM517.528 32V21.5H518.758V32H517.528ZM522.663 32.045L519.678 24.35H520.983L523.338 30.455L525.618 24.35H526.923L523.398 33.29C522.918 34.52 522.633 35 521.553 35H520.083V33.875H521.178C521.883 33.875 522.003 33.695 522.288 32.975L522.663 32.045ZM527.393 29.48H528.653C528.698 30.38 529.493 31.04 530.768 31.04C531.848 31.04 532.613 30.575 532.613 29.87C532.613 28.91 531.773 28.835 530.633 28.7C528.923 28.49 527.558 28.145 527.558 26.555C527.558 25.16 528.833 24.245 530.558 24.26C532.298 24.275 533.558 25.085 533.678 26.675H532.418C532.328 25.895 531.608 25.31 530.558 25.31C529.493 25.31 528.773 25.76 528.773 26.465C528.773 27.305 529.583 27.41 530.693 27.545C532.433 27.755 533.828 28.085 533.828 29.78C533.828 31.205 532.463 32.09 530.768 32.09C528.788 32.09 527.423 31.16 527.393 29.48ZM535.824 23.06C535.374 23.06 535.029 22.73 535.029 22.265C535.029 21.8 535.374 21.47 535.824 21.47C536.274 21.47 536.619 21.8 536.619 22.265C536.619 22.73 536.274 23.06 535.824 23.06ZM535.194 32V24.35H536.424V32H535.194ZM537.794 29.48H539.054C539.099 30.38 539.894 31.04 541.169 31.04C542.249 31.04 543.014 30.575 543.014 29.87C543.014 28.91 542.174 28.835 541.034 28.7C539.324 28.49 537.959 28.145 537.959 26.555C537.959 25.16 539.234 24.245 540.959 24.26C542.699 24.275 543.959 25.085 544.079 26.675H542.819C542.729 25.895 542.009 25.31 540.959 25.31C539.894 25.31 539.174 25.76 539.174 26.465C539.174 27.305 539.984 27.41 541.094 27.545C542.834 27.755 544.229 28.085 544.229 29.78C544.229 31.205 542.864 32.09 541.169 32.09C539.189 32.09 537.824 31.16 537.794 29.48Z" fill="#7C8078"/>
<path d="M32.698 169L28.162 156.4H29.818L33.67 167.146L37.504 156.4H39.124L34.588 169H32.698ZM41.0492 158.272C40.5092 158.272 40.0952 157.876 40.0952 157.318C40.0952 156.76 40.5092 156.364 41.0492 156.364C41.5892 156.364 42.0032 156.76 42.0032 157.318C42.0032 157.876 41.5892 158.272 41.0492 158.272ZM40.2932 169V159.82H41.7692V169H40.2932ZM48.0212 169.108C45.2672 169.108 43.4672 167.218 43.4672 164.41C43.4672 161.62 45.2312 159.712 47.8232 159.712C50.4152 159.712 52.1072 161.35 52.1792 164.068C52.1792 164.266 52.1612 164.482 52.1432 164.698H45.0152V164.824C45.0692 166.57 46.1672 167.794 47.9132 167.794C49.2092 167.794 50.2172 167.11 50.5232 165.922H52.0172C51.6572 167.758 50.1452 169.108 48.0212 169.108ZM45.1052 163.474H50.5952C50.4512 161.89 49.3712 161.008 47.8412 161.008C46.4912 161.008 45.2492 161.98 45.1052 163.474ZM55.6706 169L52.7006 159.82H54.2486L56.5346 167.29L58.9466 159.82H60.3146L62.6006 167.29L64.9946 159.82H66.4886L63.4286 169H61.8086L59.5946 162.178L57.2906 169H55.6706ZM73.1657 169H71.5457L76.3517 156.4H78.2057L82.9937 169H81.3197L79.9877 165.598H74.4977L73.1657 169ZM77.2337 158.11L74.9657 164.176H79.5197L77.2337 158.11ZM84.4193 169V156.4H85.9853V169H84.4193ZM93.7321 169H92.1121L96.9181 156.4H98.7721L103.56 169H101.886L100.554 165.598H95.0641L93.7321 169ZM97.8001 158.11L95.5321 164.176H100.086L97.8001 158.11ZM109.27 159.712C111.34 159.712 112.978 160.846 112.978 163.888V169H111.502V163.978C111.502 162.07 110.62 161.062 109.018 161.062C107.29 161.062 106.246 162.34 106.246 164.41V169H104.77V159.82H106.048L106.246 161.062C106.786 160.36 107.722 159.712 109.27 159.712ZM122.978 167.65H123.446V169H122.636C121.412 169 120.998 168.478 120.98 167.578C120.404 168.406 119.486 169.108 117.902 169.108C115.886 169.108 114.518 168.1 114.518 166.426C114.518 164.59 115.796 163.564 118.208 163.564H120.908V162.934C120.908 161.746 120.062 161.026 118.622 161.026C117.326 161.026 116.462 161.638 116.282 162.574H114.806C115.022 160.774 116.48 159.712 118.694 159.712C121.034 159.712 122.384 160.882 122.384 163.024V167.038C122.384 167.524 122.564 167.65 122.978 167.65ZM120.908 165.256V164.806H118.064C116.75 164.806 116.012 165.292 116.012 166.336C116.012 167.236 116.786 167.848 118.01 167.848C119.846 167.848 120.908 166.786 120.908 165.256ZM124.58 169V156.4H126.056V169H124.58ZM130.742 169.054L127.16 159.82H128.726L131.552 167.146L134.288 159.82H135.854L131.624 170.548C131.048 172.024 130.706 172.6 129.41 172.6H127.646V171.25H128.96C129.806 171.25 129.95 171.034 130.292 170.17L130.742 169.054ZM136.419 165.976H137.931C137.985 167.056 138.939 167.848 140.469 167.848C141.765 167.848 142.683 167.29 142.683 166.444C142.683 165.292 141.675 165.202 140.307 165.04C138.255 164.788 136.617 164.374 136.617 162.466C136.617 160.792 138.147 159.694 140.217 159.712C142.305 159.73 143.817 160.702 143.961 162.61H142.449C142.341 161.674 141.477 160.972 140.217 160.972C138.939 160.972 138.075 161.512 138.075 162.358C138.075 163.366 139.047 163.492 140.379 163.654C142.467 163.906 144.141 164.302 144.141 166.336C144.141 168.046 142.503 169.108 140.469 169.108C138.093 169.108 136.455 167.992 136.419 165.976ZM146.535 158.272C145.995 158.272 145.581 157.876 145.581 157.318C145.581 156.76 145.995 156.364 146.535 156.364C147.075 156.364 147.489 156.76 147.489 157.318C147.489 157.876 147.075 158.272 146.535 158.272ZM145.779 169V159.82H147.255V169H145.779ZM148.9 165.976H150.412C150.466 167.056 151.42 167.848 152.95 167.848C154.246 167.848 155.164 167.29 155.164 166.444C155.164 165.292 154.156 165.202 152.788 165.04C150.736 164.788 149.098 164.374 149.098 162.466C149.098 160.792 150.628 159.694 152.698 159.712C154.786 159.73 156.298 160.702 156.442 162.61H154.93C154.822 161.674 153.958 160.972 152.698 160.972C151.42 160.972 150.556 161.512 150.556 162.358C150.556 163.366 151.528 163.492 152.86 163.654C154.948 163.906 156.622 164.302 156.622 166.336C156.622 168.046 154.984 169.108 152.95 169.108C150.574 169.108 148.936 167.992 148.9 165.976Z" fill="white"/>
<path d="M550.314 212.998L550.785 213.651L556.233 206.097L550.785 198.543L550.314 199.196L554.955 205.631H538.947V206.563H554.955L550.314 212.998Z" fill="white"/>
<rect x="1" y="49" width="569" height="30.7695" fill="#F9FBFC"/>
<path d="M182.72 63.99V63.51C182.72 60.525 184.235 58.41 186.515 58.41C188.765 58.41 190.295 60.525 190.295 63.51V63.99C190.295 67.065 188.765 69.09 186.515 69.09C184.235 69.09 182.72 67.065 182.72 63.99ZM189.5 63.96V63.54C189.5 60.87 188.315 59.13 186.515 59.13C184.7 59.13 183.515 60.87 183.515 63.54V63.96C183.515 66.63 184.7 68.37 186.515 68.37C188.315 68.37 189.5 66.63 189.5 63.96ZM196.441 63.555C197.656 63.735 198.691 64.485 198.691 66.12C198.691 67.86 197.221 69.09 195.031 69.09C192.841 69.09 191.401 67.905 191.401 65.925H192.181C192.181 67.47 193.381 68.385 195.076 68.385C196.696 68.385 197.896 67.44 197.896 66.075C197.896 64.725 196.861 63.975 195.031 63.975H194.161V63.3H194.986C196.726 63.3 197.611 62.37 197.611 61.14C197.611 59.925 196.591 59.115 195.091 59.115C193.546 59.115 192.436 59.985 192.421 61.365H191.641C191.656 59.565 193.096 58.41 195.091 58.41C197.131 58.41 198.406 59.505 198.406 61.11C198.406 62.475 197.626 63.315 196.441 63.555ZM204.774 58.29L200.784 69H199.494L203.484 58.29H204.774ZM205.645 63.99V63.51C205.645 60.525 207.16 58.41 209.44 58.41C211.69 58.41 213.22 60.525 213.22 63.51V63.99C213.22 67.065 211.69 69.09 209.44 69.09C207.16 69.09 205.645 67.065 205.645 63.99ZM212.425 63.96V63.54C212.425 60.87 211.24 59.13 209.44 59.13C207.625 59.13 206.44 60.87 206.44 63.54V63.96C206.44 66.63 207.625 68.37 209.44 68.37C211.24 68.37 212.425 66.63 212.425 63.96ZM216.454 59.835V58.5H217.219V69H216.439V61.095C216.304 61.26 216.079 61.35 215.764 61.35H213.964V60.645H215.764C216.229 60.645 216.454 60.315 216.454 59.835ZM223.758 58.29L219.768 69H218.478L222.468 58.29H223.758ZM224.224 69V68.325L228.304 64.62C229.294 63.72 230.299 62.805 230.299 61.485C230.299 60 229.279 59.115 227.689 59.115C226.114 59.115 225.109 60.12 225.109 61.755V61.965H224.329V61.71C224.329 59.73 225.649 58.41 227.689 58.41C229.819 58.41 231.094 59.595 231.094 61.44C231.094 63.03 230.014 64.035 228.799 65.13L225.304 68.28H231.229V69H224.224ZM232.422 63.99V63.51C232.422 60.525 233.937 58.41 236.217 58.41C238.467 58.41 239.997 60.525 239.997 63.51V63.99C239.997 67.065 238.467 69.09 236.217 69.09C233.937 69.09 232.422 67.065 232.422 63.99ZM239.202 63.96V63.54C239.202 60.87 238.017 59.13 236.217 59.13C234.402 59.13 233.217 60.87 233.217 63.54V63.96C233.217 66.63 234.402 68.37 236.217 68.37C238.017 68.37 239.202 66.63 239.202 63.96ZM241.026 69V68.325L245.106 64.62C246.096 63.72 247.101 62.805 247.101 61.485C247.101 60 246.081 59.115 244.491 59.115C242.916 59.115 241.911 60.12 241.911 61.755V61.965H241.131V61.71C241.131 59.73 242.451 58.41 244.491 58.41C246.621 58.41 247.896 59.595 247.896 61.44C247.896 63.03 246.816 64.035 245.601 65.13L242.106 68.28H248.031V69H241.026ZM252.899 62.04C254.939 62.04 256.304 63.495 256.304 65.535C256.304 67.845 254.624 69.075 252.734 69.075C250.514 69.075 249.254 67.605 249.134 65.865H249.914C250.034 67.23 251.024 68.37 252.734 68.37C254.174 68.37 255.509 67.41 255.509 65.55C255.509 63.93 254.474 62.745 252.794 62.745C251.834 62.745 250.574 63.165 250.124 64.395L249.374 64.365L249.749 58.5H255.659V59.22H250.454L250.169 63.315C250.799 62.43 251.789 62.04 252.899 62.04Z" fill="#505050"/>
<path d="M182.72 95.99V95.51C182.72 92.525 184.235 90.41 186.515 90.41C188.765 90.41 190.295 92.525 190.295 95.51V95.99C190.295 99.065 188.765 101.09 186.515 101.09C184.235 101.09 182.72 99.065 182.72 95.99ZM189.5 95.96V95.54C189.5 92.87 188.315 91.13 186.515 91.13C184.7 91.13 183.515 92.87 183.515 95.54V95.96C183.515 98.63 184.7 100.37 186.515 100.37C188.315 100.37 189.5 98.63 189.5 95.96ZM196.441 95.555C197.656 95.735 198.691 96.485 198.691 98.12C198.691 99.86 197.221 101.09 195.031 101.09C192.841 101.09 191.401 99.905 191.401 97.925H192.181C192.181 99.47 193.381 100.385 195.076 100.385C196.696 100.385 197.896 99.44 197.896 98.075C197.896 96.725 196.861 95.975 195.031 95.975H194.161V95.3H194.986C196.726 95.3 197.611 94.37 197.611 93.14C197.611 91.925 196.591 91.115 195.091 91.115C193.546 91.115 192.436 91.985 192.421 93.365H191.641C191.656 91.565 193.096 90.41 195.091 90.41C197.131 90.41 198.406 91.505 198.406 93.11C198.406 94.475 197.626 95.315 196.441 95.555ZM204.774 90.29L200.784 101H199.494L203.484 90.29H204.774ZM205.645 95.99V95.51C205.645 92.525 207.16 90.41 209.44 90.41C211.69 90.41 213.22 92.525 213.22 95.51V95.99C213.22 99.065 211.69 101.09 209.44 101.09C207.16 101.09 205.645 99.065 205.645 95.99ZM212.425 95.96V95.54C212.425 92.87 211.24 91.13 209.44 91.13C207.625 91.13 206.44 92.87 206.44 95.54V95.96C206.44 98.63 207.625 100.37 209.44 100.37C211.24 100.37 212.425 98.63 212.425 95.96ZM216.454 91.835V90.5H217.219V101H216.439V93.095C216.304 93.26 216.079 93.35 215.764 93.35H213.964V92.645H215.764C216.229 92.645 216.454 92.315 216.454 91.835ZM223.758 90.29L219.768 101H218.478L222.468 90.29H223.758ZM224.224 101V100.325L228.304 96.62C229.294 95.72 230.299 94.805 230.299 93.485C230.299 92 229.279 91.115 227.689 91.115C226.114 91.115 225.109 92.12 225.109 93.755V93.965H224.329V93.71C224.329 91.73 225.649 90.41 227.689 90.41C229.819 90.41 231.094 91.595 231.094 93.44C231.094 95.03 230.014 96.035 228.799 97.13L225.304 100.28H231.229V101H224.224ZM232.422 95.99V95.51C232.422 92.525 233.937 90.41 236.217 90.41C238.467 90.41 239.997 92.525 239.997 95.51V95.99C239.997 99.065 238.467 101.09 236.217 101.09C233.937 101.09 232.422 99.065 232.422 95.99ZM239.202 95.96V95.54C239.202 92.87 238.017 91.13 236.217 91.13C234.402 91.13 233.217 92.87 233.217 95.54V95.96C233.217 98.63 234.402 100.37 236.217 100.37C238.017 100.37 239.202 98.63 239.202 95.96ZM241.026 101V100.325L245.106 96.62C246.096 95.72 247.101 94.805 247.101 93.485C247.101 92 246.081 91.115 244.491 91.115C242.916 91.115 241.911 92.12 241.911 93.755V93.965H241.131V93.71C241.131 91.73 242.451 90.41 244.491 90.41C246.621 90.41 247.896 91.595 247.896 93.44C247.896 95.03 246.816 96.035 245.601 97.13L242.106 100.28H248.031V101H241.026ZM252.899 94.04C254.939 94.04 256.304 95.495 256.304 97.535C256.304 99.845 254.624 101.075 252.734 101.075C250.514 101.075 249.254 99.605 249.134 97.865H249.914C250.034 99.23 251.024 100.37 252.734 100.37C254.174 100.37 255.509 99.41 255.509 97.55C255.509 95.93 254.474 94.745 252.794 94.745C251.834 94.745 250.574 95.165 250.124 96.395L249.374 96.365L249.749 90.5H255.659V91.22H250.454L250.169 95.315C250.799 94.43 251.789 94.04 252.899 94.04Z" fill="black"/>
<path d="M20.585 59.0195V58.2695H28.31V58.8695L21.455 68.0195H28.445V68.7695H20.375V68.1695L27.215 59.0195H20.585ZM32.5657 68.8595C30.4207 68.8595 28.9207 67.2695 28.9207 64.9595C28.9207 62.6645 30.4207 61.0745 32.5657 61.0745C34.7107 61.0745 36.2257 62.6645 36.2257 64.9595C36.2257 67.2695 34.7107 68.8595 32.5657 68.8595ZM32.5657 68.1695C34.2607 68.1695 35.4307 66.8495 35.4307 64.9595C35.4307 63.0845 34.2607 61.7495 32.5657 61.7495C30.8707 61.7495 29.7007 63.0845 29.7007 64.9595C29.7007 66.8495 30.8707 68.1695 32.5657 68.1695ZM41.2557 61.0745C42.9807 61.0745 44.2557 62.1095 44.2557 64.5095V68.7695H43.4907V64.5395C43.4907 62.7395 42.6057 61.7795 41.1357 61.7795C39.5157 61.7795 38.5107 63.0395 38.5107 65.0195V68.7695H37.7457V61.1645H38.4057L38.5257 62.7845C38.9607 61.7945 39.8607 61.0745 41.2557 61.0745ZM49.1916 68.8595C47.0316 68.8595 45.5466 67.2995 45.5466 64.9145C45.5466 62.6645 46.9716 61.0745 49.0566 61.0745C51.0966 61.0745 52.4916 62.3945 52.5666 64.6595C52.5666 64.7495 52.5516 64.8695 52.5516 64.9745H46.3416V65.1095C46.3716 66.8795 47.4366 68.1695 49.1316 68.1695C50.3766 68.1695 51.3816 67.4345 51.6816 66.2495H52.4616C52.1316 67.7795 50.8566 68.8595 49.1916 68.8595ZM46.4016 64.3295H51.7416C51.6216 62.6645 50.5566 61.7495 49.0716 61.7495C47.6766 61.7495 46.5216 62.7845 46.4016 64.3295ZM67.7367 63.5195C67.7367 66.6245 65.7267 68.8595 62.8317 68.8595C59.9517 68.8595 57.9267 66.6245 57.9267 63.5195C57.9267 60.4145 59.9517 58.1795 62.8317 58.1795C65.7267 58.1795 67.7367 60.4145 67.7367 63.5195ZM58.7667 63.5195C58.7667 66.2045 60.4317 68.1095 62.8317 68.1095C65.2467 68.1095 66.9117 66.2045 66.9117 63.5195C66.9117 60.8345 65.2467 58.9295 62.8317 58.9295C60.4317 58.9295 58.7667 60.8345 58.7667 63.5195ZM72.867 61.0745C74.592 61.0745 75.867 62.1095 75.867 64.5095V68.7695H75.102V64.5395C75.102 62.7395 74.217 61.7795 72.747 61.7795C71.127 61.7795 70.122 63.0395 70.122 65.0195V68.7695H69.357V61.1645H70.017L70.137 62.7845C70.572 61.7945 71.472 61.0745 72.867 61.0745ZM80.803 68.8595C78.643 68.8595 77.158 67.2995 77.158 64.9145C77.158 62.6645 78.583 61.0745 80.668 61.0745C82.708 61.0745 84.103 62.3945 84.178 64.6595C84.178 64.7495 84.163 64.8695 84.163 64.9745H77.953V65.1095C77.983 66.8795 79.048 68.1695 80.743 68.1695C81.988 68.1695 82.993 67.4345 83.293 66.2495H84.073C83.743 67.7795 82.468 68.8595 80.803 68.8595ZM78.013 64.3295H83.353C83.233 62.6645 82.168 61.7495 80.683 61.7495C79.288 61.7495 78.133 62.7845 78.013 64.3295Z" fill="black"/>
<path d="M333.395 61.8095C335.435 61.8095 336.8 63.2645 336.8 65.3045C336.8 67.6145 335.12 68.8445 333.23 68.8445C331.01 68.8445 329.75 67.3745 329.63 65.6345H330.41C330.53 66.9995 331.52 68.1395 333.23 68.1395C334.67 68.1395 336.005 67.1795 336.005 65.3195C336.005 63.6995 334.97 62.5145 333.29 62.5145C332.33 62.5145 331.07 62.9345 330.62 64.1645L329.87 64.1345L330.245 58.2695H336.155V58.9895H330.95L330.665 63.0845C331.295 62.1995 332.285 61.8095 333.395 61.8095ZM340.245 57.9095C340.985 57.9095 341.545 58.2045 341.925 58.7945C342.305 59.3745 342.495 60.1945 342.495 61.2545C342.495 62.3145 342.31 63.1445 341.94 63.7445C341.58 64.3345 341.015 64.6295 340.245 64.6295C339.775 64.6295 339.375 64.4945 339.045 64.2245C338.715 63.9545 338.465 63.5695 338.295 63.0695C338.135 62.5595 338.055 61.9545 338.055 61.2545C338.055 60.1945 338.23 59.3745 338.58 58.7945C338.93 58.2045 339.485 57.9095 340.245 57.9095ZM340.245 58.8395C339.865 58.8395 339.585 59.0445 339.405 59.4545C339.235 59.8545 339.15 60.4545 339.15 61.2545C339.15 62.0545 339.235 62.6595 339.405 63.0695C339.585 63.4795 339.865 63.6845 340.245 63.6845C340.635 63.6845 340.925 63.4845 341.115 63.0845C341.305 62.6745 341.4 62.0645 341.4 61.2545C341.4 60.4545 341.305 59.8545 341.115 59.4545C340.925 59.0445 340.635 58.8395 340.245 58.8395ZM347.1 58.0595L341.16 68.7695H340.005L345.945 58.0595H347.1ZM346.8 62.1995C347.29 62.1995 347.7 62.3345 348.03 62.6045C348.36 62.8645 348.61 63.2445 348.78 63.7445C348.96 64.2345 349.05 64.8345 349.05 65.5445C349.05 66.6045 348.865 67.4345 348.495 68.0345C348.135 68.6245 347.57 68.9195 346.8 68.9195C346.33 68.9195 345.93 68.7845 345.6 68.5145C345.27 68.2445 345.02 67.8595 344.85 67.3595C344.69 66.8495 344.61 66.2445 344.61 65.5445C344.61 64.4845 344.785 63.6645 345.135 63.0845C345.485 62.4945 346.04 62.1995 346.8 62.1995ZM346.8 63.1445C346.42 63.1445 346.14 63.3445 345.96 63.7445C345.79 64.1445 345.705 64.7445 345.705 65.5445C345.705 66.3545 345.79 66.9645 345.96 67.3745C346.14 67.7745 346.42 67.9745 346.8 67.9745C347.19 67.9745 347.48 67.7745 347.67 67.3745C347.86 66.9745 347.955 66.3645 347.955 65.5445C347.955 64.7445 347.86 64.1445 347.67 63.7445C347.48 63.3445 347.19 63.1445 346.8 63.1445Z" fill="#528052"/>
<path d="M456.08 68.7695V58.2695H456.89V63.0395H462.965V58.2695H463.775V68.7695H462.965V63.7895H456.89V68.7695H456.08ZM469.118 68.8595C466.958 68.8595 465.473 67.2995 465.473 64.9145C465.473 62.6645 466.898 61.0745 468.983 61.0745C471.023 61.0745 472.418 62.3945 472.493 64.6595C472.493 64.7495 472.478 64.8695 472.478 64.9745H466.268V65.1095C466.298 66.8795 467.363 68.1695 469.058 68.1695C470.303 68.1695 471.308 67.4345 471.608 66.2495H472.388C472.058 67.7795 470.783 68.8595 469.118 68.8595ZM466.328 64.3295H471.668C471.548 62.6645 470.483 61.7495 468.998 61.7495C467.603 61.7495 466.448 62.7845 466.328 64.3295ZM480.695 68.0645H480.98V68.7695H480.53C479.63 68.7695 479.255 68.3795 479.285 67.4795V67.2095C478.82 68.1545 477.905 68.8595 476.36 68.8595C474.74 68.8595 473.675 68.0345 473.675 66.6845C473.675 65.2595 474.725 64.4195 476.675 64.4195H479.255V63.7595C479.255 62.4995 478.445 61.7495 477.02 61.7495C475.73 61.7495 474.92 62.3645 474.725 63.2945H473.96C474.155 61.9145 475.31 61.0745 477.05 61.0745C478.955 61.0745 480.02 62.0495 480.02 63.7895V67.3295C480.02 67.9145 480.245 68.0645 480.695 68.0645ZM479.255 65.6945V65.0795H476.615C475.205 65.0795 474.455 65.6345 474.455 66.6395C474.455 67.5845 475.205 68.1995 476.42 68.1995C478.22 68.1995 479.255 67.1495 479.255 65.6945ZM482.004 68.7695V58.2695H482.769V68.7695H482.004ZM485.137 66.9995V61.8695H483.697V61.1645H485.137V59.0345H485.902V61.1645H487.957V61.8695H485.902V66.9845C485.902 67.7645 486.187 68.0645 486.982 68.0645H488.032V68.7695H486.922C485.632 68.7695 485.137 68.2145 485.137 66.9995ZM492.706 61.0745C494.431 61.0745 495.706 62.1095 495.706 64.5095V68.7695H494.941V64.5395C494.941 62.7395 494.041 61.7795 492.586 61.7795C490.966 61.7795 489.961 63.0395 489.961 65.0195V68.7695H489.196V58.2695H489.961V62.9645C490.396 61.8695 491.281 61.0745 492.706 61.0745ZM499.445 68.7695L496.4 61.1645H497.225L499.865 67.7795L502.46 61.1645H503.285L499.64 70.1795C499.16 71.3795 498.92 71.7695 497.9 71.7695H496.73V71.0645H497.69C498.47 71.0645 498.605 70.8395 498.95 69.9995L499.445 68.7695Z" fill="black"/>
<rect x="1" y="80" width="569" height="30.7695" fill="white"/>
<path d="M182.72 94.99V94.51C182.72 91.525 184.235 89.41 186.515 89.41C188.765 89.41 190.295 91.525 190.295 94.51V94.99C190.295 98.065 188.765 100.09 186.515 100.09C184.235 100.09 182.72 98.065 182.72 94.99ZM189.5 94.96V94.54C189.5 91.87 188.315 90.13 186.515 90.13C184.7 90.13 183.515 91.87 183.515 94.54V94.96C183.515 97.63 184.7 99.37 186.515 99.37C188.315 99.37 189.5 97.63 189.5 94.96ZM191.324 100V99.325L195.404 95.62C196.394 94.72 197.399 93.805 197.399 92.485C197.399 91 196.379 90.115 194.789 90.115C193.214 90.115 192.209 91.12 192.209 92.755V92.965H191.429V92.71C191.429 90.73 192.749 89.41 194.789 89.41C196.919 89.41 198.194 90.595 198.194 92.44C198.194 94.03 197.114 95.035 195.899 96.13L192.404 99.28H198.329V100H191.324ZM204.232 89.29L200.242 100H198.952L202.942 89.29H204.232ZM206.903 90.835V89.5H207.668V100H206.888V92.095C206.753 92.26 206.528 92.35 206.213 92.35H204.413V91.645H206.213C206.678 91.645 206.903 91.315 206.903 90.835ZM209.497 94.99V94.51C209.497 91.525 211.012 89.41 213.292 89.41C215.542 89.41 217.072 91.525 217.072 94.51V94.99C217.072 98.065 215.542 100.09 213.292 100.09C211.012 100.09 209.497 98.065 209.497 94.99ZM216.277 94.96V94.54C216.277 91.87 215.092 90.13 213.292 90.13C211.477 90.13 210.292 91.87 210.292 94.54V94.96C210.292 97.63 211.477 99.37 213.292 99.37C215.092 99.37 216.277 97.63 216.277 94.96ZM223.216 89.29L219.226 100H217.936L221.926 89.29H223.216ZM223.682 100V99.325L227.762 95.62C228.752 94.72 229.757 93.805 229.757 92.485C229.757 91 228.737 90.115 227.147 90.115C225.572 90.115 224.567 91.12 224.567 92.755V92.965H223.787V92.71C223.787 90.73 225.107 89.41 227.147 89.41C229.277 89.41 230.552 90.595 230.552 92.44C230.552 94.03 229.472 95.035 228.257 96.13L224.762 99.28H230.687V100H223.682ZM231.88 94.99V94.51C231.88 91.525 233.395 89.41 235.675 89.41C237.925 89.41 239.455 91.525 239.455 94.51V94.99C239.455 98.065 237.925 100.09 235.675 100.09C233.395 100.09 231.88 98.065 231.88 94.99ZM238.66 94.96V94.54C238.66 91.87 237.475 90.13 235.675 90.13C233.86 90.13 232.675 91.87 232.675 94.54V94.96C232.675 97.63 233.86 99.37 235.675 99.37C237.475 99.37 238.66 97.63 238.66 94.96ZM240.484 100V99.325L244.564 95.62C245.554 94.72 246.559 93.805 246.559 92.485C246.559 91 245.539 90.115 243.949 90.115C242.374 90.115 241.369 91.12 241.369 92.755V92.965H240.589V92.71C240.589 90.73 241.909 89.41 243.949 89.41C246.079 89.41 247.354 90.595 247.354 92.44C247.354 94.03 246.274 95.035 245.059 96.13L241.564 99.28H247.489V100H240.484ZM252.357 93.04C254.397 93.04 255.762 94.495 255.762 96.535C255.762 98.845 254.082 100.075 252.192 100.075C249.972 100.075 248.712 98.605 248.592 96.865H249.372C249.492 98.23 250.482 99.37 252.192 99.37C253.632 99.37 254.967 98.41 254.967 96.55C254.967 94.93 253.932 93.745 252.252 93.745C251.292 93.745 250.032 94.165 249.582 95.395L248.832 95.365L249.207 89.5H255.117V90.22H249.912L249.627 94.315C250.257 93.43 251.247 93.04 252.357 93.04Z" fill="#505050"/>
<path d="M20.585 90.25V89.5H28.31V90.1L21.455 99.25H28.445V100H20.375V99.4L27.215 90.25H20.585ZM32.5657 100.09C30.4207 100.09 28.9207 98.5 28.9207 96.19C28.9207 93.895 30.4207 92.305 32.5657 92.305C34.7107 92.305 36.2257 93.895 36.2257 96.19C36.2257 98.5 34.7107 100.09 32.5657 100.09ZM32.5657 99.4C34.2607 99.4 35.4307 98.08 35.4307 96.19C35.4307 94.315 34.2607 92.98 32.5657 92.98C30.8707 92.98 29.7007 94.315 29.7007 96.19C29.7007 98.08 30.8707 99.4 32.5657 99.4ZM41.2557 92.305C42.9807 92.305 44.2557 93.34 44.2557 95.74V100H43.4907V95.77C43.4907 93.97 42.6057 93.01 41.1357 93.01C39.5157 93.01 38.5107 94.27 38.5107 96.25V100H37.7457V92.395H38.4057L38.5257 94.015C38.9607 93.025 39.8607 92.305 41.2557 92.305ZM49.1916 100.09C47.0316 100.09 45.5466 98.53 45.5466 96.145C45.5466 93.895 46.9716 92.305 49.0566 92.305C51.0966 92.305 52.4916 93.625 52.5666 95.89C52.5666 95.98 52.5516 96.1 52.5516 96.205H46.3416V96.34C46.3716 98.11 47.4366 99.4 49.1316 99.4C50.3766 99.4 51.3816 98.665 51.6816 97.48H52.4616C52.1316 99.01 50.8566 100.09 49.1916 100.09ZM46.4016 95.56H51.7416C51.6216 93.895 50.5566 92.98 49.0716 92.98C47.6766 92.98 46.5216 94.015 46.4016 95.56ZM57.5217 90.25V89.5H65.5317V90.25H61.9317V100H61.1217V90.25H57.5217ZM68.0087 100L65.4287 92.395H66.2387L68.4587 99.085L70.7537 92.395H71.4587L73.6337 99.085L75.9737 92.395H76.7537L74.0537 100H73.2287L71.0837 93.61L68.8337 100H68.0087ZM80.9495 100.09C78.8045 100.09 77.3045 98.5 77.3045 96.19C77.3045 93.895 78.8045 92.305 80.9495 92.305C83.0945 92.305 84.6095 93.895 84.6095 96.19C84.6095 98.5 83.0945 100.09 80.9495 100.09ZM80.9495 99.4C82.6445 99.4 83.8145 98.08 83.8145 96.19C83.8145 94.315 82.6445 92.98 80.9495 92.98C79.2545 92.98 78.0845 94.315 78.0845 96.19C78.0845 98.08 79.2545 99.4 80.9495 99.4Z" fill="black"/>
<path d="M331.52 90.6045V89.2695H332.285V99.7695H331.505V91.8645C331.37 92.0295 331.145 92.1195 330.83 92.1195H329.03V91.4145H330.83C331.295 91.4145 331.52 91.0845 331.52 90.6045ZM334.115 94.7595V94.2795C334.115 91.2945 335.63 89.1795 337.91 89.1795C340.16 89.1795 341.69 91.2945 341.69 94.2795V94.7595C341.69 97.8345 340.16 99.8595 337.91 99.8595C335.63 99.8595 334.115 97.8345 334.115 94.7595ZM340.895 94.7295V94.3095C340.895 91.6395 339.71 89.8995 337.91 89.8995C336.095 89.8995 334.91 91.6395 334.91 94.3095V94.7295C334.91 97.3995 336.095 99.1395 337.91 99.1395C339.71 99.1395 340.895 97.3995 340.895 94.7295ZM345.328 88.9095C346.068 88.9095 346.628 89.2045 347.008 89.7945C347.388 90.3745 347.578 91.1945 347.578 92.2545C347.578 93.3145 347.393 94.1445 347.023 94.7445C346.663 95.3345 346.098 95.6295 345.328 95.6295C344.858 95.6295 344.458 95.4945 344.128 95.2245C343.798 94.9545 343.548 94.5695 343.378 94.0695C343.218 93.5595 343.138 92.9545 343.138 92.2545C343.138 91.1945 343.313 90.3745 343.663 89.7945C344.013 89.2045 344.568 88.9095 345.328 88.9095ZM345.328 89.8395C344.948 89.8395 344.668 90.0445 344.488 90.4545C344.318 90.8545 344.233 91.4545 344.233 92.2545C344.233 93.0545 344.318 93.6595 344.488 94.0695C344.668 94.4795 344.948 94.6845 345.328 94.6845C345.718 94.6845 346.008 94.4845 346.198 94.0845C346.388 93.6745 346.483 93.0645 346.483 92.2545C346.483 91.4545 346.388 90.8545 346.198 90.4545C346.008 90.0445 345.718 89.8395 345.328 89.8395ZM352.183 89.0595L346.243 99.7695H345.088L351.028 89.0595H352.183ZM351.883 93.1995C352.373 93.1995 352.783 93.3345 353.113 93.6045C353.443 93.8645 353.693 94.2445 353.863 94.7445C354.043 95.2345 354.133 95.8345 354.133 96.5445C354.133 97.6045 353.948 98.4345 353.578 99.0345C353.218 99.6245 352.653 99.9195 351.883 99.9195C351.413 99.9195 351.013 99.7845 350.683 99.5145C350.353 99.2445 350.103 98.8595 349.933 98.3595C349.773 97.8495 349.693 97.2445 349.693 96.5445C349.693 95.4845 349.868 94.6645 350.218 94.0845C350.568 93.4945 351.123 93.1995 351.883 93.1995ZM351.883 94.1445C351.503 94.1445 351.223 94.3445 351.043 94.7445C350.873 95.1445 350.788 95.7445 350.788 96.5445C350.788 97.3545 350.873 97.9645 351.043 98.3745C351.223 98.7745 351.503 98.9745 351.883 98.9745C352.273 98.9745 352.563 98.7745 352.753 98.3745C352.943 97.9745 353.038 97.3645 353.038 96.5445C353.038 95.7445 352.943 95.1445 352.753 94.7445C352.563 94.3445 352.273 94.1445 351.883 94.1445Z" fill="#528052"/>
<path d="M456.08 99.7695V89.2695H456.89V94.0395H462.965V89.2695H463.775V99.7695H462.965V94.7895H456.89V99.7695H456.08ZM469.118 99.8595C466.958 99.8595 465.473 98.2995 465.473 95.9145C465.473 93.6645 466.898 92.0745 468.983 92.0745C471.023 92.0745 472.418 93.3945 472.493 95.6595C472.493 95.7495 472.478 95.8695 472.478 95.9745H466.268V96.1095C466.298 97.8795 467.363 99.1695 469.058 99.1695C470.303 99.1695 471.308 98.4345 471.608 97.2495H472.388C472.058 98.7795 470.783 99.8595 469.118 99.8595ZM466.328 95.3295H471.668C471.548 93.6645 470.483 92.7495 468.998 92.7495C467.603 92.7495 466.448 93.7845 466.328 95.3295ZM480.695 99.0645H480.98V99.7695H480.53C479.63 99.7695 479.255 99.3795 479.285 98.4795V98.2095C478.82 99.1545 477.905 99.8595 476.36 99.8595C474.74 99.8595 473.675 99.0345 473.675 97.6845C473.675 96.2595 474.725 95.4195 476.675 95.4195H479.255V94.7595C479.255 93.4995 478.445 92.7495 477.02 92.7495C475.73 92.7495 474.92 93.3645 474.725 94.2945H473.96C474.155 92.9145 475.31 92.0745 477.05 92.0745C478.955 92.0745 480.02 93.0495 480.02 94.7895V98.3295C480.02 98.9145 480.245 99.0645 480.695 99.0645ZM479.255 96.6945V96.0795H476.615C475.205 96.0795 474.455 96.6345 474.455 97.6395C474.455 98.5845 475.205 99.1995 476.42 99.1995C478.22 99.1995 479.255 98.1495 479.255 96.6945ZM482.004 99.7695V89.2695H482.769V99.7695H482.004ZM485.137 97.9995V92.8695H483.697V92.1645H485.137V90.0345H485.902V92.1645H487.957V92.8695H485.902V97.9845C485.902 98.7645 486.187 99.0645 486.982 99.0645H488.032V99.7695H486.922C485.632 99.7695 485.137 99.2145 485.137 97.9995ZM492.706 92.0745C494.431 92.0745 495.706 93.1095 495.706 95.5095V99.7695H494.941V95.5395C494.941 93.7395 494.041 92.7795 492.586 92.7795C490.966 92.7795 489.961 94.0395 489.961 96.0195V99.7695H489.196V89.2695H489.961V93.9645C490.396 92.8695 491.281 92.0745 492.706 92.0745ZM499.445 99.7695L496.4 92.1645H497.225L499.865 98.7795L502.46 92.1645H503.285L499.64 101.18C499.16 102.38 498.92 102.77 497.9 102.77H496.73V102.065H497.69C498.47 102.065 498.605 101.84 498.95 101L499.445 99.7695Z" fill="black"/>
<rect x="1" y="111" width="569" height="30.7695" fill="#F9FBFC"/>
<path d="M182.72 125.99V125.51C182.72 122.525 184.235 120.41 186.515 120.41C188.765 120.41 190.295 122.525 190.295 125.51V125.99C190.295 129.065 188.765 131.09 186.515 131.09C184.235 131.09 182.72 129.065 182.72 125.99ZM189.5 125.96V125.54C189.5 122.87 188.315 121.13 186.515 121.13C184.7 121.13 183.515 122.87 183.515 125.54V125.96C183.515 128.63 184.7 130.37 186.515 130.37C188.315 130.37 189.5 128.63 189.5 125.96ZM191.324 131V130.325L195.404 126.62C196.394 125.72 197.399 124.805 197.399 123.485C197.399 122 196.379 121.115 194.789 121.115C193.214 121.115 192.209 122.12 192.209 123.755V123.965H191.429V123.71C191.429 121.73 192.749 120.41 194.789 120.41C196.919 120.41 198.194 121.595 198.194 123.44C198.194 125.03 197.114 126.035 195.899 127.13L192.404 130.28H198.329V131H191.324ZM204.232 120.29L200.242 131H198.952L202.942 120.29H204.232ZM206.903 121.835V120.5H207.668V131H206.888V123.095C206.753 123.26 206.528 123.35 206.213 123.35H204.413V122.645H206.213C206.678 122.645 206.903 122.315 206.903 121.835ZM212.962 131.09C211.087 131.09 209.902 129.935 209.647 128.3H210.427C210.682 129.515 211.507 130.4 212.992 130.4C215.107 130.4 216.127 128.48 216.127 125.885C216.127 125.42 216.082 125 215.977 124.535C215.992 124.655 215.992 124.79 215.947 124.94C215.677 126.395 214.492 127.385 212.842 127.385C210.787 127.385 209.437 126.005 209.437 123.905C209.437 121.88 210.847 120.41 212.932 120.41C214.387 120.41 215.437 121.085 216.052 122.195C216.532 123.125 216.817 124.4 216.817 125.75C216.817 128.9 215.482 131.09 212.962 131.09ZM212.887 126.695C214.552 126.695 215.677 125.54 215.677 123.89C215.677 122.24 214.582 121.1 212.947 121.1C211.297 121.1 210.217 122.255 210.217 123.905C210.217 125.54 211.237 126.695 212.887 126.695ZM222.967 120.29L218.977 131H217.687L221.677 120.29H222.967ZM223.433 131V130.325L227.513 126.62C228.503 125.72 229.508 124.805 229.508 123.485C229.508 122 228.488 121.115 226.898 121.115C225.323 121.115 224.318 122.12 224.318 123.755V123.965H223.538V123.71C223.538 121.73 224.858 120.41 226.898 120.41C229.028 120.41 230.303 121.595 230.303 123.44C230.303 125.03 229.223 126.035 228.008 127.13L224.513 130.28H230.438V131H223.433ZM231.631 125.99V125.51C231.631 122.525 233.146 120.41 235.426 120.41C237.676 120.41 239.206 122.525 239.206 125.51V125.99C239.206 129.065 237.676 131.09 235.426 131.09C233.146 131.09 231.631 129.065 231.631 125.99ZM238.411 125.96V125.54C238.411 122.87 237.226 121.13 235.426 121.13C233.611 121.13 232.426 122.87 232.426 125.54V125.96C232.426 128.63 233.611 130.37 235.426 130.37C237.226 130.37 238.411 128.63 238.411 125.96ZM240.235 131V130.325L244.315 126.62C245.305 125.72 246.31 124.805 246.31 123.485C246.31 122 245.29 121.115 243.7 121.115C242.125 121.115 241.12 122.12 241.12 123.755V123.965H240.34V123.71C240.34 121.73 241.66 120.41 243.7 120.41C245.83 120.41 247.105 121.595 247.105 123.44C247.105 125.03 246.025 126.035 244.81 127.13L241.315 130.28H247.24V131H240.235ZM252.108 124.04C254.148 124.04 255.513 125.495 255.513 127.535C255.513 129.845 253.833 131.075 251.943 131.075C249.723 131.075 248.463 129.605 248.343 127.865H249.123C249.243 129.23 250.233 130.37 251.943 130.37C253.383 130.37 254.718 129.41 254.718 127.55C254.718 125.93 253.683 124.745 252.003 124.745C251.043 124.745 249.783 125.165 249.333 126.395L248.583 126.365L248.958 120.5H254.868V121.22H249.663L249.378 125.315C250.008 124.43 250.998 124.04 252.108 124.04Z" fill="#505050"/>
<path d="M20.585 121.25V120.5H28.31V121.1L21.455 130.25H28.445V131H20.375V130.4L27.215 121.25H20.585ZM32.5657 131.09C30.4207 131.09 28.9207 129.5 28.9207 127.19C28.9207 124.895 30.4207 123.305 32.5657 123.305C34.7107 123.305 36.2257 124.895 36.2257 127.19C36.2257 129.5 34.7107 131.09 32.5657 131.09ZM32.5657 130.4C34.2607 130.4 35.4307 129.08 35.4307 127.19C35.4307 125.315 34.2607 123.98 32.5657 123.98C30.8707 123.98 29.7007 125.315 29.7007 127.19C29.7007 129.08 30.8707 130.4 32.5657 130.4ZM41.2557 123.305C42.9807 123.305 44.2557 124.34 44.2557 126.74V131H43.4907V126.77C43.4907 124.97 42.6057 124.01 41.1357 124.01C39.5157 124.01 38.5107 125.27 38.5107 127.25V131H37.7457V123.395H38.4057L38.5257 125.015C38.9607 124.025 39.8607 123.305 41.2557 123.305ZM49.1916 131.09C47.0316 131.09 45.5466 129.53 45.5466 127.145C45.5466 124.895 46.9716 123.305 49.0566 123.305C51.0966 123.305 52.4916 124.625 52.5666 126.89C52.5666 126.98 52.5516 127.1 52.5516 127.205H46.3416V127.34C46.3716 129.11 47.4366 130.4 49.1316 130.4C50.3766 130.4 51.3816 129.665 51.6816 128.48H52.4616C52.1316 130.01 50.8566 131.09 49.1916 131.09ZM46.4016 126.56H51.7416C51.6216 124.895 50.5566 123.98 49.0716 123.98C47.6766 123.98 46.5216 125.015 46.4016 126.56ZM57.5217 121.25V120.5H65.5317V121.25H61.9317V131H61.1217V121.25H57.5217ZM70.245 123.305C71.97 123.305 73.245 124.34 73.245 126.74V131H72.48V126.77C72.48 124.97 71.58 124.01 70.125 124.01C68.505 124.01 67.5 125.27 67.5 127.25V131H66.735V120.5H67.5V125.195C67.935 124.1 68.82 123.305 70.245 123.305ZM78.0577 123.395H78.4627V124.13H77.9077C76.1227 124.13 75.7177 125.6 75.7177 127.145V131H74.9527V123.395H75.6127L75.7327 124.91C76.0477 124.07 76.6477 123.395 78.0577 123.395ZM82.4143 131.09C80.2543 131.09 78.7693 129.53 78.7693 127.145C78.7693 124.895 80.1943 123.305 82.2793 123.305C84.3193 123.305 85.7143 124.625 85.7893 126.89C85.7893 126.98 85.7743 127.1 85.7743 127.205H79.5643V127.34C79.5943 129.11 80.6593 130.4 82.3543 130.4C83.5993 130.4 84.6043 129.665 84.9043 128.48H85.6843C85.3543 130.01 84.0793 131.09 82.4143 131.09ZM79.6243 126.56H84.9643C84.8443 124.895 83.7793 123.98 82.2943 123.98C80.8993 123.98 79.7443 125.015 79.6243 126.56ZM90.6614 131.09C88.5014 131.09 87.0164 129.53 87.0164 127.145C87.0164 124.895 88.4414 123.305 90.5264 123.305C92.5664 123.305 93.9614 124.625 94.0364 126.89C94.0364 126.98 94.0214 127.1 94.0214 127.205H87.8114V127.34C87.8414 129.11 88.9064 130.4 90.6014 130.4C91.8464 130.4 92.8514 129.665 93.1514 128.48H93.9314C93.6014 130.01 92.3264 131.09 90.6614 131.09ZM87.8714 126.56H93.2114C93.0914 124.895 92.0264 123.98 90.5414 123.98C89.1464 123.98 87.9914 125.015 87.8714 126.56Z" fill="black"/>
<path d="M333.185 130.86C331.31 130.86 330.125 129.705 329.87 128.07H330.65C330.905 129.285 331.73 130.17 333.215 130.17C335.33 130.17 336.35 128.25 336.35 125.655C336.35 125.19 336.305 124.77 336.2 124.305C336.215 124.425 336.215 124.56 336.17 124.71C335.9 126.165 334.715 127.155 333.065 127.155C331.01 127.155 329.66 125.775 329.66 123.675C329.66 121.65 331.07 120.18 333.155 120.18C334.61 120.18 335.66 120.855 336.275 121.965C336.755 122.895 337.04 124.17 337.04 125.52C337.04 128.67 335.705 130.86 333.185 130.86ZM333.11 126.465C334.775 126.465 335.9 125.31 335.9 123.66C335.9 122.01 334.805 120.87 333.17 120.87C331.52 120.87 330.44 122.025 330.44 123.675C330.44 125.31 331.46 126.465 333.11 126.465ZM337.97 128.01V127.305L343.49 120.27H344.36V127.29H346.085V128.01H344.36V130.77H343.58V128.01H337.97ZM343.58 121.245L338.855 127.29H343.58V121.245ZM349.166 119.91C349.906 119.91 350.466 120.205 350.846 120.795C351.226 121.375 351.416 122.195 351.416 123.255C351.416 124.315 351.231 125.145 350.861 125.745C350.501 126.335 349.936 126.63 349.166 126.63C348.696 126.63 348.296 126.495 347.966 126.225C347.636 125.955 347.386 125.57 347.216 125.07C347.056 124.56 346.976 123.955 346.976 123.255C346.976 122.195 347.151 121.375 347.501 120.795C347.851 120.205 348.406 119.91 349.166 119.91ZM349.166 120.84C348.786 120.84 348.506 121.045 348.326 121.455C348.156 121.855 348.071 122.455 348.071 123.255C348.071 124.055 348.156 124.66 348.326 125.07C348.506 125.48 348.786 125.685 349.166 125.685C349.556 125.685 349.846 125.485 350.036 125.085C350.226 124.675 350.321 124.065 350.321 123.255C350.321 122.455 350.226 121.855 350.036 121.455C349.846 121.045 349.556 120.84 349.166 120.84ZM356.021 120.06L350.081 130.77H348.926L354.866 120.06H356.021ZM355.721 124.2C356.211 124.2 356.621 124.335 356.951 124.605C357.281 124.865 357.531 125.245 357.701 125.745C357.881 126.235 357.971 126.835 357.971 127.545C357.971 128.605 357.786 129.435 357.416 130.035C357.056 130.625 356.491 130.92 355.721 130.92C355.251 130.92 354.851 130.785 354.521 130.515C354.191 130.245 353.941 129.86 353.771 129.36C353.611 128.85 353.531 128.245 353.531 127.545C353.531 126.485 353.706 125.665 354.056 125.085C354.406 124.495 354.961 124.2 355.721 124.2ZM355.721 125.145C355.341 125.145 355.061 125.345 354.881 125.745C354.711 126.145 354.626 126.745 354.626 127.545C354.626 128.355 354.711 128.965 354.881 129.375C355.061 129.775 355.341 129.975 355.721 129.975C356.111 129.975 356.401 129.775 356.591 129.375C356.781 128.975 356.876 128.365 356.876 127.545C356.876 126.745 356.781 126.145 356.591 125.745C356.401 125.345 356.111 125.145 355.721 125.145Z" fill="#8D3939"/>
<path d="M445.69 127.775H446.53C446.635 129.335 447.835 130.355 449.605 130.355C451.3 130.355 452.44 129.545 452.44 128.195C452.44 126.665 450.97 126.335 449.32 126.05C447.64 125.765 445.93 125.315 445.93 123.32C445.93 121.535 447.325 120.41 449.455 120.41C451.6 120.41 452.965 121.595 453.115 123.395H452.29C452.11 122.03 451.03 121.145 449.455 121.145C447.805 121.145 446.74 121.91 446.74 123.275C446.74 124.775 448.135 125.045 449.74 125.315C451.48 125.615 453.25 126.125 453.25 128.12C453.25 129.89 451.795 131.09 449.59 131.09C447.235 131.09 445.795 129.755 445.69 127.775ZM461.54 130.295H461.825V131H461.375C460.475 131 460.1 130.61 460.13 129.71V129.44C459.665 130.385 458.75 131.09 457.205 131.09C455.585 131.09 454.52 130.265 454.52 128.915C454.52 127.49 455.57 126.65 457.52 126.65H460.1V125.99C460.1 124.73 459.29 123.98 457.865 123.98C456.575 123.98 455.765 124.595 455.57 125.525H454.805C455 124.145 456.155 123.305 457.895 123.305C459.8 123.305 460.865 124.28 460.865 126.02V129.56C460.865 130.145 461.09 130.295 461.54 130.295ZM460.1 127.925V127.31H457.46C456.05 127.31 455.3 127.865 455.3 128.87C455.3 129.815 456.05 130.43 457.265 130.43C459.065 130.43 460.1 129.38 460.1 127.925ZM462.848 131V120.5H463.613V131H462.848ZM473.902 123.305C475.492 123.305 476.707 124.295 476.707 126.59V131H475.927V126.62C475.927 124.895 475.132 124.01 473.812 124.01C472.387 124.01 471.487 125.12 471.442 126.86V131H470.677V126.695C470.677 124.94 469.852 124.01 468.532 124.01C467.077 124.01 466.177 125.27 466.177 127.13V131H465.412V123.395H466.072L466.192 125.015C466.582 124.07 467.362 123.305 468.667 123.305C469.867 123.305 470.812 123.95 471.172 125.21C471.607 124.085 472.507 123.305 473.902 123.305ZM481.648 131.09C479.503 131.09 478.003 129.5 478.003 127.19C478.003 124.895 479.503 123.305 481.648 123.305C483.793 123.305 485.308 124.895 485.308 127.19C485.308 129.5 483.793 131.09 481.648 131.09ZM481.648 130.4C483.343 130.4 484.513 129.08 484.513 127.19C484.513 125.315 483.343 123.98 481.648 123.98C479.953 123.98 478.783 125.315 478.783 127.19C478.783 129.08 479.953 130.4 481.648 130.4ZM490.338 123.305C492.063 123.305 493.338 124.34 493.338 126.74V131H492.573V126.77C492.573 124.97 491.688 124.01 490.218 124.01C488.598 124.01 487.593 125.27 487.593 127.25V131H486.828V123.395H487.488L487.608 125.015C488.043 124.025 488.943 123.305 490.338 123.305ZM498.274 131.09C496.114 131.09 494.629 129.53 494.629 127.145C494.629 124.895 496.054 123.305 498.139 123.305C500.179 123.305 501.574 124.625 501.649 126.89C501.649 126.98 501.634 127.1 501.634 127.205H495.424V127.34C495.454 129.11 496.519 130.4 498.214 130.4C499.459 130.4 500.464 129.665 500.764 128.48H501.544C501.214 130.01 499.939 131.09 498.274 131.09ZM495.484 126.56H500.824C500.704 124.895 499.639 123.98 498.154 123.98C496.759 123.98 495.604 125.015 495.484 126.56ZM503.161 131V120.5H503.926V131H503.161ZM505.724 131V120.5H506.489V131H505.724ZM514.978 130.295H515.263V131H514.813C513.913 131 513.538 130.61 513.568 129.71V129.44C513.103 130.385 512.188 131.09 510.643 131.09C509.023 131.09 507.958 130.265 507.958 128.915C507.958 127.49 509.008 126.65 510.958 126.65H513.538V125.99C513.538 124.73 512.728 123.98 511.303 123.98C510.013 123.98 509.203 124.595 509.008 125.525H508.243C508.438 124.145 509.593 123.305 511.333 123.305C513.238 123.305 514.303 124.28 514.303 126.02V129.56C514.303 130.145 514.528 130.295 514.978 130.295ZM513.538 127.925V127.31H510.898C509.488 127.31 508.738 127.865 508.738 128.87C508.738 129.815 509.488 130.43 510.703 130.43C512.503 130.43 513.538 129.38 513.538 127.925Z" fill="#8D3939"/>
<rect x="1" y="142" width="569" height="30.7695" fill="white"/>
<path d="M182.72 156.99V156.51C182.72 153.525 184.235 151.41 186.515 151.41C188.765 151.41 190.295 153.525 190.295 156.51V156.99C190.295 160.065 188.765 162.09 186.515 162.09C184.235 162.09 182.72 160.065 182.72 156.99ZM189.5 156.96V156.54C189.5 153.87 188.315 152.13 186.515 152.13C184.7 152.13 183.515 153.87 183.515 156.54V156.96C183.515 159.63 184.7 161.37 186.515 161.37C188.315 161.37 189.5 159.63 189.5 156.96ZM191.324 162V161.325L195.404 157.62C196.394 156.72 197.399 155.805 197.399 154.485C197.399 153 196.379 152.115 194.789 152.115C193.214 152.115 192.209 153.12 192.209 154.755V154.965H191.429V154.71C191.429 152.73 192.749 151.41 194.789 151.41C196.919 151.41 198.194 152.595 198.194 154.44C198.194 156.03 197.114 157.035 195.899 158.13L192.404 161.28H198.329V162H191.324ZM204.232 151.29L200.242 162H198.952L202.942 151.29H204.232ZM204.698 162V161.325L208.778 157.62C209.768 156.72 210.773 155.805 210.773 154.485C210.773 153 209.753 152.115 208.163 152.115C206.588 152.115 205.583 153.12 205.583 154.755V154.965H204.803V154.71C204.803 152.73 206.123 151.41 208.163 151.41C210.293 151.41 211.568 152.595 211.568 154.44C211.568 156.03 210.488 157.035 209.273 158.13L205.778 161.28H211.703V162H204.698ZM212.491 162V161.325L216.571 157.62C217.561 156.72 218.566 155.805 218.566 154.485C218.566 153 217.546 152.115 215.956 152.115C214.381 152.115 213.376 153.12 213.376 154.755V154.965H212.596V154.71C212.596 152.73 213.916 151.41 215.956 151.41C218.086 151.41 219.361 152.595 219.361 154.44C219.361 156.03 218.281 157.035 217.066 158.13L213.571 161.28H219.496V162H212.491ZM225.399 151.29L221.409 162H220.119L224.109 151.29H225.399ZM225.865 162V161.325L229.945 157.62C230.935 156.72 231.94 155.805 231.94 154.485C231.94 153 230.92 152.115 229.33 152.115C227.755 152.115 226.75 153.12 226.75 154.755V154.965H225.97V154.71C225.97 152.73 227.29 151.41 229.33 151.41C231.46 151.41 232.735 152.595 232.735 154.44C232.735 156.03 231.655 157.035 230.44 158.13L226.945 161.28H232.87V162H225.865ZM234.063 156.99V156.51C234.063 153.525 235.578 151.41 237.858 151.41C240.108 151.41 241.638 153.525 241.638 156.51V156.99C241.638 160.065 240.108 162.09 237.858 162.09C235.578 162.09 234.063 160.065 234.063 156.99ZM240.843 156.96V156.54C240.843 153.87 239.658 152.13 237.858 152.13C236.043 152.13 234.858 153.87 234.858 156.54V156.96C234.858 159.63 236.043 161.37 237.858 161.37C239.658 161.37 240.843 159.63 240.843 156.96ZM242.667 162V161.325L246.747 157.62C247.737 156.72 248.742 155.805 248.742 154.485C248.742 153 247.722 152.115 246.132 152.115C244.557 152.115 243.552 153.12 243.552 154.755V154.965H242.772V154.71C242.772 152.73 244.092 151.41 246.132 151.41C248.262 151.41 249.537 152.595 249.537 154.44C249.537 156.03 248.457 157.035 247.242 158.13L243.747 161.28H249.672V162H242.667ZM254.54 155.04C256.58 155.04 257.945 156.495 257.945 158.535C257.945 160.845 256.265 162.075 254.375 162.075C252.155 162.075 250.895 160.605 250.775 158.865H251.555C251.675 160.23 252.665 161.37 254.375 161.37C255.815 161.37 257.15 160.41 257.15 158.55C257.15 156.93 256.115 155.745 254.435 155.745C253.475 155.745 252.215 156.165 251.765 157.395L251.015 157.365L251.39 151.5H257.3V152.22H252.095L251.81 156.315C252.44 155.43 253.43 155.04 254.54 155.04Z" fill="#505050"/>
<path d="M20.585 152.25V151.5H28.31V152.1L21.455 161.25H28.445V162H20.375V161.4L27.215 152.25H20.585ZM32.5657 162.09C30.4207 162.09 28.9207 160.5 28.9207 158.19C28.9207 155.895 30.4207 154.305 32.5657 154.305C34.7107 154.305 36.2257 155.895 36.2257 158.19C36.2257 160.5 34.7107 162.09 32.5657 162.09ZM32.5657 161.4C34.2607 161.4 35.4307 160.08 35.4307 158.19C35.4307 156.315 34.2607 154.98 32.5657 154.98C30.8707 154.98 29.7007 156.315 29.7007 158.19C29.7007 160.08 30.8707 161.4 32.5657 161.4ZM41.2557 154.305C42.9807 154.305 44.2557 155.34 44.2557 157.74V162H43.4907V157.77C43.4907 155.97 42.6057 155.01 41.1357 155.01C39.5157 155.01 38.5107 156.27 38.5107 158.25V162H37.7457V154.395H38.4057L38.5257 156.015C38.9607 155.025 39.8607 154.305 41.2557 154.305ZM49.1916 162.09C47.0316 162.09 45.5466 160.53 45.5466 158.145C45.5466 155.895 46.9716 154.305 49.0566 154.305C51.0966 154.305 52.4916 155.625 52.5666 157.89C52.5666 157.98 52.5516 158.1 52.5516 158.205H46.3416V158.34C46.3716 160.11 47.4366 161.4 49.1316 161.4C50.3766 161.4 51.3816 160.665 51.6816 159.48H52.4616C52.1316 161.01 50.8566 162.09 49.1916 162.09ZM46.4016 157.56H51.7416C51.6216 155.895 50.5566 154.98 49.0716 154.98C47.6766 154.98 46.5216 156.015 46.4016 157.56ZM58.3017 162V151.5H64.5417V152.25H59.1117V156.405H63.6417V157.155H59.1117V162H58.3017ZM68.5569 162.09C66.4119 162.09 64.9119 160.5 64.9119 158.19C64.9119 155.895 66.4119 154.305 68.5569 154.305C70.7019 154.305 72.2169 155.895 72.2169 158.19C72.2169 160.5 70.7019 162.09 68.5569 162.09ZM68.5569 161.4C70.2519 161.4 71.4219 160.08 71.4219 158.19C71.4219 156.315 70.2519 154.98 68.5569 154.98C66.8619 154.98 65.6919 156.315 65.6919 158.19C65.6919 160.08 66.8619 161.4 68.5569 161.4ZM79.2569 158.13V154.395H80.0219V162H79.3469L79.2419 160.395C78.8069 161.37 77.9219 162.09 76.5719 162.09C74.8919 162.09 73.6469 161.04 73.6469 158.655V154.395H74.4119V158.61C74.4119 160.425 75.2819 161.385 76.6919 161.385C78.2669 161.385 79.2569 160.125 79.2569 158.13ZM84.9279 154.395H85.3329V155.13H84.7779C82.9929 155.13 82.5879 156.6 82.5879 158.145V162H81.8229V154.395H82.4829L82.6029 155.91C82.9179 155.07 83.5179 154.395 84.9279 154.395Z" fill="black"/>
<path d="M329.21 159.01V158.305L334.73 151.27H335.6V158.29H337.325V159.01H335.6V161.77H334.82V159.01H329.21ZM334.82 152.245L330.095 158.29H334.82V152.245ZM338.201 156.76V156.28C338.201 153.295 339.716 151.18 341.996 151.18C344.246 151.18 345.776 153.295 345.776 156.28V156.76C345.776 159.835 344.246 161.86 341.996 161.86C339.716 161.86 338.201 159.835 338.201 156.76ZM344.981 156.73V156.31C344.981 153.64 343.796 151.9 341.996 151.9C340.181 151.9 338.996 153.64 338.996 156.31V156.73C338.996 159.4 340.181 161.14 341.996 161.14C343.796 161.14 344.981 159.4 344.981 156.73ZM349.415 150.91C350.155 150.91 350.715 151.205 351.095 151.795C351.475 152.375 351.665 153.195 351.665 154.255C351.665 155.315 351.48 156.145 351.11 156.745C350.75 157.335 350.185 157.63 349.415 157.63C348.945 157.63 348.545 157.495 348.215 157.225C347.885 156.955 347.635 156.57 347.465 156.07C347.305 155.56 347.225 154.955 347.225 154.255C347.225 153.195 347.4 152.375 347.75 151.795C348.1 151.205 348.655 150.91 349.415 150.91ZM349.415 151.84C349.035 151.84 348.755 152.045 348.575 152.455C348.405 152.855 348.32 153.455 348.32 154.255C348.32 155.055 348.405 155.66 348.575 156.07C348.755 156.48 349.035 156.685 349.415 156.685C349.805 156.685 350.095 156.485 350.285 156.085C350.475 155.675 350.57 155.065 350.57 154.255C350.57 153.455 350.475 152.855 350.285 152.455C350.095 152.045 349.805 151.84 349.415 151.84ZM356.27 151.06L350.33 161.77H349.175L355.115 151.06H356.27ZM355.97 155.2C356.46 155.2 356.87 155.335 357.2 155.605C357.53 155.865 357.78 156.245 357.95 156.745C358.13 157.235 358.22 157.835 358.22 158.545C358.22 159.605 358.035 160.435 357.665 161.035C357.305 161.625 356.74 161.92 355.97 161.92C355.5 161.92 355.1 161.785 354.77 161.515C354.44 161.245 354.19 160.86 354.02 160.36C353.86 159.85 353.78 159.245 353.78 158.545C353.78 157.485 353.955 156.665 354.305 156.085C354.655 155.495 355.21 155.2 355.97 155.2ZM355.97 156.145C355.59 156.145 355.31 156.345 355.13 156.745C354.96 157.145 354.875 157.745 354.875 158.545C354.875 159.355 354.96 159.965 355.13 160.375C355.31 160.775 355.59 160.975 355.97 160.975C356.36 160.975 356.65 160.775 356.84 160.375C357.03 159.975 357.125 159.365 357.125 158.545C357.125 157.745 357.03 157.145 356.84 156.745C356.65 156.345 356.36 156.145 355.97 156.145Z" fill="#F4C149"/>
<path d="M449.52 162.09C446.58 162.09 444.705 159.93 444.705 156.75C444.705 153.6 446.625 151.41 449.58 151.41C451.785 151.41 453.375 152.625 453.84 154.725H452.985C452.52 153.075 451.29 152.16 449.535 152.16C447.105 152.16 445.545 154.065 445.545 156.75C445.545 159.435 447.075 161.34 449.505 161.34C451.29 161.34 452.505 160.44 452.955 158.76H453.81C453.36 160.875 451.77 162.09 449.52 162.09ZM458.734 162.09C456.589 162.09 455.089 160.5 455.089 158.19C455.089 155.895 456.589 154.305 458.734 154.305C460.879 154.305 462.394 155.895 462.394 158.19C462.394 160.5 460.879 162.09 458.734 162.09ZM458.734 161.4C460.429 161.4 461.599 160.08 461.599 158.19C461.599 156.315 460.429 154.98 458.734 154.98C457.039 154.98 455.869 156.315 455.869 158.19C455.869 160.08 457.039 161.4 458.734 161.4ZM467.229 162.09C465.084 162.09 463.629 160.545 463.629 158.205C463.629 155.895 465.099 154.305 467.244 154.305C468.969 154.305 470.154 155.265 470.469 156.84H469.674C469.404 155.7 468.504 154.98 467.229 154.98C465.549 154.98 464.409 156.315 464.409 158.205C464.409 160.095 465.564 161.4 467.229 161.4C468.489 161.4 469.404 160.68 469.659 159.555H470.469C470.169 161.1 468.954 162.09 467.229 162.09ZM475.271 162.09C473.126 162.09 471.671 160.545 471.671 158.205C471.671 155.895 473.141 154.305 475.286 154.305C477.011 154.305 478.196 155.265 478.511 156.84H477.716C477.446 155.7 476.546 154.98 475.271 154.98C473.591 154.98 472.451 156.315 472.451 158.205C472.451 160.095 473.606 161.4 475.271 161.4C476.531 161.4 477.446 160.68 477.701 159.555H478.511C478.211 161.1 476.996 162.09 475.271 162.09ZM480.388 152.79C480.088 152.79 479.848 152.565 479.848 152.25C479.848 151.935 480.088 151.71 480.388 151.71C480.688 151.71 480.928 151.935 480.928 152.25C480.928 152.565 480.688 152.79 480.388 152.79ZM479.998 162V154.395H480.763V162H479.998ZM488.771 156.105V151.5H489.536V162H488.876L488.756 160.26C488.276 161.325 487.286 162.09 485.861 162.09C483.776 162.09 482.276 160.59 482.276 158.19C482.276 155.895 483.776 154.305 485.861 154.305C487.286 154.305 488.306 155.025 488.771 156.105ZM485.921 161.4C487.616 161.4 488.786 160.08 488.786 158.205C488.786 156.315 487.616 154.98 485.921 154.98C484.226 154.98 483.056 156.315 483.056 158.19C483.056 160.08 484.226 161.4 485.921 161.4ZM491.726 152.79C491.426 152.79 491.186 152.565 491.186 152.25C491.186 151.935 491.426 151.71 491.726 151.71C492.026 151.71 492.266 151.935 492.266 152.25C492.266 152.565 492.026 152.79 491.726 152.79ZM491.336 162V154.395H492.101V162H491.336ZM497.259 162.09C495.114 162.09 493.614 160.5 493.614 158.19C493.614 155.895 495.114 154.305 497.259 154.305C499.404 154.305 500.919 155.895 500.919 158.19C500.919 160.5 499.404 162.09 497.259 162.09ZM497.259 161.4C498.954 161.4 500.124 160.08 500.124 158.19C500.124 156.315 498.954 154.98 497.259 154.98C495.564 154.98 494.394 156.315 494.394 158.19C494.394 160.08 495.564 161.4 497.259 161.4ZM502.079 159.66H502.859C502.919 160.755 503.864 161.43 505.319 161.43C506.564 161.43 507.509 160.86 507.509 159.96C507.509 158.835 506.474 158.67 505.199 158.49C503.639 158.28 502.229 157.995 502.229 156.465C502.229 155.16 503.444 154.29 505.139 154.305C506.789 154.305 508.004 155.055 508.139 156.54H507.359C507.224 155.55 506.354 154.965 505.139 154.965C503.849 154.965 502.994 155.535 502.994 156.405C502.994 157.47 504.044 157.605 505.229 157.77C506.864 157.995 508.274 158.31 508.274 159.915C508.274 161.265 506.954 162.09 505.319 162.09C503.414 162.09 502.139 161.235 502.079 159.66ZM510.124 152.79C509.824 152.79 509.584 152.565 509.584 152.25C509.584 151.935 509.824 151.71 510.124 151.71C510.424 151.71 510.664 151.935 510.664 152.25C510.664 152.565 510.424 152.79 510.124 152.79ZM509.734 162V154.395H510.499V162H509.734ZM511.952 159.66H512.732C512.792 160.755 513.737 161.43 515.192 161.43C516.437 161.43 517.382 160.86 517.382 159.96C517.382 158.835 516.347 158.67 515.072 158.49C513.512 158.28 512.102 157.995 512.102 156.465C512.102 155.16 513.317 154.29 515.012 154.305C516.662 154.305 517.877 155.055 518.012 156.54H517.232C517.097 155.55 516.227 154.965 515.012 154.965C513.722 154.965 512.867 155.535 512.867 156.405C512.867 157.47 513.917 157.605 515.102 157.77C516.737 157.995 518.147 158.31 518.147 159.915C518.147 161.265 516.827 162.09 515.192 162.09C513.287 162.09 512.012 161.235 511.952 159.66Z" fill="#8D3939"/>
<rect x="1" y="173" width="569" height="30.7695" fill="#F9FBFC"/>
<path d="M20.585 183.25V182.5H28.31V183.1L21.455 192.25H28.445V193H20.375V192.4L27.215 183.25H20.585ZM32.5657 193.09C30.4207 193.09 28.9207 191.5 28.9207 189.19C28.9207 186.895 30.4207 185.305 32.5657 185.305C34.7107 185.305 36.2257 186.895 36.2257 189.19C36.2257 191.5 34.7107 193.09 32.5657 193.09ZM32.5657 192.4C34.2607 192.4 35.4307 191.08 35.4307 189.19C35.4307 187.315 34.2607 185.98 32.5657 185.98C30.8707 185.98 29.7007 187.315 29.7007 189.19C29.7007 191.08 30.8707 192.4 32.5657 192.4ZM41.2557 185.305C42.9807 185.305 44.2557 186.34 44.2557 188.74V193H43.4907V188.77C43.4907 186.97 42.6057 186.01 41.1357 186.01C39.5157 186.01 38.5107 187.27 38.5107 189.25V193H37.7457V185.395H38.4057L38.5257 187.015C38.9607 186.025 39.8607 185.305 41.2557 185.305ZM49.1916 193.09C47.0316 193.09 45.5466 191.53 45.5466 189.145C45.5466 186.895 46.9716 185.305 49.0566 185.305C51.0966 185.305 52.4916 186.625 52.5666 188.89C52.5666 188.98 52.5516 189.1 52.5516 189.205H46.3416V189.34C46.3716 191.11 47.4366 192.4 49.1316 192.4C50.3766 192.4 51.3816 191.665 51.6816 190.48H52.4616C52.1316 192.01 50.8566 193.09 49.1916 193.09ZM46.4016 188.56H51.7416C51.6216 186.895 50.5566 185.98 49.0716 185.98C47.6766 185.98 46.5216 187.015 46.4016 188.56ZM58.3017 193V182.5H64.5417V183.25H59.1117V187.405H63.6417V188.155H59.1117V193H58.3017ZM66.1728 183.79C65.8728 183.79 65.6328 183.565 65.6328 183.25C65.6328 182.935 65.8728 182.71 66.1728 182.71C66.4728 182.71 66.7128 182.935 66.7128 183.25C66.7128 183.565 66.4728 183.79 66.1728 183.79ZM65.7828 193V185.395H66.5478V193H65.7828ZM70.5513 193L67.5813 185.395H68.4063L71.0313 192.115L73.6413 185.395H74.4363L71.4663 193H70.5513ZM78.5178 193.09C76.3578 193.09 74.8728 191.53 74.8728 189.145C74.8728 186.895 76.2978 185.305 78.3828 185.305C80.4228 185.305 81.8178 186.625 81.8928 188.89C81.8928 188.98 81.8778 189.1 81.8778 189.205H75.6678V189.34C75.6978 191.11 76.7628 192.4 78.4578 192.4C79.7028 192.4 80.7078 191.665 81.0078 190.48H81.7878C81.4578 192.01 80.1828 193.09 78.5178 193.09ZM75.7278 188.56H81.0678C80.9478 186.895 79.8828 185.98 78.3978 185.98C77.0028 185.98 75.8478 187.015 75.7278 188.56Z" fill="black"/>
<path d="M331.52 183.605V182.27H332.285V192.77H331.505V184.865C331.37 185.03 331.145 185.12 330.83 185.12H329.03V184.415H330.83C331.295 184.415 331.52 184.085 331.52 183.605ZM333.605 190.01V189.305L339.125 182.27H339.995V189.29H341.72V190.01H339.995V192.77H339.215V190.01H333.605ZM339.215 183.245L334.49 189.29H339.215V183.245ZM344.801 181.91C345.541 181.91 346.101 182.205 346.481 182.795C346.861 183.375 347.051 184.195 347.051 185.255C347.051 186.315 346.866 187.145 346.496 187.745C346.136 188.335 345.571 188.63 344.801 188.63C344.331 188.63 343.931 188.495 343.601 188.225C343.271 187.955 343.021 187.57 342.851 187.07C342.691 186.56 342.611 185.955 342.611 185.255C342.611 184.195 342.786 183.375 343.136 182.795C343.486 182.205 344.041 181.91 344.801 181.91ZM344.801 182.84C344.421 182.84 344.141 183.045 343.961 183.455C343.791 183.855 343.706 184.455 343.706 185.255C343.706 186.055 343.791 186.66 343.961 187.07C344.141 187.48 344.421 187.685 344.801 187.685C345.191 187.685 345.481 187.485 345.671 187.085C345.861 186.675 345.956 186.065 345.956 185.255C345.956 184.455 345.861 183.855 345.671 183.455C345.481 183.045 345.191 182.84 344.801 182.84ZM351.656 182.06L345.716 192.77H344.561L350.501 182.06H351.656ZM351.356 186.2C351.846 186.2 352.256 186.335 352.586 186.605C352.916 186.865 353.166 187.245 353.336 187.745C353.516 188.235 353.606 188.835 353.606 189.545C353.606 190.605 353.421 191.435 353.051 192.035C352.691 192.625 352.126 192.92 351.356 192.92C350.886 192.92 350.486 192.785 350.156 192.515C349.826 192.245 349.576 191.86 349.406 191.36C349.246 190.85 349.166 190.245 349.166 189.545C349.166 188.485 349.341 187.665 349.691 187.085C350.041 186.495 350.596 186.2 351.356 186.2ZM351.356 187.145C350.976 187.145 350.696 187.345 350.516 187.745C350.346 188.145 350.261 188.745 350.261 189.545C350.261 190.355 350.346 190.965 350.516 191.375C350.696 191.775 350.976 191.975 351.356 191.975C351.746 191.975 352.036 191.775 352.226 191.375C352.416 190.975 352.511 190.365 352.511 189.545C352.511 188.745 352.416 188.145 352.226 187.745C352.036 187.345 351.746 187.145 351.356 187.145Z" fill="#528052"/>
<path d="M456.08 192.77V182.27H456.89V187.04H462.965V182.27H463.775V192.77H462.965V187.79H456.89V192.77H456.08ZM469.118 192.86C466.958 192.86 465.473 191.3 465.473 188.915C465.473 186.665 466.898 185.075 468.983 185.075C471.023 185.075 472.418 186.395 472.493 188.66C472.493 188.75 472.478 188.87 472.478 188.975H466.268V189.11C466.298 190.88 467.363 192.17 469.058 192.17C470.303 192.17 471.308 191.435 471.608 190.25H472.388C472.058 191.78 470.783 192.86 469.118 192.86ZM466.328 188.33H471.668C471.548 186.665 470.483 185.75 468.998 185.75C467.603 185.75 466.448 186.785 466.328 188.33ZM480.695 192.065H480.98V192.77H480.53C479.63 192.77 479.255 192.38 479.285 191.48V191.21C478.82 192.155 477.905 192.86 476.36 192.86C474.74 192.86 473.675 192.035 473.675 190.685C473.675 189.26 474.725 188.42 476.675 188.42H479.255V187.76C479.255 186.5 478.445 185.75 477.02 185.75C475.73 185.75 474.92 186.365 474.725 187.295H473.96C474.155 185.915 475.31 185.075 477.05 185.075C478.955 185.075 480.02 186.05 480.02 187.79V191.33C480.02 191.915 480.245 192.065 480.695 192.065ZM479.255 189.695V189.08H476.615C475.205 189.08 474.455 189.635 474.455 190.64C474.455 191.585 475.205 192.2 476.42 192.2C478.22 192.2 479.255 191.15 479.255 189.695ZM482.004 192.77V182.27H482.769V192.77H482.004ZM485.137 191V185.87H483.697V185.165H485.137V183.035H485.902V185.165H487.957V185.87H485.902V190.985C485.902 191.765 486.187 192.065 486.982 192.065H488.032V192.77H486.922C485.632 192.77 485.137 192.215 485.137 191ZM492.706 185.075C494.431 185.075 495.706 186.11 495.706 188.51V192.77H494.941V188.54C494.941 186.74 494.041 185.78 492.586 185.78C490.966 185.78 489.961 187.04 489.961 189.02V192.77H489.196V182.27H489.961V186.965C490.396 185.87 491.281 185.075 492.706 185.075ZM499.445 192.77L496.4 185.165H497.225L499.865 191.78L502.46 185.165H503.285L499.64 194.18C499.16 195.38 498.92 195.77 497.9 195.77H496.73V195.065H497.69C498.47 195.065 498.605 194.84 498.95 194L499.445 192.77Z" fill="black"/>
<path d="M182.72 187.99V187.51C182.72 184.525 184.235 182.41 186.515 182.41C188.765 182.41 190.295 184.525 190.295 187.51V187.99C190.295 191.065 188.765 193.09 186.515 193.09C184.235 193.09 182.72 191.065 182.72 187.99ZM189.5 187.96V187.54C189.5 184.87 188.315 183.13 186.515 183.13C184.7 183.13 183.515 184.87 183.515 187.54V187.96C183.515 190.63 184.7 192.37 186.515 192.37C188.315 192.37 189.5 190.63 189.5 187.96ZM191.324 193V192.325L195.404 188.62C196.394 187.72 197.399 186.805 197.399 185.485C197.399 184 196.379 183.115 194.789 183.115C193.214 183.115 192.209 184.12 192.209 185.755V185.965H191.429V185.71C191.429 183.73 192.749 182.41 194.789 182.41C196.919 182.41 198.194 183.595 198.194 185.44C198.194 187.03 197.114 188.035 195.899 189.13L192.404 192.28H198.329V193H191.324ZM204.232 182.29L200.242 193H198.952L202.942 182.29H204.232ZM205.103 187.99V187.51C205.103 184.525 206.618 182.41 208.898 182.41C211.148 182.41 212.678 184.525 212.678 187.51V187.99C212.678 191.065 211.148 193.09 208.898 193.09C206.618 193.09 205.103 191.065 205.103 187.99ZM211.883 187.96V187.54C211.883 184.87 210.698 183.13 208.898 183.13C207.083 183.13 205.898 184.87 205.898 187.54V187.96C205.898 190.63 207.083 192.37 208.898 192.37C210.698 192.37 211.883 190.63 211.883 187.96ZM213.707 193V192.325L217.787 188.62C218.777 187.72 219.782 186.805 219.782 185.485C219.782 184 218.762 183.115 217.172 183.115C215.597 183.115 214.592 184.12 214.592 185.755V185.965H213.812V185.71C213.812 183.73 215.132 182.41 217.172 182.41C219.302 182.41 220.577 183.595 220.577 185.44C220.577 187.03 219.497 188.035 218.282 189.13L214.787 192.28H220.712V193H213.707ZM226.615 182.29L222.625 193H221.335L225.325 182.29H226.615ZM227.081 193V192.325L231.161 188.62C232.151 187.72 233.156 186.805 233.156 185.485C233.156 184 232.136 183.115 230.546 183.115C228.971 183.115 227.966 184.12 227.966 185.755V185.965H227.186V185.71C227.186 183.73 228.506 182.41 230.546 182.41C232.676 182.41 233.951 183.595 233.951 185.44C233.951 187.03 232.871 188.035 231.656 189.13L228.161 192.28H234.086V193H227.081ZM235.279 187.99V187.51C235.279 184.525 236.794 182.41 239.074 182.41C241.324 182.41 242.854 184.525 242.854 187.51V187.99C242.854 191.065 241.324 193.09 239.074 193.09C236.794 193.09 235.279 191.065 235.279 187.99ZM242.059 187.96V187.54C242.059 184.87 240.874 183.13 239.074 183.13C237.259 183.13 236.074 184.87 236.074 187.54V187.96C236.074 190.63 237.259 192.37 239.074 192.37C240.874 192.37 242.059 190.63 242.059 187.96ZM243.882 193V192.325L247.962 188.62C248.952 187.72 249.957 186.805 249.957 185.485C249.957 184 248.937 183.115 247.347 183.115C245.772 183.115 244.767 184.12 244.767 185.755V185.965H243.987V185.71C243.987 183.73 245.307 182.41 247.347 182.41C249.477 182.41 250.752 183.595 250.752 185.44C250.752 187.03 249.672 188.035 248.457 189.13L244.962 192.28H250.887V193H243.882ZM255.755 186.04C257.795 186.04 259.16 187.495 259.16 189.535C259.16 191.845 257.48 193.075 255.59 193.075C253.37 193.075 252.11 191.605 251.99 189.865H252.77C252.89 191.23 253.88 192.37 255.59 192.37C257.03 192.37 258.365 191.41 258.365 189.55C258.365 187.93 257.33 186.745 255.65 186.745C254.69 186.745 253.43 187.165 252.98 188.395L252.23 188.365L252.605 182.5H258.515V183.22H253.31L253.025 187.315C253.655 186.43 254.645 186.04 255.755 186.04Z" fill="#505050"/>
<rect x="1" y="203" width="569" height="30.7695" fill="white"/>
<path d="M182.72 217.99V217.51C182.72 214.525 184.235 212.41 186.515 212.41C188.765 212.41 190.295 214.525 190.295 217.51V217.99C190.295 221.065 188.765 223.09 186.515 223.09C184.235 223.09 182.72 221.065 182.72 217.99ZM189.5 217.96V217.54C189.5 214.87 188.315 213.13 186.515 213.13C184.7 213.13 183.515 214.87 183.515 217.54V217.96C183.515 220.63 184.7 222.37 186.515 222.37C188.315 222.37 189.5 220.63 189.5 217.96ZM191.324 223V222.325L195.404 218.62C196.394 217.72 197.399 216.805 197.399 215.485C197.399 214 196.379 213.115 194.789 213.115C193.214 213.115 192.209 214.12 192.209 215.755V215.965H191.429V215.71C191.429 213.73 192.749 212.41 194.789 212.41C196.919 212.41 198.194 213.595 198.194 215.44C198.194 217.03 197.114 218.035 195.899 219.13L192.404 222.28H198.329V223H191.324ZM204.232 212.29L200.242 223H198.952L202.942 212.29H204.232ZM205.103 217.99V217.51C205.103 214.525 206.618 212.41 208.898 212.41C211.148 212.41 212.678 214.525 212.678 217.51V217.99C212.678 221.065 211.148 223.09 208.898 223.09C206.618 223.09 205.103 221.065 205.103 217.99ZM211.883 217.96V217.54C211.883 214.87 210.698 213.13 208.898 213.13C207.083 213.13 205.898 214.87 205.898 217.54V217.96C205.898 220.63 207.083 222.37 208.898 222.37C210.698 222.37 211.883 220.63 211.883 217.96ZM214.877 221.305C214.397 220.375 214.112 219.1 214.112 217.75C214.112 214.6 215.432 212.41 217.952 212.41C219.812 212.41 220.997 213.565 221.252 215.2H220.472C220.217 213.985 219.392 213.1 217.922 213.1C215.822 213.1 214.802 215.02 214.802 217.615C214.802 218.08 214.847 218.5 214.952 218.965C214.937 218.845 214.952 218.71 214.982 218.56C215.252 217.105 216.437 216.115 218.087 216.115C220.142 216.115 221.492 217.495 221.492 219.595C221.492 221.62 220.082 223.09 217.997 223.09C216.542 223.09 215.492 222.415 214.877 221.305ZM220.712 219.595C220.712 217.96 219.692 216.805 218.042 216.805C216.377 216.805 215.252 217.96 215.252 219.61C215.252 221.26 216.347 222.4 217.982 222.4C219.632 222.4 220.712 221.245 220.712 219.595ZM227.581 212.29L223.591 223H222.301L226.291 212.29H227.581ZM228.047 223V222.325L232.127 218.62C233.117 217.72 234.122 216.805 234.122 215.485C234.122 214 233.102 213.115 231.512 213.115C229.937 213.115 228.932 214.12 228.932 215.755V215.965H228.152V215.71C228.152 213.73 229.472 212.41 231.512 212.41C233.642 212.41 234.917 213.595 234.917 215.44C234.917 217.03 233.837 218.035 232.622 219.13L229.127 222.28H235.052V223H228.047ZM236.245 217.99V217.51C236.245 214.525 237.76 212.41 240.04 212.41C242.29 212.41 243.82 214.525 243.82 217.51V217.99C243.82 221.065 242.29 223.09 240.04 223.09C237.76 223.09 236.245 221.065 236.245 217.99ZM243.025 217.96V217.54C243.025 214.87 241.84 213.13 240.04 213.13C238.225 213.13 237.04 214.87 237.04 217.54V217.96C237.04 220.63 238.225 222.37 240.04 222.37C241.84 222.37 243.025 220.63 243.025 217.96ZM244.849 223V222.325L248.929 218.62C249.919 217.72 250.924 216.805 250.924 215.485C250.924 214 249.904 213.115 248.314 213.115C246.739 213.115 245.734 214.12 245.734 215.755V215.965H244.954V215.71C244.954 213.73 246.274 212.41 248.314 212.41C250.444 212.41 251.719 213.595 251.719 215.44C251.719 217.03 250.639 218.035 249.424 219.13L245.929 222.28H251.854V223H244.849ZM256.722 216.04C258.762 216.04 260.127 217.495 260.127 219.535C260.127 221.845 258.447 223.075 256.557 223.075C254.337 223.075 253.077 221.605 252.957 219.865H253.737C253.857 221.23 254.847 222.37 256.557 222.37C257.997 222.37 259.332 221.41 259.332 219.55C259.332 217.93 258.297 216.745 256.617 216.745C255.657 216.745 254.397 217.165 253.947 218.395L253.197 218.365L253.572 212.5H259.482V213.22H254.277L253.992 217.315C254.622 216.43 255.612 216.04 256.722 216.04Z" fill="#505050"/>
<path d="M20.585 213.25V212.5H28.31V213.1L21.455 222.25H28.445V223H20.375V222.4L27.215 213.25H20.585ZM32.5657 223.09C30.4207 223.09 28.9207 221.5 28.9207 219.19C28.9207 216.895 30.4207 215.305 32.5657 215.305C34.7107 215.305 36.2257 216.895 36.2257 219.19C36.2257 221.5 34.7107 223.09 32.5657 223.09ZM32.5657 222.4C34.2607 222.4 35.4307 221.08 35.4307 219.19C35.4307 217.315 34.2607 215.98 32.5657 215.98C30.8707 215.98 29.7007 217.315 29.7007 219.19C29.7007 221.08 30.8707 222.4 32.5657 222.4ZM41.2557 215.305C42.9807 215.305 44.2557 216.34 44.2557 218.74V223H43.4907V218.77C43.4907 216.97 42.6057 216.01 41.1357 216.01C39.5157 216.01 38.5107 217.27 38.5107 219.25V223H37.7457V215.395H38.4057L38.5257 217.015C38.9607 216.025 39.8607 215.305 41.2557 215.305ZM49.1916 223.09C47.0316 223.09 45.5466 221.53 45.5466 219.145C45.5466 216.895 46.9716 215.305 49.0566 215.305C51.0966 215.305 52.4916 216.625 52.5666 218.89C52.5666 218.98 52.5516 219.1 52.5516 219.205H46.3416V219.34C46.3716 221.11 47.4366 222.4 49.1316 222.4C50.3766 222.4 51.3816 221.665 51.6816 220.48H52.4616C52.1316 222.01 50.8566 223.09 49.1916 223.09ZM46.4016 218.56H51.7416C51.6216 216.895 50.5566 215.98 49.0716 215.98C47.6766 215.98 46.5216 217.015 46.4016 218.56ZM57.9117 219.775H58.7517C58.8567 221.335 60.0567 222.355 61.8267 222.355C63.5217 222.355 64.6617 221.545 64.6617 220.195C64.6617 218.665 63.1917 218.335 61.5417 218.05C59.8617 217.765 58.1517 217.315 58.1517 215.32C58.1517 213.535 59.5467 212.41 61.6767 212.41C63.8217 212.41 65.1867 213.595 65.3367 215.395H64.5117C64.3317 214.03 63.2517 213.145 61.6767 213.145C60.0267 213.145 58.9617 213.91 58.9617 215.275C58.9617 216.775 60.3567 217.045 61.9617 217.315C63.7017 217.615 65.4717 218.125 65.4717 220.12C65.4717 221.89 64.0167 223.09 61.8117 223.09C59.4567 223.09 58.0167 221.755 57.9117 219.775ZM67.4619 213.79C67.1619 213.79 66.9219 213.565 66.9219 213.25C66.9219 212.935 67.1619 212.71 67.4619 212.71C67.7619 212.71 68.0019 212.935 68.0019 213.25C68.0019 213.565 67.7619 213.79 67.4619 213.79ZM67.0719 223V215.395H67.8369V223H67.0719ZM68.8254 223L71.7804 219.115L68.9754 215.395H69.8904L72.2604 218.545L74.6604 215.395H75.5304L72.7254 219.115L75.6804 223H74.7504L72.2304 219.655L69.7104 223H68.8254Z" fill="black"/>
<path d="M329.09 212.99V212.27H336.29V212.84L330.965 222.77H330.11L335.435 212.99H329.09ZM339.381 211.91C340.121 211.91 340.681 212.205 341.061 212.795C341.441 213.375 341.631 214.195 341.631 215.255C341.631 216.315 341.446 217.145 341.076 217.745C340.716 218.335 340.151 218.63 339.381 218.63C338.911 218.63 338.511 218.495 338.181 218.225C337.851 217.955 337.601 217.57 337.431 217.07C337.271 216.56 337.191 215.955 337.191 215.255C337.191 214.195 337.366 213.375 337.716 212.795C338.066 212.205 338.621 211.91 339.381 211.91ZM339.381 212.84C339.001 212.84 338.721 213.045 338.541 213.455C338.371 213.855 338.286 214.455 338.286 215.255C338.286 216.055 338.371 216.66 338.541 217.07C338.721 217.48 339.001 217.685 339.381 217.685C339.771 217.685 340.061 217.485 340.251 217.085C340.441 216.675 340.536 216.065 340.536 215.255C340.536 214.455 340.441 213.855 340.251 213.455C340.061 213.045 339.771 212.84 339.381 212.84ZM346.236 212.06L340.296 222.77H339.141L345.081 212.06H346.236ZM345.936 216.2C346.426 216.2 346.836 216.335 347.166 216.605C347.496 216.865 347.746 217.245 347.916 217.745C348.096 218.235 348.186 218.835 348.186 219.545C348.186 220.605 348.001 221.435 347.631 222.035C347.271 222.625 346.706 222.92 345.936 222.92C345.466 222.92 345.066 222.785 344.736 222.515C344.406 222.245 344.156 221.86 343.986 221.36C343.826 220.85 343.746 220.245 343.746 219.545C343.746 218.485 343.921 217.665 344.271 217.085C344.621 216.495 345.176 216.2 345.936 216.2ZM345.936 217.145C345.556 217.145 345.276 217.345 345.096 217.745C344.926 218.145 344.841 218.745 344.841 219.545C344.841 220.355 344.926 220.965 345.096 221.375C345.276 221.775 345.556 221.975 345.936 221.975C346.326 221.975 346.616 221.775 346.806 221.375C346.996 220.975 347.091 220.365 347.091 219.545C347.091 218.745 346.996 218.145 346.806 217.745C346.616 217.345 346.326 217.145 345.936 217.145Z" fill="#528052"/>
<path d="M456.08 222.77V212.27H456.89V217.04H462.965V212.27H463.775V222.77H462.965V217.79H456.89V222.77H456.08ZM469.118 222.86C466.958 222.86 465.473 221.3 465.473 218.915C465.473 216.665 466.898 215.075 468.983 215.075C471.023 215.075 472.418 216.395 472.493 218.66C472.493 218.75 472.478 218.87 472.478 218.975H466.268V219.11C466.298 220.88 467.363 222.17 469.058 222.17C470.303 222.17 471.308 221.435 471.608 220.25H472.388C472.058 221.78 470.783 222.86 469.118 222.86ZM466.328 218.33H471.668C471.548 216.665 470.483 215.75 468.998 215.75C467.603 215.75 466.448 216.785 466.328 218.33ZM480.695 222.065H480.98V222.77H480.53C479.63 222.77 479.255 222.38 479.285 221.48V221.21C478.82 222.155 477.905 222.86 476.36 222.86C474.74 222.86 473.675 222.035 473.675 220.685C473.675 219.26 474.725 218.42 476.675 218.42H479.255V217.76C479.255 216.5 478.445 215.75 477.02 215.75C475.73 215.75 474.92 216.365 474.725 217.295H473.96C474.155 215.915 475.31 215.075 477.05 215.075C478.955 215.075 480.02 216.05 480.02 217.79V221.33C480.02 221.915 480.245 222.065 480.695 222.065ZM479.255 219.695V219.08H476.615C475.205 219.08 474.455 219.635 474.455 220.64C474.455 221.585 475.205 222.2 476.42 222.2C478.22 222.2 479.255 221.15 479.255 219.695ZM482.004 222.77V212.27H482.769V222.77H482.004ZM485.137 221V215.87H483.697V215.165H485.137V213.035H485.902V215.165H487.957V215.87H485.902V220.985C485.902 221.765 486.187 222.065 486.982 222.065H488.032V222.77H486.922C485.632 222.77 485.137 222.215 485.137 221ZM492.706 215.075C494.431 215.075 495.706 216.11 495.706 218.51V222.77H494.941V218.54C494.941 216.74 494.041 215.78 492.586 215.78C490.966 215.78 489.961 217.04 489.961 219.02V222.77H489.196V212.27H489.961V216.965C490.396 215.87 491.281 215.075 492.706 215.075ZM499.445 222.77L496.4 215.165H497.225L499.865 221.78L502.46 215.165H503.285L499.64 224.18C499.16 225.38 498.92 225.77 497.9 225.77H496.73V225.065H497.69C498.47 225.065 498.605 224.84 498.95 224L499.445 222.77Z" fill="black"/>
</g>
<rect x="1.25" y="1.25" width="568.5" height="232.5" rx="12.75" stroke="#E9E9E9" stroke-width="0.5"/>
</g>
<defs>
<filter id="filter0_d_85_16" x="0" y="0" width="571" height="235" filterUnits="userSpaceOnUse" color-interpolation-filters="sRGB">
<feFlood flood-opacity="0" result="BackgroundImageFix"/>
<feColorMatrix in="SourceAlpha" type="matrix" values="0 0 0 0 0 0 0 0 0 0 0 0 0 0 0 0 0 0 127 0" result="hardAlpha"/>
<feOffset/>
<feGaussianBlur stdDeviation="0.5"/>
<feComposite in2="hardAlpha" operator="out"/>
<feColorMatrix type="matrix" values="0 0 0 0 0 0 0 0 0 0 0 0 0 0 0 0 0 0 0.25 0"/>
<feBlend mode="normal" in2="BackgroundImageFix" result="effect1_dropShadow_85_16"/>
<feBlend mode="normal" in="SourceGraphic" in2="effect1_dropShadow_85_16" result="shape"/>
</filter>
<clipPath id="clip0_85_16">
<rect x="1" y="1" width="569" height="233" rx="13" fill="white"/>
</clipPath>
</defs>
</svg>
